<?xml version="1.0" standalone="no"?>
<!DOCTYPE svg PUBLIC "-//W3C//DTD SVG 20010904//EN"
 "http://www.w3.org/TR/2001/REC-SVG-20010904/DTD/svg10.dtd">
<svg version="1.0" xmlns="http://www.w3.org/2000/svg"
 width="544.000000pt" height="544.000000pt" viewBox="0 0 544.000000 544.000000"
 preserveAspectRatio="xMidYMid meet">
<metadata>
Created by potrace 1.14, written by Peter Selinger 2001-2017
</metadata>
<g transform="translate(0.000000,544.000000) scale(0.100000,-0.100000)"
fill="#000000" stroke="none">
<path d="M2459 5356 c-2 -2 -35 -6 -72 -10 -116 -11 -282 -39 -362 -61 -27 -8
-61 -16 -75 -18 -138 -26 -550 -205 -687 -298 -23 -16 -46 -29 -52 -29 -6 0
-11 -4 -11 -8 0 -5 -10 -13 -22 -19 -37 -17 -218 -156 -293 -224 -136 -125
-272 -274 -361 -394 -16 -22 -31 -42 -34 -45 -7 -7 -108 -163 -131 -202 -91
-156 -229 -480 -254 -595 -2 -10 -13 -49 -23 -88 -11 -38 -23 -86 -26 -105 -3
-19 -8 -46 -11 -60 -15 -76 -16 -83 -32 -225 -15 -133 -8 -496 11 -605 3 -14
7 -43 10 -65 3 -22 8 -52 11 -68 3 -15 7 -37 9 -50 2 -12 9 -42 15 -67 7 -25
13 -52 15 -61 11 -44 29 -106 36 -124 5 -11 14 -38 20 -60 6 -22 15 -49 20
-60 5 -11 14 -33 20 -50 44 -122 159 -345 251 -485 45 -69 84 -127 88 -130 4
-3 21 -25 39 -49 83 -115 337 -374 422 -430 13 -9 36 -26 49 -39 34 -31 229
-162 241 -162 6 0 10 -3 10 -7 0 -5 10 -13 23 -19 12 -6 80 -41 150 -77 70
-36 129 -66 130 -65 1 0 20 -7 42 -17 161 -69 441 -147 610 -171 180 -26 262
-31 450 -29 116 2 228 6 250 9 22 3 60 8 85 12 165 21 500 110 615 163 11 5
40 18 65 28 24 10 92 42 150 71 725 367 1231 1033 1396 1837 21 105 25 125 30
180 3 28 8 77 11 110 14 128 7 440 -12 570 -2 17 -6 46 -9 65 -3 19 -10 60
-16 90 -6 30 -13 66 -16 78 -3 13 -11 47 -19 75 -8 29 -17 63 -20 77 -4 14 -9
32 -12 40 -3 8 -7 20 -8 25 -12 53 -85 234 -140 350 -50 103 -166 305 -190
328 -8 9 -15 20 -15 24 0 5 -8 18 -18 29 -10 10 -23 27 -28 35 -38 66 -214
262 -340 379 -111 102 -307 254 -349 270 -11 4 -27 15 -34 24 -7 9 -17 16 -21
16 -4 0 -34 16 -66 35 -32 19 -101 56 -153 81 -53 25 -104 50 -113 55 -10 5
-24 9 -32 9 -8 0 -16 4 -18 8 -5 14 -306 113 -388 128 -14 3 -41 9 -60 14 -19
5 -51 11 -70 14 -19 3 -44 7 -55 10 -36 7 -119 19 -160 23 -51 5 -462 13 -466
9z"/>
</g>
</svg>
