<svg width="235" height="247" fill="none" xmlns="http://www.w3.org/2000/svg"><path d="M227.339 119.97c-8.559-7.062-21.203-6.739-29.398.73l-27.718 25.255a21.17 21.17 0 00-17.159-8.695h-29.395c-3.696 0-7.274-.631-10.636-1.879-8.306-3.083-24.714-7.238-41.231-.415-3.151 1.299-6.291 3.248-9.336 5.788L33.752 164.74c-4.49-2.621-10.34-2.045-14.18 1.794L6.436 179.67c-4.58 4.575-4.583 11.995 0 16.575l43.854 43.856c4.569 4.571 12.002 4.569 16.575 0l13.136-13.14c4.567-4.565 4.567-12.001 0-16.575l-.419-.418 3.168-3.167c5.968-5.965 13.993-9.125 22.08-8.559 19.416 1.258 39.081-.29 58.456-4.621a36.518 36.518 0 0017.885-9.847l46.979-46.983c4.74-4.74 4.372-12.555-.811-16.821zM74.686 221.647l-13.135 13.139a4.21 4.21 0 01-5.946 0L11.75 190.93a4.2 4.2 0 010-5.945l13.135-13.136a4.209 4.209 0 015.946 0l43.853 43.852a4.21 4.21 0 01.001 5.946zm148.15-90.171l-46.979 46.983a29.054 29.054 0 01-14.208 7.829c-18.681 4.166-37.646 5.678-56.329 4.452-10.208-.676-20.388 3.241-27.884 10.746l-3.168 3.168-34.717-34.963 27.732-23.167c2.457-2.048 4.942-3.6 7.388-4.613 14.142-5.84 28.467-2.18 35.747.517 4.202 1.56 8.66 2.349 13.251 2.349h29.395c7.72 0 13.777 6.274 13.716 13.786-.015 2.283-1.92 4.14-4.247 4.14h-66.07a3.757 3.757 0 00-3.758 3.758 3.758 3.758 0 003.759 3.759h66.07c6.441 0 11.719-5.209 11.763-11.602a21.081 21.081 0 00-.698-5.568l29.406-26.793c5.45-4.973 13.863-5.178 19.555-.488a3.854 3.854 0 01.276 5.707z" fill="#fff" fill-opacity=".3"/><path d="M170.402 143.762l26.528-24.171s0 0 0 0c8.747-7.97 22.227-8.315 31.363-.779 5.867 4.83 6.283 13.675.918 19.039l-46.979 46.983-.964-.964.964.964a38.028 38.028 0 01-18.619 10.251c-19.511 4.361-39.319 5.922-58.88 4.653h-.008c-7.624-.533-15.232 2.445-20.915 8.124 0 0 0 0 0 0l-2.129 2.128c4.524 5.19 4.319 13.095-.62 18.032 0 0 0 0 0 0l-13.135 13.139v.001c-5.159 5.154-13.542 5.157-18.696-.001h0m121.172-97.399L6.436 179.67c-4.58 4.575-4.583 11.995 0 16.575l43.854 43.856-1.06 1.06m121.172-97.399a22.658 22.658 0 00-17.338-8.002h-29.395c-3.523 0-6.925-.601-10.114-1.785h0c-8.44-3.133-25.29-7.432-42.325-.396l99.172 10.183zM49.229 241.161L5.376 197.306v-.001c-5.17-5.166-5.166-13.535 0-18.696m43.853 62.552L5.376 178.609m0 0l13.135-13.136h0c4.075-4.074 10.143-4.888 15.053-2.53l27.94-23.34.001-.001c3.142-2.621 6.411-4.656 9.724-6.022L5.376 178.609zm170.421-19.981c-.05 7.228-6.007 13.092-13.263 13.092h-66.07a5.258 5.258 0 01-5.259-5.259 5.257 5.257 0 015.259-5.258h66.069c1.53 0 2.738-1.218 2.747-2.65v-.002c.054-6.688-5.338-12.274-12.216-12.274h-29.395c-4.765 0-9.399-.82-13.773-2.443-7.157-2.651-21.035-6.16-34.652-.537-2.28.945-4.636 2.409-7 4.38l-26.477 22.117 32.505 32.735 2.102-2.103c7.79-7.799 18.388-11.888 29.044-11.183 18.537 1.216 37.357-.284 55.904-4.419a27.552 27.552 0 0013.474-7.425l46.979-46.983a2.355 2.355 0 00-.168-3.489h-.001c-5.117-4.217-12.692-4.031-17.59.438v.001l-28.749 26.194c.365 1.651.543 3.348.53 5.068zm0 0v.001l-1.5-.011 1.5.01zM60.49 233.726h0a2.71 2.71 0 01-3.825-.001l-.001-.001-43.852-43.853s0 0 0 0a2.702 2.702 0 010-3.827l13.134-13.133a2.709 2.709 0 013.826-.001l.26.261.025.024.024.024.026.026.027.027.115.115.063.062.032.033.034.033.034.035.035.035.036.036.037.036.037.038.039.038.039.04.04.04.082.082.043.043.043.043.374.374.05.05.051.051.104.104.054.053.054.054.054.055.056.056.056.056.057.057.116.116.059.059.06.059.06.061.061.061.062.062.063.063.063.063.064.064.13.13.066.066.067.067.067.067.068.068.069.069.07.069.283.284.073.073.073.073.074.074.074.074.151.151.077.077.077.077.637.637.083.083.083.082.083.084.084.084.342.342.35.351.36.359.743.743.384.384.195.195.098.098.098.098.1.099.099.099.2.201.405.405.103.103.103.103.103.103.104.104.104.104.105.105.21.21.212.212.107.107.107.107.215.215.108.108.109.108.108.109.11.11.11.109.11.11.443.443.223.224.113.113.113.112.113.113.113.114.114.113.113.114.46.459.23.231.117.117.116.116.117.116.117.117.117.118.117.117.236.236.118.118.119.118.118.119.12.119.119.119.119.12.48.48.241.241.121.121.122.121.243.244.244.243.244.245.245.245.123.123.123.123.124.124.123.123.495.495.249.249.124.124.125.125.25.249.124.125.125.125.251.251.251.251.503.503.126.126.126.126.126.126.126.126.127.126.126.127.126.126.127.127.506.506.253.253.127.127.127.127.127.127.127.126.126.127.127.127.127.127.127.127.127.127.127.127.127.126.126.127.127.127.127.127 1.013 1.013.127.127.126.126.127.126.126.127.126.126.126.126.252.252.126.126.126.126.126.126.125.125.126.126.126.125.125.126.125.125.125.125.125.125.125.125.125.125.125.124.124.125.249.249.124.124.124.124.124.123.123.124.247.247.246.246.123.123.123.123.122.122.122.122.123.122.121.122.122.122.122.121.121.122.121.121.121.121.12.12.121.121.12.12.12.12.12.12.12.12.119.119.12.119.118.119.119.118.118.119.118.118.118.118.117.117.117.117.118.117.116.117.117.117.116.116.116.116.116.115.115.116.115.115.229.229.114.114.114.114.113.113.113.113.113.113.113.113.224.224.111.111.111.111.111.111.11.111.11.11.11.109.11.11.11.109.431.432.108.107.106.107.107.107.106.106.21.21.105.105.105.104.207.208.103.103.103.103.102.102.102.102.101.101.101.101.1.101.1.1.1.099.1.099.197.197.097.098.098.097.097.097.096.097.096.095.095.096.095.095.094.094.188.187.185.186.183.183.091.091.09.09.09.09.09.089.088.089.088.088.175.175.087.086.086.086.17.171.084.084.084.084.083.083.083.083.163.163.081.081.08.08.315.315.078.077.076.077.076.076.076.075.074.075.075.074.073.074.073.073.072.072.072.072.141.141.07.07.069.069.136.135.264.264.127.128.126.125.241.242.23.23.056.056.055.055.055.054.053.054.053.053.052.052.051.051.05.051.1.099.048.048.047.047.047.047.046.046.045.045.045.044.043.044.043.043.042.042.041.041.04.04.04.04.039.039.038.037.037.038.036.036.035.035.035.035.13.13.06.06.029.029.028.028.325.325.024.024.02.02.03.03.013.013a2.71 2.71 0 01.003 3.825l1.06 1.061-1.06-1.061-13.136 13.14zm13.136-16.968c.002-.733.257-1.212.59-1.525l.468.468-1.058 1.057zm79.438-71.981c7.72 0 13.777 6.274 13.716 13.786l-92.109-16.652c14.142-5.84 28.467-2.18 35.747.517 4.202 1.56 8.66 2.349 13.251 2.349h29.395zM39.629 169.784l.347.416-.347-.416z" stroke="#fff" stroke-opacity=".3" stroke-width="3"/><path d="M132.332 122.581c28.749 0 52.144-23.387 52.151-52.136a3.76 3.76 0 00-3.758-3.759h-44.62V22.071a3.772 3.772 0 00-3.773-3.762c-28.738 0-52.12 23.383-52.12 52.121 0 28.756 23.382 52.151 52.12 52.151zm-3.743-96.601v44.465a3.755 3.755 0 003.758 3.758h44.461c-1.923 22.851-21.137 40.861-44.476 40.861-24.594 0-44.603-20.02-44.603-44.634 0-23.335 18.011-42.542 40.86-44.45z" fill="#fff" fill-opacity=".3"/><path d="M185.983 70.445v0a5.26 5.26 0 00-5.258-5.259h-43.12V22.071c0-2.911-2.371-5.262-5.273-5.262-29.566 0-53.62 24.055-53.62 53.621 0 29.584 24.053 53.651 53.62 53.651 29.578 0 53.644-24.058 53.651-53.636zm-58.894-42.804v42.804a5.256 5.256 0 005.258 5.258h42.799c-2.61 21.304-20.818 37.861-42.814 37.861-23.765 0-43.103-19.348-43.103-43.134 0-21.992 16.558-40.193 37.86-42.789z" stroke="#fff" stroke-opacity=".3" stroke-width="3"/><path d="M147.658 58.89h48.374c2.077 0 3.758-1.695 3.758-3.772 0-28.73-23.387-52.11-52.132-52.118a3.761 3.761 0 00-3.759 3.758v48.374a3.757 3.757 0 003.759 3.759zm3.758-48.216c21.614 1.817 38.898 19.096 40.704 40.7h-40.704v-40.7z" fill="#fff" fill-opacity=".3"/><path d="M147.658 1.5h0a5.26 5.26 0 00-5.259 5.258v48.374a5.257 5.257 0 005.259 5.259h48.374c2.913 0 5.258-2.375 5.258-5.273 0-29.56-24.059-53.61-53.632-53.618zm5.258 48.374V12.337c19.582 2.396 35.155 17.966 37.542 37.537h-37.542z" stroke="#fff" stroke-opacity=".3" stroke-width="3"/></svg>