<svg width="293" height="269" fill="none" xmlns="http://www.w3.org/2000/svg"><mask id="path-1-outside-1_300_99" maskUnits="userSpaceOnUse" x="-115.085" y="-31.197" width="431.013" height="426.883" fill="#000"><path fill="#fff" d="M-115.085-31.197h431.013v426.883h-431.013z"/><path d="M231.319 172.649a99.288 99.288 0 00-11.658-9.164c-4.108-2.757-8.443-5.161-12.915-7.25-8.963-4.148-18.558-6.964-28.361-8.079-9.81-1.177-19.731-.868-29.609-.427-9.882.466-19.791 1.099-29.74.745l.632-.797c4.842 17.071 13.358 33.085 24.944 46.498 11.54 13.443 26.012 24.334 42.043 31.818 16.032 7.493 33.665 11.534 51.34 11.715 17.67.186 35.387-3.484 51.41-10.905l-.718 1.207c-1.134-16.453-5.64-32.656-13.219-47.287-7.564-14.646-18.298-27.607-31.073-37.97-6.402-5.181-13.404-9.59-20.758-13.284a115.716 115.716 0 00-23.121-8.518c-3.992-.958-8.022-1.757-12.114-2.262-4.087-.501-8.193-.862-12.324-1.007-8.256-.329-16.552-.068-24.86.294-8.308.352-16.646.796-25.022.845-4.188.024-8.384-.042-12.577-.3-4.197-.243-8.39-.639-12.555-1.323-1.043-.159-2.086-.318-3.118-.54-1.035-.207-2.074-.39-3.1-.626l-3.083-.747c-1.03-.231-2.033-.573-3.052-.858l-1.526-.443c-.503-.154-1.002-.342-1.5-.511-.998-.356-2.003-.675-2.992-1.051-1.964-.796-3.942-1.557-5.835-2.499-1.938-.854-3.773-1.927-5.644-2.913l-2.712-1.659-1.353-.836-1.313-.9a80.155 80.155 0 01-9.862-7.99c-6.138-5.831-11.361-12.603-15.488-19.988a84.244 84.244 0 01-5.322-11.503 90.12 90.12 0 01-3.538-12.169C28.15 35.42 29.517 17.88 35.705 2.123l.356-.897.95.12C51.238 3.115 64.759 9.091 75.99 17.84c11.247 8.763 20.216 20.375 25.992 33.373 2.877 6.506 4.957 13.352 6.329 20.323 1.348 6.977 1.897 14.087 1.848 21.175-.173 14.189-2.905 28.259-7.463 41.633-2.263 6.698-5.013 13.227-8.159 19.555-1.548 3.178-3.257 6.27-5 9.34-1.798 3.038-3.643 6.059-5.63 8.974a332.564 332.564 0 01-12.483 17.06c-2.13 2.801-4.36 5.53-6.544 8.29-2.233 2.723-4.428 5.474-6.696 8.166a916.105 916.105 0 01-27.761 31.809c-9.473 10.402-19.182 20.592-29.165 30.51a814.863 814.863 0 0014.573-15.26c4.774-5.161 9.527-10.351 14.207-15.6a924.463 924.463 0 0027.427-32.055c2.24-2.71 4.404-5.479 6.608-8.221 2.15-2.782 4.35-5.519 6.451-8.339A331.604 331.604 0 0082.79 171.46a162.873 162.873 0 0010.404-18.239c3.08-6.287 5.765-12.766 7.967-19.41 4.438-13.255 7.046-27.172 7.133-41.128.005-6.972-.569-13.948-1.936-20.776-1.381-6.822-3.455-13.496-6.302-19.836-5.72-12.66-14.52-23.9-25.517-32.366C63.562 11.267 50.46 5.478 36.715 3.804l1.307-.778c-5.97 15.294-7.267 32.353-3.866 48.395a87.144 87.144 0 003.453 11.794 81.898 81.898 0 005.18 11.14c4.013 7.15 9.086 13.698 15.035 19.325a77.078 77.078 0 009.54 7.7l1.264.864 1.31.804 2.623 1.595c1.812.95 3.58 1.987 5.459 2.805 1.834.905 3.748 1.636 5.645 2.405.954.363 1.931.673 2.9 1.012.483.164.963.343 1.456.488l1.478.426c.985.271 1.962.6 2.965.822l2.99.717c1.002.222 2.012.397 3.023.6 1.002.213 2.021.368 3.036.519 4.058.659 8.165 1.04 12.28 1.271 4.117.251 8.26.305 12.399.273 8.285-.05 16.589-.536 24.921-.875 8.332-.348 16.706-.593 25.096-.24 4.194.157 8.391.529 12.569 1.05 4.179.521 8.33 1.35 12.424 2.347 8.172 2.063 16.108 5.023 23.655 8.767 7.521 3.793 14.675 8.326 21.215 13.636 13.053 10.631 23.983 23.885 31.688 38.866 7.714 14.961 12.281 31.516 13.403 48.309l.058.858-.772.353a133.525 133.525 0 01-12.58 4.946c-4.294 1.376-8.642 2.564-13.057 3.485-4.421.879-8.877 1.568-13.357 1.986-4.487.383-8.989.586-13.491.512-18.008-.289-35.906-4.512-52.141-12.213s-30.835-18.832-42.455-32.526c-11.652-13.659-20.21-29.925-24.908-47.231l-.23-.833.858.041c9.856.444 19.745-.089 29.649-.459 9.891-.346 19.863-.562 29.734.719 9.865 1.228 19.501 4.128 28.445 8.415 4.464 2.156 8.783 4.628 12.859 7.439a100.239 100.239 0 0111.544 9.316z"/></mask><path d="M231.319 172.649a99.288 99.288 0 00-11.658-9.164c-4.108-2.757-8.443-5.161-12.915-7.25-8.963-4.148-18.558-6.964-28.361-8.079-9.81-1.177-19.731-.868-29.609-.427-9.882.466-19.791 1.099-29.74.745l.632-.797c4.842 17.071 13.358 33.085 24.944 46.498 11.54 13.443 26.012 24.334 42.043 31.818 16.032 7.493 33.665 11.534 51.34 11.715 17.67.186 35.387-3.484 51.41-10.905l-.718 1.207c-1.134-16.453-5.64-32.656-13.219-47.287-7.564-14.646-18.298-27.607-31.073-37.97-6.402-5.181-13.404-9.59-20.758-13.284a115.716 115.716 0 00-23.121-8.518c-3.992-.958-8.022-1.757-12.114-2.262-4.087-.501-8.193-.862-12.324-1.007-8.256-.329-16.552-.068-24.86.294-8.308.352-16.646.796-25.022.845-4.188.024-8.384-.042-12.577-.3-4.197-.243-8.39-.639-12.555-1.323-1.043-.159-2.086-.318-3.118-.54-1.035-.207-2.074-.39-3.1-.626l-3.083-.747c-1.03-.231-2.033-.573-3.052-.858l-1.526-.443c-.503-.154-1.002-.342-1.5-.511-.998-.356-2.003-.675-2.992-1.051-1.964-.796-3.942-1.557-5.835-2.499-1.938-.854-3.773-1.927-5.644-2.913l-2.712-1.659-1.353-.836-1.313-.9a80.155 80.155 0 01-9.862-7.99c-6.138-5.831-11.361-12.603-15.488-19.988a84.244 84.244 0 01-5.322-11.503 90.12 90.12 0 01-3.538-12.169C28.15 35.42 29.517 17.88 35.705 2.123l.356-.897.95.12C51.238 3.115 64.759 9.091 75.99 17.84c11.247 8.763 20.216 20.375 25.992 33.373 2.877 6.506 4.957 13.352 6.329 20.323 1.348 6.977 1.897 14.087 1.848 21.175-.173 14.189-2.905 28.259-7.463 41.633-2.263 6.698-5.013 13.227-8.159 19.555-1.548 3.178-3.257 6.27-5 9.34-1.798 3.038-3.643 6.059-5.63 8.974a332.564 332.564 0 01-12.483 17.06c-2.13 2.801-4.36 5.53-6.544 8.29-2.233 2.723-4.428 5.474-6.696 8.166a916.105 916.105 0 01-27.761 31.809c-9.473 10.402-19.182 20.592-29.165 30.51a814.863 814.863 0 0014.573-15.26c4.774-5.161 9.527-10.351 14.207-15.6a924.463 924.463 0 0027.427-32.055c2.24-2.71 4.404-5.479 6.608-8.221 2.15-2.782 4.35-5.519 6.451-8.339A331.604 331.604 0 0082.79 171.46a162.873 162.873 0 0010.404-18.239c3.08-6.287 5.765-12.766 7.967-19.41 4.438-13.255 7.046-27.172 7.133-41.128.005-6.972-.569-13.948-1.936-20.776-1.381-6.822-3.455-13.496-6.302-19.836-5.72-12.66-14.52-23.9-25.517-32.366C63.562 11.267 50.46 5.478 36.715 3.804l1.307-.778c-5.97 15.294-7.267 32.353-3.866 48.395a87.144 87.144 0 003.453 11.794 81.898 81.898 0 005.18 11.14c4.013 7.15 9.086 13.698 15.035 19.325a77.078 77.078 0 009.54 7.7l1.264.864 1.31.804 2.623 1.595c1.812.95 3.58 1.987 5.459 2.805 1.834.905 3.748 1.636 5.645 2.405.954.363 1.931.673 2.9 1.012.483.164.963.343 1.456.488l1.478.426c.985.271 1.962.6 2.965.822l2.99.717c1.002.222 2.012.397 3.023.6 1.002.213 2.021.368 3.036.519 4.058.659 8.165 1.04 12.28 1.271 4.117.251 8.26.305 12.399.273 8.285-.05 16.589-.536 24.921-.875 8.332-.348 16.706-.593 25.096-.24 4.194.157 8.391.529 12.569 1.05 4.179.521 8.33 1.35 12.424 2.347 8.172 2.063 16.108 5.023 23.655 8.767 7.521 3.793 14.675 8.326 21.215 13.636 13.053 10.631 23.983 23.885 31.688 38.866 7.714 14.961 12.281 31.516 13.403 48.309l.058.858-.772.353a133.525 133.525 0 01-12.58 4.946c-4.294 1.376-8.642 2.564-13.057 3.485-4.421.879-8.877 1.568-13.357 1.986-4.487.383-8.989.586-13.491.512-18.008-.289-35.906-4.512-52.141-12.213s-30.835-18.832-42.455-32.526c-11.652-13.659-20.21-29.925-24.908-47.231l-.23-.833.858.041c9.856.444 19.745-.089 29.649-.459 9.891-.346 19.863-.562 29.734.719 9.865 1.228 19.501 4.128 28.445 8.415 4.464 2.156 8.783 4.628 12.859 7.439a100.239 100.239 0 0111.544 9.316z" fill="url(#paint0_linear_300_99)" fill-opacity=".12"/><path d="M231.319 172.649a99.288 99.288 0 00-11.658-9.164c-4.108-2.757-8.443-5.161-12.915-7.25-8.963-4.148-18.558-6.964-28.361-8.079-9.81-1.177-19.731-.868-29.609-.427-9.882.466-19.791 1.099-29.74.745l.632-.797c4.842 17.071 13.358 33.085 24.944 46.498 11.54 13.443 26.012 24.334 42.043 31.818 16.032 7.493 33.665 11.534 51.34 11.715 17.67.186 35.387-3.484 51.41-10.905l-.718 1.207c-1.134-16.453-5.64-32.656-13.219-47.287-7.564-14.646-18.298-27.607-31.073-37.97-6.402-5.181-13.404-9.59-20.758-13.284a115.716 115.716 0 00-23.121-8.518c-3.992-.958-8.022-1.757-12.114-2.262-4.087-.501-8.193-.862-12.324-1.007-8.256-.329-16.552-.068-24.86.294-8.308.352-16.646.796-25.022.845-4.188.024-8.384-.042-12.577-.3-4.197-.243-8.39-.639-12.555-1.323-1.043-.159-2.086-.318-3.118-.54-1.035-.207-2.074-.39-3.1-.626l-3.083-.747c-1.03-.231-2.033-.573-3.052-.858l-1.526-.443c-.503-.154-1.002-.342-1.5-.511-.998-.356-2.003-.675-2.992-1.051-1.964-.796-3.942-1.557-5.835-2.499-1.938-.854-3.773-1.927-5.644-2.913l-2.712-1.659-1.353-.836-1.313-.9a80.155 80.155 0 01-9.862-7.99c-6.138-5.831-11.361-12.603-15.488-19.988a84.244 84.244 0 01-5.322-11.503 90.12 90.12 0 01-3.538-12.169C28.15 35.42 29.517 17.88 35.705 2.123l.356-.897.95.12C51.238 3.115 64.759 9.091 75.99 17.84c11.247 8.763 20.216 20.375 25.992 33.373 2.877 6.506 4.957 13.352 6.329 20.323 1.348 6.977 1.897 14.087 1.848 21.175-.173 14.189-2.905 28.259-7.463 41.633-2.263 6.698-5.013 13.227-8.159 19.555-1.548 3.178-3.257 6.27-5 9.34-1.798 3.038-3.643 6.059-5.63 8.974a332.564 332.564 0 01-12.483 17.06c-2.13 2.801-4.36 5.53-6.544 8.29-2.233 2.723-4.428 5.474-6.696 8.166a916.105 916.105 0 01-27.761 31.809c-9.473 10.402-19.182 20.592-29.165 30.51a814.863 814.863 0 0014.573-15.26c4.774-5.161 9.527-10.351 14.207-15.6a924.463 924.463 0 0027.427-32.055c2.24-2.71 4.404-5.479 6.608-8.221 2.15-2.782 4.35-5.519 6.451-8.339A331.604 331.604 0 0082.79 171.46a162.873 162.873 0 0010.404-18.239c3.08-6.287 5.765-12.766 7.967-19.41 4.438-13.255 7.046-27.172 7.133-41.128.005-6.972-.569-13.948-1.936-20.776-1.381-6.822-3.455-13.496-6.302-19.836-5.72-12.66-14.52-23.9-25.517-32.366C63.562 11.267 50.46 5.478 36.715 3.804l1.307-.778c-5.97 15.294-7.267 32.353-3.866 48.395a87.144 87.144 0 003.453 11.794 81.898 81.898 0 005.18 11.14c4.013 7.15 9.086 13.698 15.035 19.325a77.078 77.078 0 009.54 7.7l1.264.864 1.31.804 2.623 1.595c1.812.95 3.58 1.987 5.459 2.805 1.834.905 3.748 1.636 5.645 2.405.954.363 1.931.673 2.9 1.012.483.164.963.343 1.456.488l1.478.426c.985.271 1.962.6 2.965.822l2.99.717c1.002.222 2.012.397 3.023.6 1.002.213 2.021.368 3.036.519 4.058.659 8.165 1.04 12.28 1.271 4.117.251 8.26.305 12.399.273 8.285-.05 16.589-.536 24.921-.875 8.332-.348 16.706-.593 25.096-.24 4.194.157 8.391.529 12.569 1.05 4.179.521 8.33 1.35 12.424 2.347 8.172 2.063 16.108 5.023 23.655 8.767 7.521 3.793 14.675 8.326 21.215 13.636 13.053 10.631 23.983 23.885 31.688 38.866 7.714 14.961 12.281 31.516 13.403 48.309l.058.858-.772.353a133.525 133.525 0 01-12.58 4.946c-4.294 1.376-8.642 2.564-13.057 3.485-4.421.879-8.877 1.568-13.357 1.986-4.487.383-8.989.586-13.491.512-18.008-.289-35.906-4.512-52.141-12.213s-30.835-18.832-42.455-32.526c-11.652-13.659-20.21-29.925-24.908-47.231l-.23-.833.858.041c9.856.444 19.745-.089 29.649-.459 9.891-.346 19.863-.562 29.734.719 9.865 1.228 19.501 4.128 28.445 8.415 4.464 2.156 8.783 4.628 12.859 7.439a100.239 100.239 0 0111.544 9.316z" stroke="url(#paint1_linear_300_99)" stroke-opacity=".12" stroke-width="1.947" mask="url(#path-1-outside-1_300_99)"/><defs><linearGradient id="paint0_linear_300_99" x1="31.04" y1="6.613" x2="266.29" y2="270.515" gradientUnits="userSpaceOnUse"><stop stop-color="#0B3F01"/><stop offset="1" stop-color="#73E75F"/></linearGradient><linearGradient id="paint1_linear_300_99" x1="31.04" y1="6.613" x2="266.29" y2="270.515" gradientUnits="userSpaceOnUse"><stop stop-color="#0B3F01"/><stop offset="1" stop-color="#73E75F"/></linearGradient></defs></svg>