<svg width="60" height="60" fill="none" xmlns="http://www.w3.org/2000/svg"><g clip-path="url(#clip0_300_483)"><path d="M17 51a8 8 0 01-16 0c0-5.333 8-12 8-12s8 6.667 8 12z" fill="url(#paint0_linear_300_483)"/><path d="M32.01 4h4v8h-4V4z" fill="#B9BFCC"/><path d="M55 19.998v8h-8.622a13 13 0 01-24.74 0H14a1 1 0 00-1 1v7H5v-11a5 5 0 015-5h11.638a13 13 0 0124.74 0H55z" fill="#CCD0DA"/><path d="M14 35H4a1 1 0 00-1 1v2a1 1 0 001 1h10a1 1 0 001-1v-2a1 1 0 00-1-1zM40.008 1h-12a1 1 0 00-1 1v2a1 1 0 001 1h12a1 1 0 001-1V2a1 1 0 00-1-1zM57 18h-2a2 2 0 00-2 2v8a2 2 0 002 2h2a2 2 0 002-2v-8a2 2 0 00-2-2z" fill="#295474"/><g filter="url(#filter0_d_300_483)"><circle cx="34" cy="24" r="10" fill="url(#paint1_linear_300_483)"/><mask id="path-8-outside-1_300_483" maskUnits="userSpaceOnUse" x="25.064" y="18.629" width="18" height="14" fill="#000"><path fill="#fff" d="M25.064 18.629h18v14h-18z"/><path d="M38.125 21.196a4.475 4.475 0 00-1.355.22c-.435.143-.85.35-1.219.623-.37.271-.697.596-1.019.923-.32.33-.641.646-.99.949a5.644 5.644 0 002.32.761 5.83 5.83 0 004.55-1.478c.606-.553 1.105-1.175 1.415-1.934a5.63 5.63 0 00-1.946-1.188 5.583 5.583 0 00-2.258-.306 5.337 5.337 0 00-2.181.649 5.079 5.079 0 00-.483.306c-.155.113-.306.23-.45.356-.292.25-.565.522-.836.797s-.54.554-.823.821a8.705 8.705 0 01-.437.388 5.562 5.562 0 01-.591.433c-.042.026-.083.053-.126.077l-.128.072c-.042.025-.087.045-.13.068l-.067.033-.067.03-.135.06c-.092.034-.183.071-.277.099-.093.032-.19.054-.284.08l-.145.03-.072.014-.073.01a3.72 3.72 0 01-.588.042 3.915 3.915 0 01-2.21-.713 4.077 4.077 0 01-1.44-1.822l-.015-.042.035-.026a3.719 3.719 0 011.847-.674 4.063 4.063 0 011.94.311c.303.13.59.297.858.49a5 5 0 01.733.661 6.25 6.25 0 011.065 1.65 7.81 7.81 0 01.468 1.398c.035.161.068.322.093.484.049.324.087.649.116.975.016.162.027.326.04.489.01.163.023.326.03.489a42.557 42.557 0 01.04 3.92 38.103 38.103 0 000-1.96 43.043 43.043 0 00-.082-1.957c-.01-.163-.024-.326-.036-.489-.015-.163-.027-.325-.045-.488a15.413 15.413 0 00-.125-.97 7.549 7.549 0 00-.568-1.86 6.155 6.155 0 00-1.06-1.623 4.89 4.89 0 00-.724-.644 4.36 4.36 0 00-.842-.475 3.96 3.96 0 00-1.891-.291c-.64.06-1.249.235-1.769.613a3.899 3.899 0 001.401 1.743 3.811 3.811 0 002.142.686c.19.001.38-.012.568-.04l.07-.011.07-.014.14-.03c.091-.024.184-.045.274-.077.091-.027.18-.063.268-.097.044-.018.087-.038.13-.057l.065-.03.064-.032c.042-.022.086-.042.127-.066l.124-.07.122-.076a5.461 5.461 0 00.577-.424 8.41 8.41 0 00.43-.383c.28-.264.546-.544.819-.819.272-.276.548-.549.844-.803.148-.127.302-.247.46-.362a5.1 5.1 0 01.497-.313 5.464 5.464 0 012.234-.66 5.71 5.71 0 012.307.317 5.744 5.744 0 011.985 1.217l.029.027-.015.037c-.081.193-.17.382-.271.566-.102.183-.212.36-.333.532-.123.17-.252.334-.391.49a5.891 5.891 0 01-2.6 1.68 5.92 5.92 0 01-2.472.24 5.689 5.689 0 01-2.342-.816l-.034-.021.03-.026c.35-.297.668-.628.993-.954.325-.325.657-.648 1.033-.917.374-.27.793-.477 1.233-.615a4.498 4.498 0 011.36-.203z"/></mask><path d="M38.125 21.196a4.475 4.475 0 00-1.355.22c-.435.143-.85.35-1.219.623-.37.271-.697.596-1.019.923-.32.33-.641.646-.99.949a5.644 5.644 0 002.32.761 5.83 5.83 0 004.55-1.478c.606-.553 1.105-1.175 1.415-1.934a5.63 5.63 0 00-1.946-1.188 5.583 5.583 0 00-2.258-.306 5.337 5.337 0 00-2.181.649 5.079 5.079 0 00-.483.306c-.155.113-.306.23-.45.356-.292.25-.565.522-.836.797s-.54.554-.823.821a8.705 8.705 0 01-.437.388 5.562 5.562 0 01-.591.433c-.042.026-.083.053-.126.077l-.128.072c-.042.025-.087.045-.13.068l-.067.033-.067.03-.135.06c-.092.034-.183.071-.277.099-.093.032-.19.054-.284.08l-.145.03-.072.014-.073.01a3.72 3.72 0 01-.588.042 3.915 3.915 0 01-2.21-.713 4.077 4.077 0 01-1.44-1.822l-.015-.042.035-.026a3.719 3.719 0 011.847-.674 4.063 4.063 0 011.94.311c.303.13.59.297.858.49a5 5 0 01.733.661 6.25 6.25 0 011.065 1.65 7.81 7.81 0 01.468 1.398c.035.161.068.322.093.484.049.324.087.649.116.975.016.162.027.326.04.489.01.163.023.326.03.489a42.557 42.557 0 01.04 3.92 38.103 38.103 0 000-1.96 43.043 43.043 0 00-.082-1.957c-.01-.163-.024-.326-.036-.489-.015-.163-.027-.325-.045-.488a15.413 15.413 0 00-.125-.97 7.549 7.549 0 00-.568-1.86 6.155 6.155 0 00-1.06-1.623 4.89 4.89 0 00-.724-.644 4.36 4.36 0 00-.842-.475 3.96 3.96 0 00-1.891-.291c-.64.06-1.249.235-1.769.613a3.899 3.899 0 001.401 1.743 3.811 3.811 0 002.142.686c.19.001.38-.012.568-.04l.07-.011.07-.014.14-.03c.091-.024.184-.045.274-.077.091-.027.18-.063.268-.097.044-.018.087-.038.13-.057l.065-.03.064-.032c.042-.022.086-.042.127-.066l.124-.07.122-.076a5.461 5.461 0 00.577-.424 8.41 8.41 0 00.43-.383c.28-.264.546-.544.819-.819.272-.276.548-.549.844-.803.148-.127.302-.247.46-.362a5.1 5.1 0 01.497-.313 5.464 5.464 0 012.234-.66 5.71 5.71 0 012.307.317 5.744 5.744 0 011.985 1.217l.029.027-.015.037c-.081.193-.17.382-.271.566-.102.183-.212.36-.333.532-.123.17-.252.334-.391.49a5.891 5.891 0 01-2.6 1.68 5.92 5.92 0 01-2.472.24 5.689 5.689 0 01-2.342-.816l-.034-.021.03-.026c.35-.297.668-.628.993-.954.325-.325.657-.648 1.033-.917.374-.27.793-.477 1.233-.615a4.498 4.498 0 011.36-.203z" fill="#fff"/><path d="M38.125 21.196a4.475 4.475 0 00-1.355.22c-.435.143-.85.35-1.219.623-.37.271-.697.596-1.019.923-.32.33-.641.646-.99.949a5.644 5.644 0 002.32.761 5.83 5.83 0 004.55-1.478c.606-.553 1.105-1.175 1.415-1.934a5.63 5.63 0 00-1.946-1.188 5.583 5.583 0 00-2.258-.306 5.337 5.337 0 00-2.181.649 5.079 5.079 0 00-.483.306c-.155.113-.306.23-.45.356-.292.25-.565.522-.836.797s-.54.554-.823.821a8.705 8.705 0 01-.437.388 5.562 5.562 0 01-.591.433c-.042.026-.083.053-.126.077l-.128.072c-.042.025-.087.045-.13.068l-.067.033-.067.03-.135.06c-.092.034-.183.071-.277.099-.093.032-.19.054-.284.08l-.145.03-.072.014-.073.01a3.72 3.72 0 01-.588.042 3.915 3.915 0 01-2.21-.713 4.077 4.077 0 01-1.44-1.822l-.015-.042.035-.026a3.719 3.719 0 011.847-.674 4.063 4.063 0 011.94.311c.303.13.59.297.858.49a5 5 0 01.733.661 6.25 6.25 0 011.065 1.65 7.81 7.81 0 01.468 1.398c.035.161.068.322.093.484.049.324.087.649.116.975.016.162.027.326.04.489.01.163.023.326.03.489a42.557 42.557 0 01.04 3.92 38.103 38.103 0 000-1.96 43.043 43.043 0 00-.082-1.957c-.01-.163-.024-.326-.036-.489-.015-.163-.027-.325-.045-.488a15.413 15.413 0 00-.125-.97 7.549 7.549 0 00-.568-1.86 6.155 6.155 0 00-1.06-1.623 4.89 4.89 0 00-.724-.644 4.36 4.36 0 00-.842-.475 3.96 3.96 0 00-1.891-.291c-.64.06-1.249.235-1.769.613a3.899 3.899 0 001.401 1.743 3.811 3.811 0 002.142.686c.19.001.38-.012.568-.04l.07-.011.07-.014.14-.03c.091-.024.184-.045.274-.077.091-.027.18-.063.268-.097.044-.018.087-.038.13-.057l.065-.03.064-.032c.042-.022.086-.042.127-.066l.124-.07.122-.076a5.461 5.461 0 00.577-.424 8.41 8.41 0 00.43-.383c.28-.264.546-.544.819-.819.272-.276.548-.549.844-.803.148-.127.302-.247.46-.362a5.1 5.1 0 01.497-.313 5.464 5.464 0 012.234-.66 5.71 5.71 0 012.307.317 5.744 5.744 0 011.985 1.217l.029.027-.015.037c-.081.193-.17.382-.271.566-.102.183-.212.36-.333.532-.123.17-.252.334-.391.49a5.891 5.891 0 01-2.6 1.68 5.92 5.92 0 01-2.472.24 5.689 5.689 0 01-2.342-.816l-.034-.021.03-.026c.35-.297.668-.628.993-.954.325-.325.657-.648 1.033-.917.374-.27.793-.477 1.233-.615a4.498 4.498 0 011.36-.203z" stroke="#fff" stroke-width=".341" mask="url(#path-8-outside-1_300_483)"/><mask id="path-9-outside-2_300_483" maskUnits="userSpaceOnUse" x="2" y="46" width="14" height="11" fill="#000"><path fill="#fff" d="M2 46h14v11H2z"/><path d="M12.068 48.178a3.352 3.352 0 00-1.935.634 6.319 6.319 0 00-.766.694c-.242.248-.482.486-.745.713.53.321 1.129.506 1.744.573a4.384 4.384 0 003.422-1.111c.455-.416.831-.884 1.064-1.455a4.237 4.237 0 00-1.464-.893 4.197 4.197 0 00-1.697-.23 4.012 4.012 0 00-1.64.488 3.82 3.82 0 00-.363.23c-.117.085-.23.173-.34.268-.218.188-.424.392-.627.6-.204.206-.406.416-.62.617a6.08 6.08 0 01-.328.291 4.099 4.099 0 01-.444.325l-.094.059-.097.054c-.032.019-.065.034-.098.05l-.05.026-.05.022-.102.045c-.069.026-.138.054-.208.075-.07.024-.143.04-.214.06l-.109.022-.054.01-.055.009a2.944 2.944 0 01-2.103-.505 3.065 3.065 0 01-1.083-1.37L3 48.447l.027-.02a2.796 2.796 0 011.388-.506 3.056 3.056 0 011.459.234c.228.098.444.223.645.368.2.147.384.315.552.497.333.367.598.791.8 1.241a5.465 5.465 0 01.352 1.052c.026.12.051.241.07.363.037.244.065.488.087.733.012.122.02.245.03.367.008.123.017.246.023.368a31.976 31.976 0 01.03 2.948 28.408 28.408 0 000-1.474c-.01-.49-.03-.982-.062-1.472-.007-.122-.018-.244-.027-.367-.011-.122-.02-.244-.034-.366a11.594 11.594 0 00-.094-.73 5.69 5.69 0 00-.427-1.399 4.63 4.63 0 00-.797-1.22 3.674 3.674 0 00-.544-.484 3.279 3.279 0 00-.633-.357 2.978 2.978 0 00-1.422-.22c-.481.046-.94.177-1.33.462.212.533.585.981 1.053 1.31a2.863 2.863 0 001.61.516c.144.001.287-.009.428-.03l.053-.009.052-.01.105-.022c.07-.019.139-.034.206-.058.069-.02.135-.047.202-.073l.098-.043.049-.022.048-.025c.031-.016.064-.031.095-.05l.094-.052.091-.057c.03-.018.06-.039.09-.059.12-.08.233-.168.344-.26.111-.091.218-.189.323-.288.21-.198.411-.408.616-.615.204-.208.412-.413.635-.604a4.025 4.025 0 01.719-.508 4.108 4.108 0 011.68-.496 4.278 4.278 0 011.734.238 4.321 4.321 0 011.493.915l.022.02-.011.028a4.68 4.68 0 01-.204.426c-.077.137-.16.271-.25.4a4.617 4.617 0 01-.626.703 4.45 4.45 0 01-3.481 1.11 4.277 4.277 0 01-1.762-.615l-.026-.016.023-.019c.263-.223.503-.472.747-.717s.494-.488.776-.69c.281-.203.597-.359.927-.462a3.377 3.377 0 011.022-.153z"/></mask><path d="M12.068 48.178a3.352 3.352 0 00-1.935.634 6.319 6.319 0 00-.766.694c-.242.248-.482.486-.745.713.53.321 1.129.506 1.744.573a4.384 4.384 0 003.422-1.111c.455-.416.831-.884 1.064-1.455a4.237 4.237 0 00-1.464-.893 4.197 4.197 0 00-1.697-.23 4.012 4.012 0 00-1.64.488 3.82 3.82 0 00-.363.23c-.117.085-.23.173-.34.268-.218.188-.424.392-.627.6-.204.206-.406.416-.62.617a6.08 6.08 0 01-.328.291 4.099 4.099 0 01-.444.325l-.094.059-.097.054c-.032.019-.065.034-.098.05l-.05.026-.05.022-.102.045c-.069.026-.138.054-.208.075-.07.024-.143.04-.214.06l-.109.022-.054.01-.055.009a2.944 2.944 0 01-2.103-.505 3.065 3.065 0 01-1.083-1.37L3 48.447l.027-.02a2.796 2.796 0 011.388-.506 3.056 3.056 0 011.459.234c.228.098.444.223.645.368.2.147.384.315.552.497.333.367.598.791.8 1.241a5.465 5.465 0 01.352 1.052c.026.12.051.241.07.363.037.244.065.488.087.733.012.122.02.245.03.367.008.123.017.246.023.368a31.976 31.976 0 01.03 2.948 28.408 28.408 0 000-1.474c-.01-.49-.03-.982-.062-1.472-.007-.122-.018-.244-.027-.367-.011-.122-.02-.244-.034-.366a11.594 11.594 0 00-.094-.73 5.69 5.69 0 00-.427-1.399 4.63 4.63 0 00-.797-1.22 3.674 3.674 0 00-.544-.484 3.279 3.279 0 00-.633-.357 2.978 2.978 0 00-1.422-.22c-.481.046-.94.177-1.33.462.212.533.585.981 1.053 1.31a2.863 2.863 0 001.61.516c.144.001.287-.009.428-.03l.053-.009.052-.01.105-.022c.07-.019.139-.034.206-.058.069-.02.135-.047.202-.073l.098-.043.049-.022.048-.025c.031-.016.064-.031.095-.05l.094-.052.091-.057c.03-.018.06-.039.09-.059.12-.08.233-.168.344-.26.111-.091.218-.189.323-.288.21-.198.411-.408.616-.615.204-.208.412-.413.635-.604a4.025 4.025 0 01.719-.508 4.108 4.108 0 011.68-.496 4.278 4.278 0 011.734.238 4.321 4.321 0 011.493.915l.022.02-.011.028a4.68 4.68 0 01-.204.426c-.077.137-.16.271-.25.4a4.617 4.617 0 01-.626.703 4.45 4.45 0 01-3.481 1.11 4.277 4.277 0 01-1.762-.615l-.026-.016.023-.019c.263-.223.503-.472.747-.717s.494-.488.776-.69c.281-.203.597-.359.927-.462a3.377 3.377 0 011.022-.153z" fill="#fff"/><path d="M12.068 48.178a3.352 3.352 0 00-1.935.634 6.319 6.319 0 00-.766.694c-.242.248-.482.486-.745.713.53.321 1.129.506 1.744.573a4.384 4.384 0 003.422-1.111c.455-.416.831-.884 1.064-1.455a4.237 4.237 0 00-1.464-.893 4.197 4.197 0 00-1.697-.23 4.012 4.012 0 00-1.64.488 3.82 3.82 0 00-.363.23c-.117.085-.23.173-.34.268-.218.188-.424.392-.627.6-.204.206-.406.416-.62.617a6.08 6.08 0 01-.328.291 4.099 4.099 0 01-.444.325l-.094.059-.097.054c-.032.019-.065.034-.098.05l-.05.026-.05.022-.102.045c-.069.026-.138.054-.208.075-.07.024-.143.04-.214.06l-.109.022-.054.01-.055.009a2.944 2.944 0 01-2.103-.505 3.065 3.065 0 01-1.083-1.37L3 48.447l.027-.02a2.796 2.796 0 011.388-.506 3.056 3.056 0 011.459.234c.228.098.444.223.645.368.2.147.384.315.552.497.333.367.598.791.8 1.241a5.465 5.465 0 01.352 1.052c.026.12.051.241.07.363.037.244.065.488.087.733.012.122.02.245.03.367.008.123.017.246.023.368a31.976 31.976 0 01.03 2.948 28.408 28.408 0 000-1.474c-.01-.49-.03-.982-.062-1.472-.007-.122-.018-.244-.027-.367-.011-.122-.02-.244-.034-.366a11.594 11.594 0 00-.094-.73 5.69 5.69 0 00-.427-1.399 4.63 4.63 0 00-.797-1.22 3.674 3.674 0 00-.544-.484 3.279 3.279 0 00-.633-.357 2.978 2.978 0 00-1.422-.22c-.481.046-.94.177-1.33.462.212.533.585.981 1.053 1.31a2.863 2.863 0 001.61.516c.144.001.287-.009.428-.03l.053-.009.052-.01.105-.022c.07-.019.139-.034.206-.058.069-.02.135-.047.202-.073l.098-.043.049-.022.048-.025c.031-.016.064-.031.095-.05l.094-.052.091-.057c.03-.018.06-.039.09-.059.12-.08.233-.168.344-.26.111-.091.218-.189.323-.288.21-.198.411-.408.616-.615.204-.208.412-.413.635-.604a4.025 4.025 0 01.719-.508 4.108 4.108 0 011.68-.496 4.278 4.278 0 011.734.238 4.321 4.321 0 011.493.915l.022.02-.011.028a4.68 4.68 0 01-.204.426c-.077.137-.16.271-.25.4a4.617 4.617 0 01-.626.703 4.45 4.45 0 01-3.481 1.11 4.277 4.277 0 01-1.762-.615l-.026-.016.023-.019c.263-.223.503-.472.747-.717s.494-.488.776-.69c.281-.203.597-.359.927-.462a3.377 3.377 0 011.022-.153z" stroke="#fff" stroke-width=".256" mask="url(#path-9-outside-2_300_483)"/></g></g><defs><linearGradient id="paint0_linear_300_483" x1="1" y1="42.75" x2="17.57" y2="43.687" gradientUnits="userSpaceOnUse"><stop stop-color="#30C917"/><stop offset="1" stop-color="#279A13"/></linearGradient><linearGradient id="paint1_linear_300_483" x1="24" y1="17.75" x2="44.675" y2="19.212" gradientUnits="userSpaceOnUse"><stop stop-color="#30C917"/><stop offset="1" stop-color="#279A13"/></linearGradient><clipPath id="clip0_300_483"><path fill="#fff" d="M0 0h60v60H0z"/></clipPath><filter id="filter0_d_300_483" x="-4.774" y="7.333" width="56.393" height="57.336" filterUnits="userSpaceOnUse" color-interpolation-filters="sRGB"><feFlood flood-opacity="0" result="BackgroundImageFix"/><feColorMatrix in="SourceAlpha" values="0 0 0 0 0 0 0 0 0 0 0 0 0 0 0 0 0 0 127 0" result="hardAlpha"/><feOffset dy=".952"/><feGaussianBlur stdDeviation="3.81"/><feComposite in2="hardAlpha" operator="out"/><feColorMatrix values="0 0 0 0 0.104167 0 0 0 0 0.066116 0 0 0 0 0.030816 0 0 0 0.12 0"/><feBlend in2="BackgroundImageFix" result="effect1_dropShadow_300_483"/><feBlend in="SourceGraphic" in2="effect1_dropShadow_300_483" result="shape"/></filter></defs></svg>