<svg width="60" height="60" fill="none" xmlns="http://www.w3.org/2000/svg"><path d="M56.73 12.055L37.179.225a1.544 1.544 0 00-2.344 1.321v5.546l-1.8.297c-6.527 1.079-12.804 3.994-18.186 7.784-4.69 3.303-9.214 7.429-12.433 12.207a.991.991 0 101.44 1.363c-.001.001.03-.025.08-.058 3.812-2.627 7.999-4.756 12.404-6.194 5.32-1.735 11.003-2.542 16.577-1.8a36.31 36.31 0 011.918.322v5.545a1.544 1.544 0 002.344 1.321L56.73 16.05c1.502-.908 1.502-3.087 0-3.995z" fill="#378900"/><path d="M3.27 47.943l19.553 11.83a1.544 1.544 0 002.344-1.321v-5.546l1.8-.297c6.527-1.079 12.804-3.993 18.186-7.784 4.69-3.303 9.214-7.429 12.433-12.207a.991.991 0 10-1.44-1.363c.001-.001-.03.025-.08.058-3.812 2.627-7.999 4.756-12.404 6.194-5.32 1.735-11.003 2.542-16.578 1.8a36.19 36.19 0 01-1.918-.322V33.44a1.544 1.544 0 00-2.343-1.321L3.27 43.948c-1.502.908-1.502 3.087 0 3.995z" fill="#FF4755"/></svg>