<svg width="60" height="60" fill="none" xmlns="http://www.w3.org/2000/svg"><g clip-path="url(#clip0_300_419)"><path d="M25.862 25.864c0 6.284-5.095 11.379-11.38 11.379-6.284 0-11.378-5.095-11.378-11.38 0-6.284 5.094-11.379 11.379-11.379 6.284 0 11.38 5.095 11.38 11.38z" fill="#DEDEE6"/><path d="M23.794 25.861a9.31 9.31 0 01-9.31 9.31 9.31 9.31 0 01-9.311-9.31 9.31 9.31 0 019.31-9.31 9.31 9.31 0 019.31 9.31z" fill="#F3F3FB"/><path d="M60 11.38c0 6.284-5.095 11.379-11.38 11.379-6.284 0-11.379-5.095-11.379-11.38C37.241 5.095 42.336 0 48.621 0 54.904 0 60 5.095 60 11.38z" fill="#DEDEE6"/><path d="M57.931 11.38a9.31 9.31 0 01-9.31 9.311 9.31 9.31 0 01-9.31-9.31 9.31 9.31 0 019.31-9.31 9.31 9.31 0 019.31 9.31z" fill="#F3F3FB"/><path d="M46.552 48.621c0 6.285-5.095 11.38-11.38 11.38-6.284 0-11.379-5.095-11.379-11.38 0-6.284 5.095-11.379 11.38-11.379 6.284 0 11.379 5.095 11.379 11.38z" fill="#DEDEE6"/><path d="M44.483 48.619a9.31 9.31 0 01-9.31 9.31 9.31 9.31 0 01-9.31-9.31 9.31 9.31 0 019.31-9.31 9.31 9.31 0 019.31 9.31z" fill="#F3F3FB"/><path d="M55.862 39.311a4.119 4.119 0 01-3.465-1.883 4.137 4.137 0 013.466-6.393A4.137 4.137 0 0160 35.173a4.137 4.137 0 01-4.139 4.138z" fill="#DEDEE6"/><path d="M55.842 20.184a11.39 11.39 0 01-7.22 2.576 11.35 11.35 0 01-3.87-.672v-.01a11.267 11.267 0 01-3.352-1.894 6.218 6.218 0 016.187-5.7h2.069a6.218 6.218 0 016.186 5.7z" fill="#FF4755"/><path d="M52.758 10.345a4.138 4.138 0 11-8.276 0 4.138 4.138 0 018.276 0z" fill="#FF4755"/><path d="M35.172 59.998c-2.752 0-5.276-.972-7.241-2.596.268-3.176 2.948-5.68 6.186-5.68h2.069a6.218 6.218 0 016.186 5.7l.01.011a11.356 11.356 0 01-7.21 2.566z" fill="url(#paint0_linear_300_419)"/><path d="M39.29 47.587a4.138 4.138 0 11-8.277 0 4.138 4.138 0 018.276 0z" fill="url(#paint1_linear_300_419)"/><path d="M28.965 0a4.137 4.137 0 014.138 4.138c0 .507-.093.983-.259 1.427a4.132 4.132 0 01-3.879 2.71 4.137 4.137 0 01-4.138-4.137A4.137 4.137 0 0128.965 0z" fill="#DEDEE6"/><path d="M14.483 37.24c-2.007 0-3.89-.517-5.524-1.427a10.72 10.72 0 01-1.718-1.169c.269-3.176 2.949-5.68 6.186-5.68h2.07a6.218 6.218 0 016.186 5.7l.01.011a11.357 11.357 0 01-7.21 2.566z" fill="#5DBCD9"/><path d="M18.6 24.83a4.138 4.138 0 11-8.276-.001 4.138 4.138 0 018.276 0z" fill="#5DBCD9"/><path d="M13.448 57.932a4.137 4.137 0 01-4.137-4.138 4.137 4.137 0 118.275 0 4.137 4.137 0 01-4.137 4.138zm-9.31-17.588a4.01 4.01 0 012.007.527 4.123 4.123 0 012.13 3.61 4.137 4.137 0 01-4.137 4.139A4.137 4.137 0 010 44.482a4.137 4.137 0 014.138-4.138zM4.138 0a4.137 4.137 0 014.138 4.138 4.106 4.106 0 01-2.359 3.724 3.987 3.987 0 01-1.78.414A4.137 4.137 0 010 4.138 4.137 4.137 0 014.138 0z" fill="#DEDEE6"/><path d="M4.983 8.307l1.869-.889 3.672 7.717-1.868.89-3.673-7.718zM5.24 40.37l2.813-5.057 1.808 1.005-2.814 5.058L5.24 40.37zM32.487 6.536l.717-1.942 5.1 1.883-.717 1.942-5.1-1.883zm5.584 31.029l5.705-15.83 1.945.7-5.704 15.83-1.946-.7zm6.073 3.991l7.688-4.993 1.127 1.736-7.688 4.993-1.127-1.736zm-22.773-6.575l1.532-1.391 5.379 5.918L26.75 40.9l-5.38-5.919zm-4.14 16.844l6.631-1.575.478 2.012-6.63 1.574-.479-2.011zm7.328-31.365l13.181-5.585.807 1.905-13.181 5.584-.807-1.904z" fill="#45639C"/></g><defs><linearGradient id="paint0_linear_300_419" x1="27.931" y1="53.274" x2="42.72" y2="55.1" gradientUnits="userSpaceOnUse"><stop stop-color="#30C917"/><stop offset="1" stop-color="#279A13"/></linearGradient><linearGradient id="paint1_linear_300_419" x1="31.014" y1="45.001" x2="39.569" y2="45.606" gradientUnits="userSpaceOnUse"><stop stop-color="#30C917"/><stop offset="1" stop-color="#279A13"/></linearGradient><clipPath id="clip0_300_419"><path fill="#fff" d="M0 0h60v60H0z"/></clipPath></defs></svg>