<svg width="60" height="60" fill="none" xmlns="http://www.w3.org/2000/svg"><g clip-path="url(#clip0_300_453)"><path d="M44.727 50.81l1.282.225a4.117 4.117 0 002.895-.562l4.945-3.088a8.233 8.233 0 003.746-5.553l1.742-9.879a1.223 1.223 0 00-.993-1.417L38.864 27.1a1.223 1.223 0 00-1.417.992l-1.742 9.88a8.233 8.233 0 001.622 6.498l3.59 4.593a4.116 4.116 0 002.528 1.52l1.282.225z" fill="#C4D3D6"/><path d="M49.927 21.318l-2.737-.482-1.322 7.5 5.472.964 1.323-7.5-2.736-.482z" fill="#C4D3D6"/><path d="M52.554 6.424l-2.737-.483-2.627 14.897 2.737.483 2.736.482L55.29 6.906l-2.736-.482z" fill="#F4AC03"/><path d="M59.522 4.83l.27-1.531A1.223 1.223 0 0058.8 1.88L48.236.02a1.224 1.224 0 00-1.417.992l-.27 1.531-.27 1.532c-.117.665.327 1.3.993 1.417l10.562 1.863c.665.117 1.3-.327 1.417-.993l.27-1.531z" fill="#5DBCD9"/><path d="M41.502 34.77a.918.918 0 00-1.224-.433l-5.62 2.686c-1.624.616-2.91 1.621-3.833 2.54v-16.02a.918.918 0 10-1.835 0v14.185c-.922-.92-2.208-1.924-3.833-2.54l-5.62-2.686a.918.918 0 00-.791 1.656l5.595 2.674a.897.897 0 00.11.05c2.487.92 4.088 3.036 4.539 3.695v6.945a.918.918 0 001.835 0v-5.11c.452-.658 2.053-2.775 4.54-3.694a.975.975 0 00.11-.05l5.595-2.675a.919.919 0 00.432-1.224z" fill="#378900"/><path d="M49.727 60h8.858c.825 0 1.424-.803 1.169-1.587a5.14 5.14 0 00-6.652-3.241 9.044 9.044 0 00-9.09-4.112 5.75 5.75 0 00-10.584-1.989 4.758 4.758 0 00-3.52-1.55 4.759 4.759 0 00-3.521 1.55 5.75 5.75 0 00-10.585 1.989 9.045 9.045 0 00-9.09 4.112A5.14 5.14 0 00.06 58.413C-.194 59.197.404 60 1.23 60h48.498z" fill="#915431"/><path d="M13.88 54.863a.734.734 0 11-1.468 0 .734.734 0 011.468 0z" fill="#915431"/><g filter="url(#filter0_d_300_453)"><circle cx="18" cy="33" r="5" fill="url(#paint0_linear_300_453)"/><mask id="path-9-outside-1_300_453" maskUnits="userSpaceOnUse" x="13.032" y="29.813" width="10" height="8" fill="#000"><path fill="#fff" d="M13.032 29.813h10v8h-10z"/><path d="M20.063 31.596a2.304 2.304 0 00-.678.11 2.151 2.151 0 00-.61.312 4.208 4.208 0 00-.509.461 8.16 8.16 0 01-.495.474 2.8 2.8 0 001.16.381 2.918 2.918 0 002.275-.739c.303-.276.553-.587.707-.967a2.816 2.816 0 00-.973-.594 2.792 2.792 0 00-1.129-.153 2.664 2.664 0 00-1.09.324 2.53 2.53 0 00-.242.154 3.253 3.253 0 00-.225.178c-.145.125-.282.26-.418.398-.135.138-.27.277-.411.41-.07.067-.143.133-.219.195a2.814 2.814 0 01-.234.176.8.8 0 01-.061.04l-.063.039-.064.036c-.021.012-.044.022-.065.033l-.033.017-.034.015-.067.03c-.046.017-.092.036-.14.05-.046.016-.094.027-.141.04l-.072.014-.037.007-.036.006a1.959 1.959 0 01-1.399-.336 2.039 2.039 0 01-.72-.911l-.008-.02.018-.014a1.86 1.86 0 01.923-.337c.33-.029.666.026.97.156.152.065.296.148.43.245a2.5 2.5 0 01.366.33c.222.244.398.526.532.825a3.626 3.626 0 01.234.7c.018.08.034.16.047.241.024.162.044.325.058.487.008.082.013.163.02.245l.015.244a21.21 21.21 0 01.02 1.96 18.615 18.615 0 000-.98c-.006-.326-.02-.652-.041-.978-.005-.082-.012-.163-.018-.244-.008-.082-.014-.163-.023-.244a7.788 7.788 0 00-.062-.485 3.802 3.802 0 00-.284-.93 3.076 3.076 0 00-.53-.812 2.454 2.454 0 00-.362-.322 2.177 2.177 0 00-.42-.237 1.98 1.98 0 00-.947-.146c-.32.03-.624.117-.884.307A1.95 1.95 0 0015.866 33c.095 0 .19-.006.283-.02l.036-.006.035-.007.07-.014c.045-.013.092-.023.137-.039.045-.014.09-.031.134-.048l.065-.03.032-.014.032-.016c.021-.011.043-.02.063-.033l.063-.035.06-.038a2.73 2.73 0 00.288-.212 4.23 4.23 0 00.216-.192c.14-.131.273-.271.41-.409.135-.138.274-.274.422-.401a2.907 2.907 0 01.478-.338 2.755 2.755 0 011.117-.33 2.843 2.843 0 012.146.767l.014.014-.007.018a2.824 2.824 0 01-.302.549 3.057 3.057 0 01-.417.467 2.945 2.945 0 01-2.315.738 2.845 2.845 0 01-1.17-.408l-.018-.01.016-.013c.174-.149.334-.315.496-.478a4.17 4.17 0 01.517-.458 2.147 2.147 0 01.952-.385c.114-.016.229-.024.344-.024z"/></mask><path d="M20.063 31.596a2.304 2.304 0 00-.678.11 2.151 2.151 0 00-.61.312 4.208 4.208 0 00-.509.461 8.16 8.16 0 01-.495.474 2.8 2.8 0 001.16.381 2.918 2.918 0 002.275-.739c.303-.276.553-.587.707-.967a2.816 2.816 0 00-.973-.594 2.792 2.792 0 00-1.129-.153 2.664 2.664 0 00-1.09.324 2.53 2.53 0 00-.242.154 3.253 3.253 0 00-.225.178c-.145.125-.282.26-.418.398-.135.138-.27.277-.411.41-.07.067-.143.133-.219.195a2.814 2.814 0 01-.234.176.8.8 0 01-.061.04l-.063.039-.064.036c-.021.012-.044.022-.065.033l-.033.017-.034.015-.067.03c-.046.017-.092.036-.14.05-.046.016-.094.027-.141.04l-.072.014-.037.007-.036.006a1.959 1.959 0 01-1.399-.336 2.039 2.039 0 01-.72-.911l-.008-.02.018-.014a1.86 1.86 0 01.923-.337c.33-.029.666.026.97.156.152.065.296.148.43.245a2.5 2.5 0 01.366.33c.222.244.398.526.532.825a3.626 3.626 0 01.234.7c.018.08.034.16.047.241.024.162.044.325.058.487.008.082.013.163.02.245l.015.244a21.21 21.21 0 01.02 1.96 18.615 18.615 0 000-.98c-.006-.326-.02-.652-.041-.978-.005-.082-.012-.163-.018-.244-.008-.082-.014-.163-.023-.244a7.788 7.788 0 00-.062-.485 3.802 3.802 0 00-.284-.93 3.076 3.076 0 00-.53-.812 2.454 2.454 0 00-.362-.322 2.177 2.177 0 00-.42-.237 1.98 1.98 0 00-.947-.146c-.32.03-.624.117-.884.307A1.95 1.95 0 0015.866 33c.095 0 .19-.006.283-.02l.036-.006.035-.007.07-.014c.045-.013.092-.023.137-.039.045-.014.09-.031.134-.048l.065-.03.032-.014.032-.016c.021-.011.043-.02.063-.033l.063-.035.06-.038a2.73 2.73 0 00.288-.212 4.23 4.23 0 00.216-.192c.14-.131.273-.271.41-.409.135-.138.274-.274.422-.401a2.907 2.907 0 01.478-.338 2.755 2.755 0 011.117-.33 2.843 2.843 0 012.146.767l.014.014-.007.018a2.824 2.824 0 01-.302.549 3.057 3.057 0 01-.417.467 2.945 2.945 0 01-2.315.738 2.845 2.845 0 01-1.17-.408l-.018-.01.016-.013c.174-.149.334-.315.496-.478a4.17 4.17 0 01.517-.458 2.147 2.147 0 01.952-.385c.114-.016.229-.024.344-.024z" fill="#fff"/><path d="M20.063 31.596a2.304 2.304 0 00-.678.11 2.151 2.151 0 00-.61.312 4.208 4.208 0 00-.509.461 8.16 8.16 0 01-.495.474 2.8 2.8 0 001.16.381 2.918 2.918 0 002.275-.739c.303-.276.553-.587.707-.967a2.816 2.816 0 00-.973-.594 2.792 2.792 0 00-1.129-.153 2.664 2.664 0 00-1.09.324 2.53 2.53 0 00-.242.154 3.253 3.253 0 00-.225.178c-.145.125-.282.26-.418.398-.135.138-.27.277-.411.41-.07.067-.143.133-.219.195a2.814 2.814 0 01-.234.176.8.8 0 01-.061.04l-.063.039-.064.036c-.021.012-.044.022-.065.033l-.033.017-.034.015-.067.03c-.046.017-.092.036-.14.05-.046.016-.094.027-.141.04l-.072.014-.037.007-.036.006a1.959 1.959 0 01-1.399-.336 2.039 2.039 0 01-.72-.911l-.008-.02.018-.014a1.86 1.86 0 01.923-.337c.33-.029.666.026.97.156.152.065.296.148.43.245a2.5 2.5 0 01.366.33c.222.244.398.526.532.825a3.626 3.626 0 01.234.7c.018.08.034.16.047.241.024.162.044.325.058.487.008.082.013.163.02.245l.015.244a21.21 21.21 0 01.02 1.96 18.615 18.615 0 000-.98c-.006-.326-.02-.652-.041-.978-.005-.082-.012-.163-.018-.244-.008-.082-.014-.163-.023-.244a7.788 7.788 0 00-.062-.485 3.802 3.802 0 00-.284-.93 3.076 3.076 0 00-.53-.812 2.454 2.454 0 00-.362-.322 2.177 2.177 0 00-.42-.237 1.98 1.98 0 00-.947-.146c-.32.03-.624.117-.884.307A1.95 1.95 0 0015.866 33c.095 0 .19-.006.283-.02l.036-.006.035-.007.07-.014c.045-.013.092-.023.137-.039.045-.014.09-.031.134-.048l.065-.03.032-.014.032-.016c.021-.011.043-.02.063-.033l.063-.035.06-.038a2.73 2.73 0 00.288-.212 4.23 4.23 0 00.216-.192c.14-.131.273-.271.41-.409.135-.138.274-.274.422-.401a2.907 2.907 0 01.478-.338 2.755 2.755 0 011.117-.33 2.843 2.843 0 012.146.767l.014.014-.007.018a2.824 2.824 0 01-.302.549 3.057 3.057 0 01-.417.467 2.945 2.945 0 01-2.315.738 2.845 2.845 0 01-1.17-.408l-.018-.01.016-.013c.174-.149.334-.315.496-.478a4.17 4.17 0 01.517-.458 2.147 2.147 0 01.952-.385c.114-.016.229-.024.344-.024z" stroke="#fff" stroke-width=".17" mask="url(#path-9-outside-1_300_453)"/></g><g filter="url(#filter1_d_300_453)"><circle cx="43" cy="33" r="5" fill="url(#paint1_linear_300_453)"/><mask id="path-11-outside-2_300_453" maskUnits="userSpaceOnUse" x="38.032" y="29.813" width="10" height="8" fill="#000"><path fill="#fff" d="M38.032 29.813h10v8h-10z"/><path d="M45.063 31.596a2.304 2.304 0 00-.678.11 2.151 2.151 0 00-.61.312 4.208 4.208 0 00-.509.461 8.16 8.16 0 01-.495.474 2.8 2.8 0 001.16.381 2.918 2.918 0 002.275-.739c.303-.276.553-.587.707-.967a2.816 2.816 0 00-.973-.594 2.792 2.792 0 00-1.129-.153 2.664 2.664 0 00-1.09.324 2.53 2.53 0 00-.242.154 3.253 3.253 0 00-.225.178c-.145.125-.282.26-.417.398-.136.138-.27.277-.412.41a4.04 4.04 0 01-.218.195 2.814 2.814 0 01-.235.176.8.8 0 01-.061.04l-.063.039-.064.036c-.021.012-.044.022-.065.033l-.033.017-.034.015-.067.03c-.046.017-.092.036-.14.05-.045.016-.094.027-.141.04l-.072.014-.037.007-.036.006a1.959 1.959 0 01-1.399-.336 2.039 2.039 0 01-.72-.911l-.008-.02.018-.014a1.86 1.86 0 01.924-.337c.33-.029.665.026.97.156.151.065.295.148.428.245a2.5 2.5 0 01.367.33c.222.244.398.526.532.825a3.626 3.626 0 01.234.7c.018.08.034.16.047.241.024.162.044.325.058.487.008.082.013.163.02.245l.015.244a21.21 21.21 0 01.02 1.96 18.615 18.615 0 000-.98c-.006-.326-.02-.652-.041-.978-.005-.082-.012-.163-.018-.244-.008-.082-.014-.163-.023-.244a7.788 7.788 0 00-.062-.485 3.802 3.802 0 00-.284-.93 3.076 3.076 0 00-.53-.812 2.454 2.454 0 00-.362-.322 2.177 2.177 0 00-.42-.237 1.98 1.98 0 00-.947-.146c-.32.03-.624.117-.884.307A1.95 1.95 0 0040.865 33c.096 0 .19-.006.284-.02l.036-.006.035-.007.07-.014c.045-.013.092-.023.136-.039a1.93 1.93 0 00.134-.048l.066-.03.032-.014.032-.016c.021-.011.043-.02.063-.033l.063-.035.06-.038a2.73 2.73 0 00.289-.212 4.23 4.23 0 00.215-.192c.14-.131.273-.271.41-.409.135-.138.274-.274.422-.401a2.907 2.907 0 01.478-.338 2.755 2.755 0 011.117-.33 2.843 2.843 0 012.146.767l.014.014-.007.018a3.06 3.06 0 01-.302.549 3.057 3.057 0 01-.417.467 2.945 2.945 0 01-2.315.738 2.845 2.845 0 01-1.17-.408l-.017-.01.015-.013c.174-.149.334-.315.496-.478a4.17 4.17 0 01.517-.458 2.147 2.147 0 01.952-.385c.114-.016.229-.024.344-.024z"/></mask><path d="M45.063 31.596a2.304 2.304 0 00-.678.11 2.151 2.151 0 00-.61.312 4.208 4.208 0 00-.509.461 8.16 8.16 0 01-.495.474 2.8 2.8 0 001.16.381 2.918 2.918 0 002.275-.739c.303-.276.553-.587.707-.967a2.816 2.816 0 00-.973-.594 2.792 2.792 0 00-1.129-.153 2.664 2.664 0 00-1.09.324 2.53 2.53 0 00-.242.154 3.253 3.253 0 00-.225.178c-.145.125-.282.26-.417.398-.136.138-.27.277-.412.41a4.04 4.04 0 01-.218.195 2.814 2.814 0 01-.235.176.8.8 0 01-.061.04l-.063.039-.064.036c-.021.012-.044.022-.065.033l-.033.017-.034.015-.067.03c-.046.017-.092.036-.14.05-.045.016-.094.027-.141.04l-.072.014-.037.007-.036.006a1.959 1.959 0 01-1.399-.336 2.039 2.039 0 01-.72-.911l-.008-.02.018-.014a1.86 1.86 0 01.924-.337c.33-.029.665.026.97.156.151.065.295.148.428.245a2.5 2.5 0 01.367.33c.222.244.398.526.532.825a3.626 3.626 0 01.234.7c.018.08.034.16.047.241.024.162.044.325.058.487.008.082.013.163.02.245l.015.244a21.21 21.21 0 01.02 1.96 18.615 18.615 0 000-.98c-.006-.326-.02-.652-.041-.978-.005-.082-.012-.163-.018-.244-.008-.082-.014-.163-.023-.244a7.788 7.788 0 00-.062-.485 3.802 3.802 0 00-.284-.93 3.076 3.076 0 00-.53-.812 2.454 2.454 0 00-.362-.322 2.177 2.177 0 00-.42-.237 1.98 1.98 0 00-.947-.146c-.32.03-.624.117-.884.307A1.95 1.95 0 0040.865 33c.096 0 .19-.006.284-.02l.036-.006.035-.007.07-.014c.045-.013.092-.023.136-.039a1.93 1.93 0 00.134-.048l.066-.03.032-.014.032-.016c.021-.011.043-.02.063-.033l.063-.035.06-.038a2.73 2.73 0 00.289-.212 4.23 4.23 0 00.215-.192c.14-.131.273-.271.41-.409.135-.138.274-.274.422-.401a2.907 2.907 0 01.478-.338 2.755 2.755 0 011.117-.33 2.843 2.843 0 012.146.767l.014.014-.007.018a3.06 3.06 0 01-.302.549 3.057 3.057 0 01-.417.467 2.945 2.945 0 01-2.315.738 2.845 2.845 0 01-1.17-.408l-.017-.01.015-.013c.174-.149.334-.315.496-.478a4.17 4.17 0 01.517-.458 2.147 2.147 0 01.952-.385c.114-.016.229-.024.344-.024z" fill="#fff"/><path d="M45.063 31.596a2.304 2.304 0 00-.678.11 2.151 2.151 0 00-.61.312 4.208 4.208 0 00-.509.461 8.16 8.16 0 01-.495.474 2.8 2.8 0 001.16.381 2.918 2.918 0 002.275-.739c.303-.276.553-.587.707-.967a2.816 2.816 0 00-.973-.594 2.792 2.792 0 00-1.129-.153 2.664 2.664 0 00-1.09.324 2.53 2.53 0 00-.242.154 3.253 3.253 0 00-.225.178c-.145.125-.282.26-.417.398-.136.138-.27.277-.412.41a4.04 4.04 0 01-.218.195 2.814 2.814 0 01-.235.176.8.8 0 01-.061.04l-.063.039-.064.036c-.021.012-.044.022-.065.033l-.033.017-.034.015-.067.03c-.046.017-.092.036-.14.05-.045.016-.094.027-.141.04l-.072.014-.037.007-.036.006a1.959 1.959 0 01-1.399-.336 2.039 2.039 0 01-.72-.911l-.008-.02.018-.014a1.86 1.86 0 01.924-.337c.33-.029.665.026.97.156.151.065.295.148.428.245a2.5 2.5 0 01.367.33c.222.244.398.526.532.825a3.626 3.626 0 01.234.7c.018.08.034.16.047.241.024.162.044.325.058.487.008.082.013.163.02.245l.015.244a21.21 21.21 0 01.02 1.96 18.615 18.615 0 000-.98c-.006-.326-.02-.652-.041-.978-.005-.082-.012-.163-.018-.244-.008-.082-.014-.163-.023-.244a7.788 7.788 0 00-.062-.485 3.802 3.802 0 00-.284-.93 3.076 3.076 0 00-.53-.812 2.454 2.454 0 00-.362-.322 2.177 2.177 0 00-.42-.237 1.98 1.98 0 00-.947-.146c-.32.03-.624.117-.884.307A1.95 1.95 0 0040.865 33c.096 0 .19-.006.284-.02l.036-.006.035-.007.07-.014c.045-.013.092-.023.136-.039a1.93 1.93 0 00.134-.048l.066-.03.032-.014.032-.016c.021-.011.043-.02.063-.033l.063-.035.06-.038a2.73 2.73 0 00.289-.212 4.23 4.23 0 00.215-.192c.14-.131.273-.271.41-.409.135-.138.274-.274.422-.401a2.907 2.907 0 01.478-.338 2.755 2.755 0 011.117-.33 2.843 2.843 0 012.146.767l.014.014-.007.018a3.06 3.06 0 01-.302.549 3.057 3.057 0 01-.417.467 2.945 2.945 0 01-2.315.738 2.845 2.845 0 01-1.17-.408l-.017-.01.015-.013c.174-.149.334-.315.496-.478a4.17 4.17 0 01.517-.458 2.147 2.147 0 01.952-.385c.114-.016.229-.024.344-.024z" stroke="#fff" stroke-width=".17" mask="url(#path-11-outside-2_300_453)"/></g><g filter="url(#filter2_d_300_453)"><circle cx="30" cy="21" r="6" fill="url(#paint2_linear_300_453)"/><mask id="path-13-outside-3_300_453" maskUnits="userSpaceOnUse" x="24.239" y="17.375" width="11" height="9" fill="#000"><path fill="#fff" d="M24.239 17.375h11v9h-11z"/><path d="M32.476 19.315a2.754 2.754 0 00-.813.132c-.262.086-.51.21-.732.374a5.034 5.034 0 00-.611.554 9.896 9.896 0 01-.595.57c.423.255.901.403 1.392.456a3.499 3.499 0 002.73-.887c.364-.332.664-.705.85-1.16a3.377 3.377 0 00-1.168-.713 3.35 3.35 0 00-1.355-.184 3.203 3.203 0 00-1.308.39c-.1.056-.197.116-.29.183a3.955 3.955 0 00-.27.214 8.33 8.33 0 00-.502.478c-.162.165-.324.333-.494.493a5.27 5.27 0 01-.262.233c-.09.074-.183.146-.28.211l-.075.048c-.024.016-.05.032-.075.046l-.077.044c-.025.015-.052.027-.078.04l-.04.02c-.013.007-.027.012-.04.018l-.08.036c-.056.02-.11.043-.167.06-.056.02-.114.032-.17.047l-.087.018-.044.009-.044.006a2.352 2.352 0 01-1.678-.403 2.447 2.447 0 01-.864-1.093l-.01-.025.022-.015c.323-.235.713-.37 1.108-.405.396-.035.799.032 1.164.187.182.078.354.178.515.294a3 3 0 01.44.396c.266.293.477.631.638.99a4.367 4.367 0 01.281.84 5.5 5.5 0 01.056.29c.03.194.052.389.07.584.01.098.016.196.023.294l.02.293a25.473 25.473 0 01.023 2.352 22.596 22.596 0 000-1.176 25.708 25.708 0 00-.05-1.174c-.006-.098-.014-.196-.021-.293-.01-.098-.016-.195-.027-.293a9.206 9.206 0 00-.075-.582 4.536 4.536 0 00-.341-1.116 3.695 3.695 0 00-.636-.974 2.945 2.945 0 00-.434-.387 2.615 2.615 0 00-.505-.284 2.375 2.375 0 00-1.135-.175c-.384.036-.75.141-1.062.368a2.34 2.34 0 001.135 1.22 2.284 2.284 0 00.991.237c.114.001.228-.007.34-.024l.043-.006.042-.009.084-.017c.055-.015.11-.028.164-.047.055-.016.108-.038.161-.058.026-.01.052-.023.079-.035.012-.005.026-.01.038-.017l.039-.02c.025-.013.051-.025.076-.04l.074-.041.073-.046a3.258 3.258 0 00.346-.255 5.04 5.04 0 00.258-.229c.168-.159.328-.326.492-.491.163-.166.329-.33.507-.482a3.66 3.66 0 01.276-.217 3.085 3.085 0 01.946-.46c.226-.065.458-.108.692-.124.468-.031.942.031 1.384.19.442.159.85.41 1.191.73l.017.017-.009.021c-.048.116-.102.23-.162.34-.061.11-.128.217-.2.32-.073.101-.151.2-.234.293a3.533 3.533 0 01-3.043 1.152 3.414 3.414 0 01-1.406-.49l-.02-.012.018-.015c.21-.178.4-.377.596-.573.195-.195.394-.389.62-.55a2.576 2.576 0 011.142-.462c.137-.02.275-.03.413-.029z"/></mask><path d="M32.476 19.315a2.754 2.754 0 00-.813.132c-.262.086-.51.21-.732.374a5.034 5.034 0 00-.611.554 9.896 9.896 0 01-.595.57c.423.255.901.403 1.392.456a3.499 3.499 0 002.73-.887c.364-.332.664-.705.85-1.16a3.377 3.377 0 00-1.168-.713 3.35 3.35 0 00-1.355-.184 3.203 3.203 0 00-1.308.39c-.1.056-.197.116-.29.183a3.955 3.955 0 00-.27.214 8.33 8.33 0 00-.502.478c-.162.165-.324.333-.494.493a5.27 5.27 0 01-.262.233c-.09.074-.183.146-.28.211l-.075.048c-.024.016-.05.032-.075.046l-.077.044c-.025.015-.052.027-.078.04l-.04.02c-.013.007-.027.012-.04.018l-.08.036c-.056.02-.11.043-.167.06-.056.02-.114.032-.17.047l-.087.018-.044.009-.044.006a2.352 2.352 0 01-1.678-.403 2.447 2.447 0 01-.864-1.093l-.01-.025.022-.015c.323-.235.713-.37 1.108-.405.396-.035.799.032 1.164.187.182.078.354.178.515.294a3 3 0 01.44.396c.266.293.477.631.638.99a4.367 4.367 0 01.281.84 5.5 5.5 0 01.056.29c.03.194.052.389.07.584.01.098.016.196.023.294l.02.293a25.473 25.473 0 01.023 2.352 22.596 22.596 0 000-1.176 25.708 25.708 0 00-.05-1.174c-.006-.098-.014-.196-.021-.293-.01-.098-.016-.195-.027-.293a9.206 9.206 0 00-.075-.582 4.536 4.536 0 00-.341-1.116 3.695 3.695 0 00-.636-.974 2.945 2.945 0 00-.434-.387 2.615 2.615 0 00-.505-.284 2.375 2.375 0 00-1.135-.175c-.384.036-.75.141-1.062.368a2.34 2.34 0 001.135 1.22 2.284 2.284 0 00.991.237c.114.001.228-.007.34-.024l.043-.006.042-.009.084-.017c.055-.015.11-.028.164-.047.055-.016.108-.038.161-.058.026-.01.052-.023.079-.035.012-.005.026-.01.038-.017l.039-.02c.025-.013.051-.025.076-.04l.074-.041.073-.046a3.258 3.258 0 00.346-.255 5.04 5.04 0 00.258-.229c.168-.159.328-.326.492-.491.163-.166.329-.33.507-.482a3.66 3.66 0 01.276-.217 3.085 3.085 0 01.946-.46c.226-.065.458-.108.692-.124.468-.031.942.031 1.384.19.442.159.85.41 1.191.73l.017.017-.009.021c-.048.116-.102.23-.162.34-.061.11-.128.217-.2.32-.073.101-.151.2-.234.293a3.533 3.533 0 01-3.043 1.152 3.414 3.414 0 01-1.406-.49l-.02-.012.018-.015c.21-.178.4-.377.596-.573.195-.195.394-.389.62-.55a2.576 2.576 0 011.142-.462c.137-.02.275-.03.413-.029z" fill="#fff"/><path d="M32.476 19.315a2.754 2.754 0 00-.813.132c-.262.086-.51.21-.732.374a5.034 5.034 0 00-.611.554 9.896 9.896 0 01-.595.57c.423.255.901.403 1.392.456a3.499 3.499 0 002.73-.887c.364-.332.664-.705.85-1.16a3.377 3.377 0 00-1.168-.713 3.35 3.35 0 00-1.355-.184 3.203 3.203 0 00-1.308.39c-.1.056-.197.116-.29.183a3.955 3.955 0 00-.27.214 8.33 8.33 0 00-.502.478c-.162.165-.324.333-.494.493a5.27 5.27 0 01-.262.233c-.09.074-.183.146-.28.211l-.075.048c-.024.016-.05.032-.075.046l-.077.044c-.025.015-.052.027-.078.04l-.04.02c-.013.007-.027.012-.04.018l-.08.036c-.056.02-.11.043-.167.06-.056.02-.114.032-.17.047l-.087.018-.044.009-.044.006a2.352 2.352 0 01-1.678-.403 2.447 2.447 0 01-.864-1.093l-.01-.025.022-.015c.323-.235.713-.37 1.108-.405.396-.035.799.032 1.164.187.182.078.354.178.515.294a3 3 0 01.44.396c.266.293.477.631.638.99a4.367 4.367 0 01.281.84 5.5 5.5 0 01.056.29c.03.194.052.389.07.584.01.098.016.196.023.294l.02.293a25.473 25.473 0 01.023 2.352 22.596 22.596 0 000-1.176 25.708 25.708 0 00-.05-1.174c-.006-.098-.014-.196-.021-.293-.01-.098-.016-.195-.027-.293a9.206 9.206 0 00-.075-.582 4.536 4.536 0 00-.341-1.116 3.695 3.695 0 00-.636-.974 2.945 2.945 0 00-.434-.387 2.615 2.615 0 00-.505-.284 2.375 2.375 0 00-1.135-.175c-.384.036-.75.141-1.062.368a2.34 2.34 0 001.135 1.22 2.284 2.284 0 00.991.237c.114.001.228-.007.34-.024l.043-.006.042-.009.084-.017c.055-.015.11-.028.164-.047.055-.016.108-.038.161-.058.026-.01.052-.023.079-.035.012-.005.026-.01.038-.017l.039-.02c.025-.013.051-.025.076-.04l.074-.041.073-.046a3.258 3.258 0 00.346-.255 5.04 5.04 0 00.258-.229c.168-.159.328-.326.492-.491.163-.166.329-.33.507-.482a3.66 3.66 0 01.276-.217 3.085 3.085 0 01.946-.46c.226-.065.458-.108.692-.124.468-.031.942.031 1.384.19.442.159.85.41 1.191.73l.017.017-.009.021c-.048.116-.102.23-.162.34-.061.11-.128.217-.2.32-.073.101-.151.2-.234.293a3.533 3.533 0 01-3.043 1.152 3.414 3.414 0 01-1.406-.49l-.02-.012.018-.015c.21-.178.4-.377.596-.573.195-.195.394-.389.62-.55a2.576 2.576 0 011.142-.462c.137-.02.275-.03.413-.029z" stroke="#fff" stroke-width=".205" mask="url(#path-13-outside-3_300_453)"/></g></g><defs><linearGradient id="paint0_linear_300_453" x1="13" y1="29.875" x2="23.338" y2="30.606" gradientUnits="userSpaceOnUse"><stop stop-color="#30C917"/><stop offset="1" stop-color="#279A13"/></linearGradient><linearGradient id="paint1_linear_300_453" x1="38" y1="29.875" x2="48.338" y2="30.606" gradientUnits="userSpaceOnUse"><stop stop-color="#30C917"/><stop offset="1" stop-color="#279A13"/></linearGradient><linearGradient id="paint2_linear_300_453" x1="24" y1="17.25" x2="36.405" y2="18.127" gradientUnits="userSpaceOnUse"><stop stop-color="#30C917"/><stop offset="1" stop-color="#279A13"/></linearGradient><filter id="filter0_d_300_453" x="9.19" y="24.667" width="17.619" height="17.619" filterUnits="userSpaceOnUse" color-interpolation-filters="sRGB"><feFlood flood-opacity="0" result="BackgroundImageFix"/><feColorMatrix in="SourceAlpha" values="0 0 0 0 0 0 0 0 0 0 0 0 0 0 0 0 0 0 127 0" result="hardAlpha"/><feOffset dy=".476"/><feGaussianBlur stdDeviation="1.905"/><feComposite in2="hardAlpha" operator="out"/><feColorMatrix values="0 0 0 0 0.104167 0 0 0 0 0.066116 0 0 0 0 0.030816 0 0 0 0.12 0"/><feBlend in2="BackgroundImageFix" result="effect1_dropShadow_300_453"/><feBlend in="SourceGraphic" in2="effect1_dropShadow_300_453" result="shape"/></filter><filter id="filter1_d_300_453" x="34.191" y="24.667" width="17.619" height="17.619" filterUnits="userSpaceOnUse" color-interpolation-filters="sRGB"><feFlood flood-opacity="0" result="BackgroundImageFix"/><feColorMatrix in="SourceAlpha" values="0 0 0 0 0 0 0 0 0 0 0 0 0 0 0 0 0 0 127 0" result="hardAlpha"/><feOffset dy=".476"/><feGaussianBlur stdDeviation="1.905"/><feComposite in2="hardAlpha" operator="out"/><feColorMatrix values="0 0 0 0 0.104167 0 0 0 0 0.066116 0 0 0 0 0.030816 0 0 0 0.12 0"/><feBlend in2="BackgroundImageFix" result="effect1_dropShadow_300_453"/><feBlend in="SourceGraphic" in2="effect1_dropShadow_300_453" result="shape"/></filter><filter id="filter2_d_300_453" x="19.429" y="11" width="21.143" height="21.143" filterUnits="userSpaceOnUse" color-interpolation-filters="sRGB"><feFlood flood-opacity="0" result="BackgroundImageFix"/><feColorMatrix in="SourceAlpha" values="0 0 0 0 0 0 0 0 0 0 0 0 0 0 0 0 0 0 127 0" result="hardAlpha"/><feOffset dy=".571"/><feGaussianBlur stdDeviation="2.286"/><feComposite in2="hardAlpha" operator="out"/><feColorMatrix values="0 0 0 0 0.104167 0 0 0 0 0.066116 0 0 0 0 0.030816 0 0 0 0.12 0"/><feBlend in2="BackgroundImageFix" result="effect1_dropShadow_300_453"/><feBlend in="SourceGraphic" in2="effect1_dropShadow_300_453" result="shape"/></filter><clipPath id="clip0_300_453"><path fill="#fff" d="M0 0h60v60H0z"/></clipPath></defs></svg>