<svg width="60" height="60" fill="none" xmlns="http://www.w3.org/2000/svg"><g clip-path="url(#clip0_300_577)"><path d="M8.27 20.717l.484-8.279 6.77 3.856 3.143-6.517 5.946 4.175L30 2.881l4.772 11.49 7.031-4.611 2.424 7.055 8.494-1.959L51.4 22.27l8.6 5.9-7.686 4.221.567 8.487-9.242-1.43 1.321 17.887-9.299-16.457-5.218 4.56-5.151-4.68-8.276 6.515-4.74-9.476-9.861.787 4.164-9.145L0 22.769l8.27-2.052z" fill="#FFC250"/><path d="M60 28.171l-8.6-5.898 1.32-7.414-5.035 1.161-1.115 6.253 8.6 5.898-7.685 4.223.516 7.73 4.879.756-.566-8.486 7.685-4.223zM38.74 38.738l.665 8.767 5.555 9.831-1.322-17.888-4.899-.71z" fill="#EBB044"/><path d="M27.926 23.332h-.013c-.5.007-.9.418-.892.918l.067 4.695-3.63-5.189a.905.905 0 00-1.646.523l.034 7.498a.905.905 0 00.905.901h.005c.5-.002.903-.41.9-.91l-.02-4.6 3.458 4.944c.27.385.716.546 1.137.413.43-.137.706-.543.704-1.042l-.104-7.259a.905.905 0 00-.905-.892zm-8.499.043h-.004a.905.905 0 00-.901.91l.034 7.511a.905.905 0 00.905.902h.005c.5-.003.903-.41.9-.91l-.034-7.512a.905.905 0 00-.905-.901zm-3.121 4.108c.283-.43.434-.933.432-1.459a2.64 2.64 0 00-2.639-2.622h-.012l-2.189.01a.906.906 0 00-.9.91l.015 3.465v.002l.019 4.045a.905.905 0 00.905.901h.008s2.012-.018 2.567-.02a2.918 2.918 0 002.07-.867 2.922 2.922 0 00-.276-4.366zm-2.21-2.27h.003c.455 0 .826.367.828.82a.826.826 0 01-.824.827c-.243 0-.934.006-1.283.007l-.008-1.648 1.283-.006zm1.2 5.359c-.21.212-.492.33-.792.332-.306 0-1.054.007-1.666.012l-.01-2.245h1.67c.617 0 1.12.497 1.123 1.11.001.299-.114.58-.324.79zM37.8 27.038h-.003l-2.254.01a.905.905 0 00.004 1.81h.004l1.251-.005c-.101.46-.285.865-.54 1.182-.411.51-.983.77-1.7.773h-.014a2.86 2.86 0 01-2.861-2.837c-.004-.76.29-1.478.828-2.018a2.848 2.848 0 012.02-.845h.014c.569 0 1.118.165 1.59.48a.905.905 0 101.004-1.507 4.695 4.695 0 00-2.616-.784 4.647 4.647 0 00-3.297 1.38 4.624 4.624 0 00-1.354 3.303c.012 2.563 2.106 4.64 4.672 4.64h.022c1.252-.006 2.354-.52 3.102-1.449.672-.834 1.04-1.982 1.034-3.232a.905.905 0 00-.905-.901zm6.53-3.792h-.022a4.647 4.647 0 00-3.296 1.38 4.624 4.624 0 00-1.355 3.303c.012 2.563 2.106 4.64 4.672 4.64h.022a4.647 4.647 0 003.297-1.38 4.624 4.624 0 001.354-3.303 4.672 4.672 0 00-4.672-4.64zm2.034 6.667a2.849 2.849 0 01-2.021.845h-.014a2.86 2.86 0 01-2.86-2.837 2.826 2.826 0 01.827-2.019 2.848 2.848 0 012.02-.845h.014a2.86 2.86 0 012.861 2.837 2.823 2.823 0 01-.828 2.019z" fill="#fff"/><path d="M10.562 4.479c1.165 0 1.167-1.811 0-1.811-1.165 0-1.167 1.81 0 1.81z" fill="#BEDDF3"/><path d="M22.717 7.17c1.166 0 1.168-1.81 0-1.81-1.165 0-1.167 1.81 0 1.81zM3.32 17.276c1.165 0 1.167-1.811 0-1.811-1.165 0-1.167 1.81 0 1.81z" fill="#E28086"/><path d="M42.015 5.272c1.165 0 1.167-1.811 0-1.811-1.165 0-1.167 1.81 0 1.81z" fill="#FFC250"/><path d="M57.589 21.026c1.165 0 1.167-1.811 0-1.811-1.166 0-1.168 1.81 0 1.81z" fill="#BEDDF3"/><path d="M34.772 48.913c1.165 0 1.167-1.811 0-1.811-1.165 0-1.167 1.81 0 1.81z" fill="#E28086"/><path d="M24.45 53.256c1.166 0 1.168-1.81 0-1.81-1.164 0-1.166 1.81 0 1.81z" fill="#FFC250"/><path d="M8.879 44.928c1.165 0 1.167-1.81 0-1.81-1.166 0-1.168 1.81 0 1.81z" fill="#BEDDF3"/></g><defs><clipPath id="clip0_300_577"><path fill="#fff" d="M0 0h60v60H0z"/></clipPath></defs></svg>