<svg width="60" height="60" fill="none" xmlns="http://www.w3.org/2000/svg"><path d="M57.242 30.002l2.633-6.866a1.877 1.877 0 00-.57-2.13l-5.708-4.627-1.154-7.263a1.874 1.874 0 00-1.56-1.556l-7.264-1.155-4.623-5.71a1.878 1.878 0 00-2.126-.57L30 2.76 23.134.128a1.87 1.87 0 00-2.126.57l-4.627 5.71-7.263 1.156A1.879 1.879 0 007.562 9.12l-1.155 7.263-5.71 4.627a1.876 1.876 0 00-.57 2.126l2.631 6.866-2.632 6.866a1.87 1.87 0 00.57 2.126l5.71 4.623 1.156 7.264a1.874 1.874 0 001.556 1.56l7.263 1.154 4.627 5.708a1.866 1.866 0 002.13.57L30 57.244l6.866 2.632a1.87 1.87 0 002.13-.574l4.623-5.706 7.264-1.155a1.878 1.878 0 001.56-1.56l1.154-7.264 5.708-4.623a1.872 1.872 0 00.57-2.126l-2.633-6.866z" fill="url(#paint0_linear_300_748)"/><path d="M24.376 26.25a5.631 5.631 0 01-5.625-5.625A5.632 5.632 0 0124.376 15 5.632 5.632 0 0130 20.625a5.631 5.631 0 01-5.624 5.624zm0-7.5a1.876 1.876 0 10.001 3.751 1.876 1.876 0 00-.001-3.751zM35.625 45A5.631 5.631 0 0130 39.374a5.632 5.632 0 015.625-5.625 5.631 5.631 0 015.624 5.625 5.631 5.631 0 01-5.624 5.624zm0-7.5a1.88 1.88 0 00-1.875 1.875 1.88 1.88 0 001.875 1.874 1.88 1.88 0 001.874-1.874 1.88 1.88 0 00-1.874-1.875zM20.626 45a1.874 1.874 0 01-1.522-2.966l18.748-26.248a1.874 1.874 0 113.053 2.178L22.156 44.213a1.883 1.883 0 01-1.53.787z" fill="#FAFAFA"/><defs><linearGradient id="paint0_linear_300_748" x1=".001" y1="11.25" x2="62.024" y2="15.635" gradientUnits="userSpaceOnUse"><stop stop-color="#30C917"/><stop offset="1" stop-color="#279A13"/></linearGradient></defs></svg>