<svg width="60" height="54" fill="none" xmlns="http://www.w3.org/2000/svg"><path d="M44.176 31.806c8.737 0 15.82-7.082 15.82-15.819 0-8.737-7.083-15.819-15.82-15.819-8.736 0-15.819 7.082-15.819 15.819 0 8.737 7.083 15.82 15.82 15.82z" fill="url(#paint0_linear_300_794)"/><mask id="path-2-outside-1_300_794" maskUnits="userSpaceOnUse" x="33" y="9" width="24" height="18" fill="#000"><path fill="#fff" d="M33 9h24v18H33z"/><path d="M50.719 12.073a6.436 6.436 0 00-1.878.292 6.075 6.075 0 00-1.69.825c-.514.358-.967.787-1.413 1.221-.445.435-.889.854-1.373 1.255.977.564 2.081.89 3.215 1.007a8.448 8.448 0 003.377-.33 8.127 8.127 0 002.932-1.625c.84-.732 1.532-1.555 1.961-2.56a7.881 7.881 0 00-2.697-1.572 8.082 8.082 0 00-3.13-.405A7.653 7.653 0 0047 11.04c-.23.125-.456.258-.67.406a9.129 9.129 0 00-.625.471c-.403.332-.782.69-1.158 1.055-.376.364-.749.733-1.141 1.086-.196.177-.397.35-.605.514a7.724 7.724 0 01-.82.573c-.058.034-.115.07-.174.101l-.178.096c-.058.033-.12.06-.181.09l-.092.043c-.03.014-.062.027-.093.04-.062.026-.123.054-.187.078-.127.047-.254.095-.384.133-.129.042-.262.07-.394.105l-.2.04-.1.018-.102.015c-.27.038-.542.056-.815.054a5.665 5.665 0 01-2.362-.544 5.862 5.862 0 01-.7-.399 5.444 5.444 0 01-1.996-2.411L34 12.547l.05-.034c.748-.516 1.647-.814 2.56-.892a5.874 5.874 0 012.688.412c.421.172.82.392 1.19.648.37.257.708.554 1.017.875a8.234 8.234 0 011.476 2.184c.187.396.344.804.474 1.22a9.692 9.692 0 01.303 1.269c.068.43.121.859.16 1.29.023.215.038.431.056.647.015.216.032.432.044.648.05.863.08 1.728.088 2.593.01.864 0 1.729-.034 2.593.012-.432.016-.864.016-1.297a68.356 68.356 0 00-.015-1.296 54.348 54.348 0 00-.115-2.59c-.014-.216-.034-.43-.05-.646-.021-.216-.038-.43-.062-.645-.044-.43-.102-.859-.174-1.284a9.638 9.638 0 00-.787-2.462 8.12 8.12 0 00-1.47-2.147 6.694 6.694 0 00-1.002-.853 6.12 6.12 0 00-1.168-.628 5.725 5.725 0 00-2.622-.386c-.887.08-1.73.311-2.452.812.39.938 1.078 1.727 1.942 2.306a5.42 5.42 0 002.97.908 5.19 5.19 0 00.787-.054l.097-.014.097-.019.194-.038c.127-.033.256-.06.38-.102.126-.037.248-.084.372-.129.06-.024.12-.05.18-.076l.09-.039.089-.043c.058-.029.118-.055.175-.087l.173-.093c.057-.032.112-.066.168-.1.057-.032.112-.068.166-.103a7.5 7.5 0 00.634-.458c.205-.161.403-.332.596-.507.388-.35.758-.72 1.135-1.083.377-.365.761-.727 1.172-1.063.204-.168.418-.327.638-.479.22-.152.451-.288.688-.415a7.84 7.84 0 013.096-.873 8.26 8.26 0 013.198.42 8.05 8.05 0 012.752 1.61l.04.036-.02.048a8.048 8.048 0 01-.376.75 7.917 7.917 0 01-.462.703c-.17.225-.35.443-.542.65a8.348 8.348 0 01-.613.587 8.27 8.27 0 01-2.991 1.636 8.578 8.578 0 01-3.427.316 8.137 8.137 0 01-3.246-1.08l-.048-.027.043-.034c.483-.393.926-.831 1.376-1.263.45-.43.91-.857 1.431-1.213a6.066 6.066 0 011.71-.814 6.482 6.482 0 011.884-.269z"/></mask><path d="M50.719 12.073a6.436 6.436 0 00-1.878.292 6.075 6.075 0 00-1.69.825c-.514.358-.967.787-1.413 1.221-.445.435-.889.854-1.373 1.255.977.564 2.081.89 3.215 1.007a8.448 8.448 0 003.377-.33 8.127 8.127 0 002.932-1.625c.84-.732 1.532-1.555 1.961-2.56a7.881 7.881 0 00-2.697-1.572 8.082 8.082 0 00-3.13-.405A7.653 7.653 0 0047 11.04c-.23.125-.456.258-.67.406a9.129 9.129 0 00-.625.471c-.403.332-.782.69-1.158 1.055-.376.364-.749.733-1.141 1.086-.196.177-.397.35-.605.514a7.724 7.724 0 01-.82.573c-.058.034-.115.07-.174.101l-.178.096c-.058.033-.12.06-.181.09l-.092.043c-.03.014-.062.027-.093.04-.062.026-.123.054-.187.078-.127.047-.254.095-.384.133-.129.042-.262.07-.394.105l-.2.04-.1.018-.102.015c-.27.038-.542.056-.815.054a5.665 5.665 0 01-2.362-.544 5.862 5.862 0 01-.7-.399 5.444 5.444 0 01-1.996-2.411L34 12.547l.05-.034c.748-.516 1.647-.814 2.56-.892a5.874 5.874 0 012.688.412c.421.172.82.392 1.19.648.37.257.708.554 1.017.875a8.234 8.234 0 011.476 2.184c.187.396.344.804.474 1.22a9.692 9.692 0 01.303 1.269c.068.43.121.859.16 1.29.023.215.038.431.056.647.015.216.032.432.044.648.05.863.08 1.728.088 2.593.01.864 0 1.729-.034 2.593.012-.432.016-.864.016-1.297a68.356 68.356 0 00-.015-1.296 54.348 54.348 0 00-.115-2.59c-.014-.216-.034-.43-.05-.646-.021-.216-.038-.43-.062-.645-.044-.43-.102-.859-.174-1.284a9.638 9.638 0 00-.787-2.462 8.12 8.12 0 00-1.47-2.147 6.694 6.694 0 00-1.002-.853 6.12 6.12 0 00-1.168-.628 5.725 5.725 0 00-2.622-.386c-.887.08-1.73.311-2.452.812.39.938 1.078 1.727 1.942 2.306a5.42 5.42 0 002.97.908 5.19 5.19 0 00.787-.054l.097-.014.097-.019.194-.038c.127-.033.256-.06.38-.102.126-.037.248-.084.372-.129.06-.024.12-.05.18-.076l.09-.039.089-.043c.058-.029.118-.055.175-.087l.173-.093c.057-.032.112-.066.168-.1.057-.032.112-.068.166-.103a7.5 7.5 0 00.634-.458c.205-.161.403-.332.596-.507.388-.35.758-.72 1.135-1.083.377-.365.761-.727 1.172-1.063.204-.168.418-.327.638-.479.22-.152.451-.288.688-.415a7.84 7.84 0 013.096-.873 8.26 8.26 0 013.198.42 8.05 8.05 0 012.752 1.61l.04.036-.02.048a8.048 8.048 0 01-.376.75 7.917 7.917 0 01-.462.703c-.17.225-.35.443-.542.65a8.348 8.348 0 01-.613.587 8.27 8.27 0 01-2.991 1.636 8.578 8.578 0 01-3.427.316 8.137 8.137 0 01-3.246-1.08l-.048-.027.043-.034c.483-.393.926-.831 1.376-1.263.45-.43.91-.857 1.431-1.213a6.066 6.066 0 011.71-.814 6.482 6.482 0 011.884-.269z" fill="#fff"/><path d="M50.719 12.073a6.436 6.436 0 00-1.878.292 6.075 6.075 0 00-1.69.825c-.514.358-.967.787-1.413 1.221-.445.435-.889.854-1.373 1.255.977.564 2.081.89 3.215 1.007a8.448 8.448 0 003.377-.33 8.127 8.127 0 002.932-1.625c.84-.732 1.532-1.555 1.961-2.56a7.881 7.881 0 00-2.697-1.572 8.082 8.082 0 00-3.13-.405A7.653 7.653 0 0047 11.04c-.23.125-.456.258-.67.406a9.129 9.129 0 00-.625.471c-.403.332-.782.69-1.158 1.055-.376.364-.749.733-1.141 1.086-.196.177-.397.35-.605.514a7.724 7.724 0 01-.82.573c-.058.034-.115.07-.174.101l-.178.096c-.058.033-.12.06-.181.09l-.092.043c-.03.014-.062.027-.093.04-.062.026-.123.054-.187.078-.127.047-.254.095-.384.133-.129.042-.262.07-.394.105l-.2.04-.1.018-.102.015c-.27.038-.542.056-.815.054a5.665 5.665 0 01-2.362-.544 5.862 5.862 0 01-.7-.399 5.444 5.444 0 01-1.996-2.411L34 12.547l.05-.034c.748-.516 1.647-.814 2.56-.892a5.874 5.874 0 012.688.412c.421.172.82.392 1.19.648.37.257.708.554 1.017.875a8.234 8.234 0 011.476 2.184c.187.396.344.804.474 1.22a9.692 9.692 0 01.303 1.269c.068.43.121.859.16 1.29.023.215.038.431.056.647.015.216.032.432.044.648.05.863.08 1.728.088 2.593.01.864 0 1.729-.034 2.593.012-.432.016-.864.016-1.297a68.356 68.356 0 00-.015-1.296 54.348 54.348 0 00-.115-2.59c-.014-.216-.034-.43-.05-.646-.021-.216-.038-.43-.062-.645-.044-.43-.102-.859-.174-1.284a9.638 9.638 0 00-.787-2.462 8.12 8.12 0 00-1.47-2.147 6.694 6.694 0 00-1.002-.853 6.12 6.12 0 00-1.168-.628 5.725 5.725 0 00-2.622-.386c-.887.08-1.73.311-2.452.812.39.938 1.078 1.727 1.942 2.306a5.42 5.42 0 002.97.908 5.19 5.19 0 00.787-.054l.097-.014.097-.019.194-.038c.127-.033.256-.06.38-.102.126-.037.248-.084.372-.129.06-.024.12-.05.18-.076l.09-.039.089-.043c.058-.029.118-.055.175-.087l.173-.093c.057-.032.112-.066.168-.1.057-.032.112-.068.166-.103a7.5 7.5 0 00.634-.458c.205-.161.403-.332.596-.507.388-.35.758-.72 1.135-1.083.377-.365.761-.727 1.172-1.063.204-.168.418-.327.638-.479.22-.152.451-.288.688-.415a7.84 7.84 0 013.096-.873 8.26 8.26 0 013.198.42 8.05 8.05 0 012.752 1.61l.04.036-.02.048a8.048 8.048 0 01-.376.75 7.917 7.917 0 01-.462.703c-.17.225-.35.443-.542.65a8.348 8.348 0 01-.613.587 8.27 8.27 0 01-2.991 1.636 8.578 8.578 0 01-3.427.316 8.137 8.137 0 01-3.246-1.08l-.048-.027.043-.034c.483-.393.926-.831 1.376-1.263.45-.43.91-.857 1.431-1.213a6.066 6.066 0 011.71-.814 6.482 6.482 0 011.884-.269z" stroke="#fff" stroke-width=".56" mask="url(#path-2-outside-1_300_794)"/><path d="M59.363 37.323c-1.125-1.617-3.305-2.004-4.887-.879l-9.42 6.61c-.28.161-.59.252-.88.39-2.847 1.365-6.144 1.65-9.175.628L24.28 40.487c-.914-.281-1.407-1.3-1.09-2.215.28-.878 1.195-1.37 2.109-1.125.035 0 12.058 3.938 12.058 3.938 2.044.612 3.86-.544 4.429-2.25a3.52 3.52 0 00-2.25-4.43L23.12 28.992c-5.276-1.921-13.256-.566-17.354 5.484l-2.25 6.361v7.399l20.94 4.73c2.527.556 4.889.867 7.277.867h.387c4.198-.05 8.26-.976 12.057-2.539 1.545-.635 3.057-1.356 4.5-2.23l9.808-6.855a3.488 3.488 0 00.879-4.886z" fill="#FFE1BA"/><path d="M58.483 42.213a3.488 3.488 0 00.88-4.886c-1.126-1.617-3.305-2.004-4.887-.88l-9.421 6.61c-.28.162-.59.252-.88.391v7.85c1.545-.636 3.057-1.356 4.5-2.23l9.808-6.855z" fill="#FFE1BA"/><path d="M5.273 52.897H1.758A1.758 1.758 0 010 51.139V33.562c0-.97.787-1.757 1.758-1.757h3.515c.97 0 1.758.787 1.758 1.757V51.14c0 .97-.787 1.758-1.758 1.758z" fill="url(#paint1_linear_300_794)"/><defs><linearGradient id="paint0_linear_300_794" x1="28.357" y1="6.1" x2="61.064" y2="8.412" gradientUnits="userSpaceOnUse"><stop stop-color="#30C917"/><stop offset="1" stop-color="#279A13"/></linearGradient><linearGradient id="paint1_linear_300_794" x1="0" y1="35.759" x2="7.3" y2="35.931" gradientUnits="userSpaceOnUse"><stop stop-color="#30C917"/><stop offset="1" stop-color="#279A13"/></linearGradient></defs></svg>