<svg width="60" height="60" fill="none" xmlns="http://www.w3.org/2000/svg"><g clip-path="url(#clip0_300_757)"><path d="M60 48.09L41.01 36.126v5.19H30l-1.251 6.288L30 54.865h11.01v5.191L60 48.091z" fill="#F0C419"/><path d="M25.945 41.316l-11.35-11.035v12.795c0 6.5 5.289 11.79 11.79 11.79H30v-13.55h-4.055z" fill="#F0C419"/><path d="M33.615 5.309H30l-2.503 6.01L30 18.86h4.056l11.35 11.034V17.1c0-6.501-5.29-11.79-11.79-11.79z" fill="#D5DCED"/><path d="M18.99 5.308V.118L0 12.082l18.99 11.965v-5.19H30V5.308H18.99z" fill="#D5DCED"/><circle cx="29.951" cy="30.001" r="16.923" fill="url(#paint0_linear_300_757)"/><mask id="path-6-outside-1_300_757" maskUnits="userSpaceOnUse" x="15.523" y="21.602" width="29" height="22" fill="#000"><path fill="#fff" d="M15.523 21.602h29v22h-29z"/><path d="M36.934 25.253a7.557 7.557 0 00-2.292.373 7.282 7.282 0 00-2.064 1.055c-.627.458-1.18 1.007-1.725 1.562a27.856 27.856 0 01-1.676 1.605c1.193.722 2.54 1.138 3.925 1.288 1.384.155 2.8.005 4.122-.423a9.803 9.803 0 003.58-2.078c1.026-.936 1.87-1.988 2.394-3.273a9.53 9.53 0 00-3.293-2.01 9.449 9.449 0 00-3.821-.519 9.037 9.037 0 00-1.905.349 8.599 8.599 0 00-2.603 1.268 11.2 11.2 0 00-.763.602 23.51 23.51 0 00-1.413 1.35c-.46.465-.915.937-1.394 1.389-.24.226-.484.447-.739.656a9.431 9.431 0 01-.793.597 4.127 4.127 0 01-.208.136c-.07.044-.14.089-.212.13l-.217.122c-.072.042-.147.076-.221.115l-.112.056c-.037.018-.076.034-.113.05-.077.034-.152.07-.229.1-.155.06-.31.122-.47.17-.156.054-.32.091-.48.135l-.244.05-.123.024-.124.019a6.368 6.368 0 01-.995.069 6.63 6.63 0 01-3.739-1.206 6.9 6.9 0 01-2.436-3.084l-.028-.07.061-.045c.913-.66 2.01-1.04 3.125-1.14a6.877 6.877 0 013.283.526c.514.22 1 .502 1.452.83.452.329.864.708 1.241 1.118.75.825 1.347 1.78 1.802 2.793.229.507.42 1.03.579 1.562a12.52 12.52 0 01.37 1.622 26.2 26.2 0 01.196 1.65c.028.275.046.551.068.827.018.276.039.552.053.828.062 1.105.097 2.21.108 3.316a66.45 66.45 0 01-.042 3.317c.014-.552.02-1.105.02-1.658a90.745 90.745 0 00-.019-1.658 72.642 72.642 0 00-.14-3.313c-.017-.275-.04-.55-.061-.826-.026-.275-.046-.55-.076-.825a26.04 26.04 0 00-.212-1.641 12.79 12.79 0 00-.96-3.15 10.476 10.476 0 00-1.794-2.746 8.29 8.29 0 00-1.225-1.09 7.376 7.376 0 00-1.425-.803 6.702 6.702 0 00-3.201-.494c-1.084.103-2.113.398-2.993 1.039.476 1.199 1.315 2.208 2.37 2.948a6.438 6.438 0 003.625 1.161c.322.003.644-.02.961-.068l.12-.018.118-.024.236-.049c.155-.042.312-.077.464-.13.154-.047.303-.108.454-.165.074-.03.147-.065.22-.097.037-.017.074-.032.11-.05l.108-.055c.071-.037.145-.07.215-.111l.21-.12c.07-.04.137-.084.206-.127a9.265 9.265 0 00.977-.718c.25-.206.49-.425.727-.648.473-.447.925-.92 1.386-1.386.46-.466.928-.93 1.43-1.358.25-.216.51-.42.778-.614a8.65 8.65 0 01.84-.53 9.323 9.323 0 011.83-.764 9.253 9.253 0 011.95-.352 9.658 9.658 0 013.905.536 9.724 9.724 0 013.359 2.06l.049.046-.026.061c-.136.327-.288.647-.458.959-.173.309-.36.61-.564.9-.207.287-.426.565-.661.83-.238.262-.485.515-.748.752a9.969 9.969 0 01-3.652 2.091c-1.346.427-2.782.57-4.184.405a9.626 9.626 0 01-3.963-1.38l-.057-.036.051-.044c.59-.502 1.13-1.063 1.68-1.615.55-.55 1.112-1.096 1.748-1.552a7.261 7.261 0 012.086-1.04 7.612 7.612 0 012.3-.344z"/></mask><path d="M36.934 25.253a7.557 7.557 0 00-2.292.373 7.282 7.282 0 00-2.064 1.055c-.627.458-1.18 1.007-1.725 1.562a27.856 27.856 0 01-1.676 1.605c1.193.722 2.54 1.138 3.925 1.288 1.384.155 2.8.005 4.122-.423a9.803 9.803 0 003.58-2.078c1.026-.936 1.87-1.988 2.394-3.273a9.53 9.53 0 00-3.293-2.01 9.449 9.449 0 00-3.821-.519 9.037 9.037 0 00-1.905.349 8.599 8.599 0 00-2.603 1.268 11.2 11.2 0 00-.763.602 23.51 23.51 0 00-1.413 1.35c-.46.465-.915.937-1.394 1.389-.24.226-.484.447-.739.656a9.431 9.431 0 01-.793.597 4.127 4.127 0 01-.208.136c-.07.044-.14.089-.212.13l-.217.122c-.072.042-.147.076-.221.115l-.112.056c-.037.018-.076.034-.113.05-.077.034-.152.07-.229.1-.155.06-.31.122-.47.17-.156.054-.32.091-.48.135l-.244.05-.123.024-.124.019a6.368 6.368 0 01-.995.069 6.63 6.63 0 01-3.739-1.206 6.9 6.9 0 01-2.436-3.084l-.028-.07.061-.045c.913-.66 2.01-1.04 3.125-1.14a6.877 6.877 0 013.283.526c.514.22 1 .502 1.452.83.452.329.864.708 1.241 1.118.75.825 1.347 1.78 1.802 2.793.229.507.42 1.03.579 1.562a12.52 12.52 0 01.37 1.622 26.2 26.2 0 01.196 1.65c.028.275.046.551.068.827.018.276.039.552.053.828.062 1.105.097 2.21.108 3.316a66.45 66.45 0 01-.042 3.317c.014-.552.02-1.105.02-1.658a90.745 90.745 0 00-.019-1.658 72.642 72.642 0 00-.14-3.313c-.017-.275-.04-.55-.061-.826-.026-.275-.046-.55-.076-.825a26.04 26.04 0 00-.212-1.641 12.79 12.79 0 00-.96-3.15 10.476 10.476 0 00-1.794-2.746 8.29 8.29 0 00-1.225-1.09 7.376 7.376 0 00-1.425-.803 6.702 6.702 0 00-3.201-.494c-1.084.103-2.113.398-2.993 1.039.476 1.199 1.315 2.208 2.37 2.948a6.438 6.438 0 003.625 1.161c.322.003.644-.02.961-.068l.12-.018.118-.024.236-.049c.155-.042.312-.077.464-.13.154-.047.303-.108.454-.165.074-.03.147-.065.22-.097.037-.017.074-.032.11-.05l.108-.055c.071-.037.145-.07.215-.111l.21-.12c.07-.04.137-.084.206-.127a9.265 9.265 0 00.977-.718c.25-.206.49-.425.727-.648.473-.447.925-.92 1.386-1.386.46-.466.928-.93 1.43-1.358.25-.216.51-.42.778-.614a8.65 8.65 0 01.84-.53 9.323 9.323 0 011.83-.764 9.253 9.253 0 011.95-.352 9.658 9.658 0 013.905.536 9.724 9.724 0 013.359 2.06l.049.046-.026.061c-.136.327-.288.647-.458.959-.173.309-.36.61-.564.9-.207.287-.426.565-.661.83-.238.262-.485.515-.748.752a9.969 9.969 0 01-3.652 2.091c-1.346.427-2.782.57-4.184.405a9.626 9.626 0 01-3.963-1.38l-.057-.036.051-.044c.59-.502 1.13-1.063 1.68-1.615.55-.55 1.112-1.096 1.748-1.552a7.261 7.261 0 012.086-1.04 7.612 7.612 0 012.3-.344z" fill="#fff"/><path d="M36.934 25.253a7.557 7.557 0 00-2.292.373 7.282 7.282 0 00-2.064 1.055c-.627.458-1.18 1.007-1.725 1.562a27.856 27.856 0 01-1.676 1.605c1.193.722 2.54 1.138 3.925 1.288 1.384.155 2.8.005 4.122-.423a9.803 9.803 0 003.58-2.078c1.026-.936 1.87-1.988 2.394-3.273a9.53 9.53 0 00-3.293-2.01 9.449 9.449 0 00-3.821-.519 9.037 9.037 0 00-1.905.349 8.599 8.599 0 00-2.603 1.268 11.2 11.2 0 00-.763.602 23.51 23.51 0 00-1.413 1.35c-.46.465-.915.937-1.394 1.389-.24.226-.484.447-.739.656a9.431 9.431 0 01-.793.597 4.127 4.127 0 01-.208.136c-.07.044-.14.089-.212.13l-.217.122c-.072.042-.147.076-.221.115l-.112.056c-.037.018-.076.034-.113.05-.077.034-.152.07-.229.1-.155.06-.31.122-.47.17-.156.054-.32.091-.48.135l-.244.05-.123.024-.124.019a6.368 6.368 0 01-.995.069 6.63 6.63 0 01-3.739-1.206 6.9 6.9 0 01-2.436-3.084l-.028-.07.061-.045c.913-.66 2.01-1.04 3.125-1.14a6.877 6.877 0 013.283.526c.514.22 1 .502 1.452.83.452.329.864.708 1.241 1.118.75.825 1.347 1.78 1.802 2.793.229.507.42 1.03.579 1.562a12.52 12.52 0 01.37 1.622 26.2 26.2 0 01.196 1.65c.028.275.046.551.068.827.018.276.039.552.053.828.062 1.105.097 2.21.108 3.316a66.45 66.45 0 01-.042 3.317c.014-.552.02-1.105.02-1.658a90.745 90.745 0 00-.019-1.658 72.642 72.642 0 00-.14-3.313c-.017-.275-.04-.55-.061-.826-.026-.275-.046-.55-.076-.825a26.04 26.04 0 00-.212-1.641 12.79 12.79 0 00-.96-3.15 10.476 10.476 0 00-1.794-2.746 8.29 8.29 0 00-1.225-1.09 7.376 7.376 0 00-1.425-.803 6.702 6.702 0 00-3.201-.494c-1.084.103-2.113.398-2.993 1.039.476 1.199 1.315 2.208 2.37 2.948a6.438 6.438 0 003.625 1.161c.322.003.644-.02.961-.068l.12-.018.118-.024.236-.049c.155-.042.312-.077.464-.13.154-.047.303-.108.454-.165.074-.03.147-.065.22-.097.037-.017.074-.032.11-.05l.108-.055c.071-.037.145-.07.215-.111l.21-.12c.07-.04.137-.084.206-.127a9.265 9.265 0 00.977-.718c.25-.206.49-.425.727-.648.473-.447.925-.92 1.386-1.386.46-.466.928-.93 1.43-1.358.25-.216.51-.42.778-.614a8.65 8.65 0 01.84-.53 9.323 9.323 0 011.83-.764 9.253 9.253 0 011.95-.352 9.658 9.658 0 013.905.536 9.724 9.724 0 013.359 2.06l.049.046-.026.061c-.136.327-.288.647-.458.959-.173.309-.36.61-.564.9-.207.287-.426.565-.661.83-.238.262-.485.515-.748.752a9.969 9.969 0 01-3.652 2.091c-1.346.427-2.782.57-4.184.405a9.626 9.626 0 01-3.963-1.38l-.057-.036.051-.044c.59-.502 1.13-1.063 1.68-1.615.55-.55 1.112-1.096 1.748-1.552a7.261 7.261 0 012.086-1.04 7.612 7.612 0 012.3-.344z" stroke="#fff" stroke-width=".36" mask="url(#path-6-outside-1_300_757)"/></g><defs><linearGradient id="paint0_linear_300_757" x1="13.028" y1="19.424" x2="48.017" y2="21.898" gradientUnits="userSpaceOnUse"><stop stop-color="#30C917"/><stop offset="1" stop-color="#279A13"/></linearGradient><clipPath id="clip0_300_757"><path fill="#fff" d="M0 0h60v60H0z"/></clipPath></defs></svg>