<svg width="60" height="60" fill="none" xmlns="http://www.w3.org/2000/svg"><path fill-rule="evenodd" clip-rule="evenodd" d="M15.08 41.994l-5.852 7.994a28.73 28.73 0 01-8.056-19.987c0-6.35 2.054-12.218 5.532-16.981l-2.791-2.791a.576.576 0 01-.127-.639.576.576 0 01.541-.362h5.685a28.934 28.934 0 016.084-4.486c2.127 3.722 3.73 6.525 4.81 8.41a19.185 19.185 0 00-2.899 1.929v7.828a.576.576 0 01-.362.54.576.576 0 01-.638-.126l-3.329-3.329a19.05 19.05 0 00-2.821 10.007c0 4.54 1.582 8.71 4.223 11.993z" fill="#5DBCD9"/><path fill-rule="evenodd" clip-rule="evenodd" d="M41.993 44.92l7.994 5.852A28.731 28.731 0 0130 58.828a28.693 28.693 0 01-16.981-5.533l-2.791 2.792a.576.576 0 01-.639.127.576.576 0 01-.361-.542V43.164c0-.645.526-1.172 1.171-1.172h12.509c.242 0 .448.138.54.362a.576.576 0 01-.126.638l-3.329 3.33A19.05 19.05 0 0030 49.141a19.06 19.06 0 0011.993-4.223z" fill="#FF4755"/><path fill-rule="evenodd" clip-rule="evenodd" d="M44.92 18.006l5.853-7.994a28.73 28.73 0 018.056 19.987c0 6.35-2.054 12.218-5.41 17.104l2.669 2.668c.17.171.22.415.127.639a.576.576 0 01-.542.362H43.165a1.174 1.174 0 01-1.172-1.172V37.09c0-.242.138-.448.362-.54a.576.576 0 01.638.126l3.33 3.329a19.05 19.05 0 002.82-10.007 19.06 19.06 0 00-4.223-11.992z" fill="#F0C419"/><path fill-rule="evenodd" clip-rule="evenodd" d="M18.007 15.08A19.062 19.062 0 0130 10.857a19.05 19.05 0 0110.007 2.821l-3.329 3.329a.576.576 0 00-.127.638c.093.224.3.362.541.362H49.6c.646 0 1.172-.526 1.172-1.172V4.327a.576.576 0 00-.361-.541.576.576 0 00-.639.127l-2.791 2.791A28.693 28.693 0 0030 1.172a28.73 28.73 0 00-19.988 8.056h6.823c.645 0 1.172.526 1.172 1.172v4.68z" fill="#D5DCED"/><path d="M30 42c6.627 0 12-5.373 12-12s-5.373-12-12-12-12 5.373-12 12 5.373 12 12 12z" fill="url(#paint0_linear_300_780)"/><mask id="path-6-outside-1_300_780" maskUnits="userSpaceOnUse" x="21.28" y="24.461" width="19" height="14" fill="#000"><path fill="#fff" d="M21.28 24.461h19v14h-19z"/><path d="M34.963 27.034a4.893 4.893 0 00-1.424.221 4.608 4.608 0 00-1.282.626c-.39.271-.734.597-1.072.926-.338.33-.675.648-1.042.952a6.13 6.13 0 002.44.764 6.402 6.402 0 002.56-.251 6.166 6.166 0 002.224-1.232c.638-.555 1.163-1.18 1.489-1.942a5.977 5.977 0 00-2.047-1.192 6.13 6.13 0 00-2.374-.307 5.802 5.802 0 00-2.293.651 5.36 5.36 0 00-.509.307 6.916 6.916 0 00-.473.358c-.306.25-.594.523-.879.8-.285.276-.568.556-.866.824-.148.134-.3.265-.459.39a5.873 5.873 0 01-.492.353c-.043.028-.085.056-.13.08-.044.027-.087.054-.131.078l-.135.073c-.045.024-.092.045-.138.067l-.07.034-.07.03-.142.06c-.096.034-.192.071-.291.1-.098.032-.2.054-.299.08l-.152.03-.076.014-.077.01c-.205.03-.412.044-.618.042a4.298 4.298 0 01-1.792-.413 4.13 4.13 0 01-2.045-2.132l-.018-.042.038-.026a4.027 4.027 0 011.942-.676 4.456 4.456 0 012.942.804c.28.195.537.42.771.663.466.49.837 1.056 1.12 1.657a7.519 7.519 0 01.492 1.403c.037.161.071.323.097.486.052.325.092.65.122.978.018.163.029.327.043.49.01.165.024.328.032.492a40.722 40.722 0 01.042 3.934 36.238 36.238 0 000-1.967 41.035 41.035 0 00-.087-1.965c-.01-.163-.025-.326-.038-.49-.016-.163-.028-.326-.047-.49a14.832 14.832 0 00-.132-.973 7.321 7.321 0 00-.597-1.867 6.163 6.163 0 00-1.114-1.63 5.083 5.083 0 00-.761-.646 4.344 4.344 0 00-2.875-.769c-.673.06-1.313.236-1.86.616.296.71.818 1.31 1.473 1.749a4.11 4.11 0 002.85.648l.074-.01.074-.015.146-.03c.097-.024.194-.045.289-.077.095-.027.188-.063.282-.097.046-.018.09-.039.137-.058.023-.01.046-.019.068-.03l.067-.032c.044-.022.09-.042.133-.066l.131-.07.128-.076a5.74 5.74 0 00.607-.426c.155-.122.305-.252.452-.385.294-.265.574-.545.86-.822.287-.276.578-.55.89-.806.154-.127.317-.248.483-.363.167-.115.343-.219.522-.315a5.945 5.945 0 012.35-.662 6.266 6.266 0 012.425.318 6.096 6.096 0 012.087 1.222l.031.027-.016.037a6.08 6.08 0 01-.285.568 5.984 5.984 0 01-.35.534c-.129.17-.265.335-.411.492a6.322 6.322 0 01-.465.446 6.275 6.275 0 01-2.27 1.241 6.507 6.507 0 01-2.599.24 6.171 6.171 0 01-2.462-.819l-.036-.021.032-.026c.367-.298.702-.63 1.044-.958.342-.326.69-.65 1.086-.92a4.6 4.6 0 011.296-.617 4.915 4.915 0 011.43-.204z"/></mask><path d="M34.963 27.034a4.893 4.893 0 00-1.424.221 4.608 4.608 0 00-1.282.626c-.39.271-.734.597-1.072.926-.338.33-.675.648-1.042.952a6.13 6.13 0 002.44.764 6.402 6.402 0 002.56-.251 6.166 6.166 0 002.224-1.232c.638-.555 1.163-1.18 1.489-1.942a5.977 5.977 0 00-2.047-1.192 6.13 6.13 0 00-2.374-.307 5.802 5.802 0 00-2.293.651 5.36 5.36 0 00-.509.307 6.916 6.916 0 00-.473.358c-.306.25-.594.523-.879.8-.285.276-.568.556-.866.824-.148.134-.3.265-.459.39a5.873 5.873 0 01-.492.353c-.043.028-.085.056-.13.08-.044.027-.087.054-.131.078l-.135.073c-.045.024-.092.045-.138.067l-.07.034-.07.03-.142.06c-.096.034-.192.071-.291.1-.098.032-.2.054-.299.08l-.152.03-.076.014-.077.01c-.205.03-.412.044-.618.042a4.298 4.298 0 01-1.792-.413 4.13 4.13 0 01-2.045-2.132l-.018-.042.038-.026a4.027 4.027 0 011.942-.676 4.456 4.456 0 012.942.804c.28.195.537.42.771.663.466.49.837 1.056 1.12 1.657a7.519 7.519 0 01.492 1.403c.037.161.071.323.097.486.052.325.092.65.122.978.018.163.029.327.043.49.01.165.024.328.032.492a40.722 40.722 0 01.042 3.934 36.238 36.238 0 000-1.967 41.035 41.035 0 00-.087-1.965c-.01-.163-.025-.326-.038-.49-.016-.163-.028-.326-.047-.49a14.832 14.832 0 00-.132-.973 7.321 7.321 0 00-.597-1.867 6.163 6.163 0 00-1.114-1.63 5.083 5.083 0 00-.761-.646 4.344 4.344 0 00-2.875-.769c-.673.06-1.313.236-1.86.616.296.71.818 1.31 1.473 1.749a4.11 4.11 0 002.85.648l.074-.01.074-.015.146-.03c.097-.024.194-.045.289-.077.095-.027.188-.063.282-.097.046-.018.09-.039.137-.058.023-.01.046-.019.068-.03l.067-.032c.044-.022.09-.042.133-.066l.131-.07.128-.076a5.74 5.74 0 00.607-.426c.155-.122.305-.252.452-.385.294-.265.574-.545.86-.822.287-.276.578-.55.89-.806.154-.127.317-.248.483-.363.167-.115.343-.219.522-.315a5.945 5.945 0 012.35-.662 6.266 6.266 0 012.425.318 6.096 6.096 0 012.087 1.222l.031.027-.016.037a6.08 6.08 0 01-.285.568 5.984 5.984 0 01-.35.534c-.129.17-.265.335-.411.492a6.322 6.322 0 01-.465.446 6.275 6.275 0 01-2.27 1.241 6.507 6.507 0 01-2.599.24 6.171 6.171 0 01-2.462-.819l-.036-.021.032-.026c.367-.298.702-.63 1.044-.958.342-.326.69-.65 1.086-.92a4.6 4.6 0 011.296-.617 4.915 4.915 0 011.43-.204z" fill="#fff"/><path d="M34.963 27.034a4.893 4.893 0 00-1.424.221 4.608 4.608 0 00-1.282.626c-.39.271-.734.597-1.072.926-.338.33-.675.648-1.042.952a6.13 6.13 0 002.44.764 6.402 6.402 0 002.56-.251 6.166 6.166 0 002.224-1.232c.638-.555 1.163-1.18 1.489-1.942a5.977 5.977 0 00-2.047-1.192 6.13 6.13 0 00-2.374-.307 5.802 5.802 0 00-2.293.651 5.36 5.36 0 00-.509.307 6.916 6.916 0 00-.473.358c-.306.25-.594.523-.879.8-.285.276-.568.556-.866.824-.148.134-.3.265-.459.39a5.873 5.873 0 01-.492.353c-.043.028-.085.056-.13.08-.044.027-.087.054-.131.078l-.135.073c-.045.024-.092.045-.138.067l-.07.034-.07.03-.142.06c-.096.034-.192.071-.291.1-.098.032-.2.054-.299.08l-.152.03-.076.014-.077.01c-.205.03-.412.044-.618.042a4.298 4.298 0 01-1.792-.413 4.13 4.13 0 01-2.045-2.132l-.018-.042.038-.026a4.027 4.027 0 011.942-.676 4.456 4.456 0 012.942.804c.28.195.537.42.771.663.466.49.837 1.056 1.12 1.657a7.519 7.519 0 01.492 1.403c.037.161.071.323.097.486.052.325.092.65.122.978.018.163.029.327.043.49.01.165.024.328.032.492a40.722 40.722 0 01.042 3.934 36.238 36.238 0 000-1.967 41.035 41.035 0 00-.087-1.965c-.01-.163-.025-.326-.038-.49-.016-.163-.028-.326-.047-.49a14.832 14.832 0 00-.132-.973 7.321 7.321 0 00-.597-1.867 6.163 6.163 0 00-1.114-1.63 5.083 5.083 0 00-.761-.646 4.344 4.344 0 00-2.875-.769c-.673.06-1.313.236-1.86.616.296.71.818 1.31 1.473 1.749a4.11 4.11 0 002.85.648l.074-.01.074-.015.146-.03c.097-.024.194-.045.289-.077.095-.027.188-.063.282-.097.046-.018.09-.039.137-.058.023-.01.046-.019.068-.03l.067-.032c.044-.022.09-.042.133-.066l.131-.07.128-.076a5.74 5.74 0 00.607-.426c.155-.122.305-.252.452-.385.294-.265.574-.545.86-.822.287-.276.578-.55.89-.806.154-.127.317-.248.483-.363.167-.115.343-.219.522-.315a5.945 5.945 0 012.35-.662 6.266 6.266 0 012.425.318 6.096 6.096 0 012.087 1.222l.031.027-.016.037a6.08 6.08 0 01-.285.568 5.984 5.984 0 01-.35.534c-.129.17-.265.335-.411.492a6.322 6.322 0 01-.465.446 6.275 6.275 0 01-2.27 1.241 6.507 6.507 0 01-2.599.24 6.171 6.171 0 01-2.462-.819l-.036-.021.032-.026c.367-.298.702-.63 1.044-.958.342-.326.69-.65 1.086-.92a4.6 4.6 0 011.296-.617 4.915 4.915 0 011.43-.204z" stroke="#fff" stroke-width=".56" mask="url(#path-6-outside-1_300_780)"/><defs><linearGradient id="paint0_linear_300_780" x1="18" y1="22.5" x2="42.81" y2="24.254" gradientUnits="userSpaceOnUse"><stop stop-color="#30C917"/><stop offset="1" stop-color="#279A13"/></linearGradient></defs></svg>