<svg width="60" height="44" fill="none" xmlns="http://www.w3.org/2000/svg"><path d="M43.549 18.614v.68c0 .831.134 1.658.397 2.447l1.538 4.615h2.904V15.711h-1.936a2.903 2.903 0 00-2.903 2.903z" fill="#5A4146"/><path d="M56.798 20.623l-1.637 5.732-7.742-6.774a1.935 1.935 0 01-1.936-1.936c0-1.603 1.3-2.903 2.904-2.903h6.774c1.069 0 1.935.867 1.935 1.936v1.819c0 .719-.1 1.435-.298 2.126z" fill="#5A4146"/><path d="M53.225 29.258H47.42v4.283h5.806v-4.283z" fill="#E6AF78"/><path d="M47.419 31.035a7.693 7.693 0 005.806 0v-1.777H47.42v1.777z" fill="#E6AF78"/><path d="M57.895 32.94l-4.67-1.334-2.902 1.926-2.903-1.926-4.669 1.333a2.903 2.903 0 00-2.105 2.792v7.075c0 .535.433.968.967.968h17.42a.968.968 0 00.967-.968v-7.075a2.904 2.904 0 00-2.105-2.792z" fill="#D5DCED"/><path d="M51.29 43.776h-1.935l.483-10.233h.968l.484 10.233z" fill="#AFB9D2"/><path d="M50.323 30.227a5.806 5.806 0 01-5.806-5.806v-1.134c0-.513.203-1.006.566-1.369l1.755-1.755c.372-.371.88-.585 1.405-.568 3.094.097 5.832.76 7.329 2.222.366.358.557.858.557 1.37v1.234c0 3.207-2.6 5.806-5.806 5.806z" fill="#F0C087"/><path d="M47.42 23.527c0-1.116.937-2.004 2.051-1.933 1.954.125 4.853.451 6.632 1.307a1.87 1.87 0 00-.531-1.084c-1.497-1.462-4.235-2.125-7.329-2.222a1.913 1.913 0 00-1.405.568l-1.754 1.755a1.935 1.935 0 00-.567 1.369v1.134a5.805 5.805 0 004.197 5.575 5.759 5.759 0 01-1.294-3.64v-2.829z" fill="#F0C087"/><path d="M56.129 38.614c0-.77.306-1.508.85-2.053l2.491-2.49c.333.475.53 1.048.53 1.66v7.075a.968.968 0 01-.968.968H56.13v-5.16z" fill="#C7CFE2"/><path d="M50.806 35.478h-.968a.484.484 0 01-.483-.483v-1.452h1.935v1.452a.484.484 0 01-.484.483z" fill="#959CB5"/><path d="M50.322 33.531l-1.64 1.253a.58.58 0 01-.862-.183l-1.471-2.687.592-.903a.387.387 0 01.587-.072l2.794 2.592zm0 0l1.64 1.253a.58.58 0 00.862-.183l1.472-2.687-.593-.903a.387.387 0 00-.587-.072l-2.794 2.592z" fill="#C7CFE2"/><path d="M17.323 29.822c-.827-2.191-1.483-5.958-1.625-7.919-.27-3.732-3.082-6.774-6.883-6.774-3.802 0-6.615 3.042-6.884 6.774-.142 1.961-.798 5.728-1.625 7.92a.964.964 0 00.504 1.23c.886.402 2.776 1.189 5.054 1.495h5.9c2.269-.307 4.171-1.094 5.055-1.495a.964.964 0 00.504-1.23z" fill="#5A4146"/><path d="M16.819 31.053a.964.964 0 00.503-1.23c-.826-2.192-1.482-5.959-1.624-7.92-.27-3.732-3.082-6.774-6.884-6.774h-.028c-2.918.012-3.948 3.99-1.437 5.475.15.089.247.132.247.132l2.2 11.812h1.968c2.269-.307 4.171-1.094 5.055-1.495z" fill="#5A4146"/><path d="M15.815 34.493l-3.132-1.565a1.936 1.936 0 01-1.07-1.732v-2.903H5.806v2.903c0 .733-.414 1.404-1.07 1.732l-3.131 1.565A2.903 2.903 0 000 37.09v5.719c0 .534.433.968.968.968h15.484a.968.968 0 00.967-.968V37.09c0-1.1-.621-2.105-1.604-2.597z" fill="#E6AF78"/><path d="M8.71 32.164c1.042 0 2.04-.215 2.955-.597-.024-.122-.052-.244-.052-.37v-2.904H5.806v2.903c0 .128-.028.25-.052.373.915.38 1.913.595 2.955.595z" fill="#E6AF78"/><path d="M15.815 34.49l-2.232-1.115a5.797 5.797 0 01-9.747 0l-2.231 1.116A2.903 2.903 0 000 37.087v5.72c0 .534.433.967.968.967h15.484a.968.968 0 00.967-.968v-5.719c0-1.1-.621-2.105-1.604-2.596z" fill="#D5DCED"/><path d="M8.71 30.226a5.807 5.807 0 01-5.76-5.056.976.976 0 01.517-1.006 8.08 8.08 0 001.713-1.157 5.588 5.588 0 001.324-1.742.958.958 0 011.091-.53c3.408.868 5.727 2.641 6.569 3.365.226.194.356.48.333.778a5.807 5.807 0 01-5.789 5.347z" fill="#F0C087"/><path d="M14.166 24.1c-.842-.723-3.162-2.496-6.569-3.365a.958.958 0 00-1.091.53c-.173.362-.46.822-.884 1.292v.003c-.133.15-.273.3-.44.448a8.073 8.073 0 01-1.713 1.157.976.976 0 00-.517 1.006A5.816 5.816 0 007.83 30.16c-1.159-.789-2.023-1.873-2.023-3.805v-1.38c.22-.162.441-.324.664-.523a7.705 7.705 0 001.384-1.632c2.606.813 4.373 2.168 5.043 2.744.184.16.639.58 1.171 1.08a5.76 5.76 0 00.43-1.765.936.936 0 00-.333-.778z" fill="#F0C087"/><path d="M.59 35.344A2.897 2.897 0 000 37.088v5.72c0 .534.433.967.968.967H3.87v-4.876c0-.588-.267-1.144-.727-1.512L.59 35.344z" fill="#C7CFE2"/><path d="M43.904 33.171l-8.097-2.944L30 32.162l-5.806-1.935-8.097 2.944a3.871 3.871 0 00-2.548 3.638v5.998c0 .535.433.968.968.968h30.967a.968.968 0 00.968-.968V36.81a3.87 3.87 0 00-2.548-3.638z" fill="url(#paint0_linear_300_708)"/><path d="M43.904 33.171l-8.097-2.944L30 32.162l-5.806-1.935-8.097 2.944a3.871 3.871 0 00-2.548 3.638v5.998c0 .535.433.968.968.968h30.967a.968.968 0 00.968-.968V36.81a3.87 3.87 0 00-2.548-3.638z" fill="#fff" fill-opacity=".2"/><path d="M28.986 34.098l-.922 9.677h3.871l-.921-9.677h-2.028z" fill="#707487"/><path d="M31.016 35.425h-2.032a.677.677 0 01-.677-.677V32.16h3.387v2.588a.677.677 0 01-.678.677z" fill="#5B5D6E"/><path d="M45.41 34.172a3.866 3.866 0 011.042 2.637v5.999a.968.968 0 01-.968.967h-4.839V40.54a3.87 3.87 0 011.134-2.737l3.631-3.631z" fill="url(#paint1_linear_300_708)"/><path d="M40.645 10.27V2.161A1.935 1.935 0 0038.709.227H27.096a7.742 7.742 0 00-7.741 7.742v2.3c0 1.04.167 2.074.496 3.06l.322.967c.099.296.15.606.15.918v.496h19.354v-.496c0-.312.05-.622.149-.918l.322-.967c.33-.987.497-2.02.497-3.06z" fill="#5A4146"/><path d="M24.193 4.158a3.931 3.931 0 003.932 3.931h.544l.263 7.621h10.745v-.496c0-.312.05-.622.15-.918l.321-.967c.33-.987.497-2.02.497-3.06V2.162A1.935 1.935 0 0038.709.227H28.125a3.931 3.931 0 00-3.932 3.931z" fill="#5A4146"/><path d="M35.807 23.453H24.193v8.71h11.614v-8.71z" fill="#E6AF78"/><path d="M24.194 26.726a11.543 11.543 0 0011.612 0v-3.273H24.193v3.273z" fill="#E6AF78"/><path d="M30 32.164l-3.087 3.087a.968.968 0 01-1.455-.1l-3.2-4.217.837-1.764a.968.968 0 011.382-.409L30 32.164z" fill="url(#paint2_linear_300_708)"/><path d="M30 32.164l3.087 3.087a.968.968 0 001.455-.1l3.2-4.217-.837-1.764a.968.968 0 00-1.382-.409L30 32.164z" fill="url(#paint3_linear_300_708)"/><path d="M30 26.354c-5.345 0-9.678-4.333-9.678-9.678v-1.134c0-.513.204-1.005.567-1.368l.802-.802c.363-.363.567-.855.567-1.369v-2.32a.96.96 0 01.737-.94c2.288-.54 9.41-1.821 14.258 1.744.315.231.489.611.489 1.002v.514c0 .514.203 1.006.566 1.369l.802.802c.363.363.567.855.567 1.368v1.134c0 5.345-4.333 9.678-9.677 9.678z" fill="#F0C087"/><path d="M37.253 10.489c-3.41-2.507-7.937-2.616-11.124-2.272a26.104 26.104 0 00-3.134.528.96.96 0 00-.737.94v2.32a1.94 1.94 0 01-.567 1.37l-.802.8a1.936 1.936 0 00-.567 1.37v1.133c0 4.948 3.716 9.022 8.508 9.6a9.637 9.637 0 01-2.701-6.697v-7.073c0-.98.729-1.8 1.702-1.922 2.322-.292 6.576-.467 9.91 1.42v-.514c0-.391-.174-.772-.488-1.003z" fill="#F0C087"/><path d="M14.59 34.172a3.866 3.866 0 00-1.041 2.637v5.999c0 .534.433.967.968.967h4.838V40.54a3.87 3.87 0 00-1.134-2.737l-3.63-3.631z" fill="url(#paint4_linear_300_708)"/><defs><linearGradient id="paint0_linear_300_708" x1="13.549" y1="32.767" x2="46.754" y2="38.468" gradientUnits="userSpaceOnUse"><stop stop-color="#30C917"/><stop offset="1" stop-color="#279A13"/></linearGradient><linearGradient id="paint1_linear_300_708" x1="40.645" y1="35.972" x2="46.667" y2="36.23" gradientUnits="userSpaceOnUse"><stop stop-color="#30C917"/><stop offset="1" stop-color="#279A13"/></linearGradient><linearGradient id="paint2_linear_300_708" x1="22.258" y1="29.914" x2="30.251" y2="30.547" gradientUnits="userSpaceOnUse"><stop stop-color="#30C917"/><stop offset="1" stop-color="#279A13"/></linearGradient><linearGradient id="paint3_linear_300_708" x1="30" y1="29.914" x2="37.993" y2="30.547" gradientUnits="userSpaceOnUse"><stop stop-color="#30C917"/><stop offset="1" stop-color="#279A13"/></linearGradient><linearGradient id="paint4_linear_300_708" x1="13.549" y1="35.972" x2="19.57" y2="36.23" gradientUnits="userSpaceOnUse"><stop stop-color="#30C917"/><stop offset="1" stop-color="#279A13"/></linearGradient></defs></svg>