<svg width="72" height="72" fill="none" xmlns="http://www.w3.org/2000/svg"><circle cx="36" cy="36" r="36" fill="url(#paint0_linear_300_342)"/><mask id="path-2-outside-1_300_342" maskUnits="userSpaceOnUse" x="6.438" y="19.258" width="59" height="45" fill="#000"><path fill="#fff" d="M6.438 19.258h59v45h-59z"/><path d="M50.857 25.898a16.103 16.103 0 00-4.876.793 15.497 15.497 0 00-4.39 2.245c-1.333.974-2.511 2.142-3.67 3.322-1.155 1.183-2.308 2.324-3.565 3.414 2.538 1.536 5.405 2.421 8.35 2.741 2.944.329 5.955.011 8.769-.9a20.856 20.856 0 007.614-4.42c2.182-1.99 3.98-4.23 5.094-6.964a20.27 20.27 0 00-7.006-4.276c-2.595-.929-5.385-1.29-8.128-1.102a19.215 19.215 0 00-4.053.741 19.352 19.352 0 00-3.799 1.594c-.597.338-1.181.7-1.739 1.104a23.7 23.7 0 00-1.622 1.282c-1.047.9-2.032 1.878-3.007 2.87-.976.99-1.945 1.994-2.964 2.955-.509.48-1.03.95-1.572 1.396a20.093 20.093 0 01-2.129 1.559c-.15.092-.298.189-.45.277l-.463.26c-.152.089-.314.161-.47.243l-.238.12c-.079.038-.161.072-.242.108-.162.07-.321.146-.485.212-.331.127-.66.26-.999.36-.334.116-.68.194-1.022.287l-.52.106-.262.052-.263.04c-.7.105-1.408.153-2.116.147a14.098 14.098 0 01-6.135-1.48 15.08 15.08 0 01-1.82-1.085 14.68 14.68 0 01-5.182-6.56l-.059-.15.13-.094c1.942-1.405 4.277-2.215 6.648-2.426 2.374-.21 4.794.188 6.982 1.12a16.085 16.085 0 013.09 1.763c.96.7 1.838 1.507 2.64 2.38 1.596 1.754 2.866 3.786 3.833 5.942a26.045 26.045 0 011.23 3.321c.174.565.317 1.138.454 1.712a27.6 27.6 0 01.334 1.74c.177 1.166.315 2.336.418 3.509.059.585.097 1.173.145 1.76.037.587.082 1.174.111 1.761a153 153 0 01.23 7.055c.028 2.352.002 4.705-.088 7.055.03-1.175.043-2.352.043-3.527a193.82 193.82 0 00-.041-3.527c-.047-2.35-.145-4.7-.3-7.047-.034-.586-.085-1.172-.128-1.758-.054-.586-.097-1.171-.162-1.755a55.528 55.528 0 00-.45-3.491 27.247 27.247 0 00-.807-3.417c-.34-1.12-.75-2.218-1.238-3.282-.968-2.127-2.235-4.126-3.815-5.843a17.623 17.623 0 00-2.605-2.32 15.696 15.696 0 00-3.031-1.707 14.256 14.256 0 00-6.81-1.05c-2.305.219-4.496.847-6.367 2.209 1.013 2.55 2.798 4.698 5.043 6.272.563.391 1.154.742 1.766 1.05a13.643 13.643 0 005.945 1.422 12.87 12.87 0 002.044-.147l.254-.038.251-.051.503-.104c.33-.09.664-.165.987-.28.328-.098.645-.227.965-.349.158-.064.313-.137.47-.206.078-.035.157-.068.234-.107l.229-.116c.151-.08.308-.15.456-.237l.447-.254c.148-.087.292-.18.439-.27a19.728 19.728 0 002.077-1.527 30.282 30.282 0 001.547-1.38c1.008-.95 1.968-1.957 2.948-2.948.98-.992 1.976-1.976 3.042-2.89a24.36 24.36 0 011.657-1.304 18.43 18.43 0 011.787-1.129 19.824 19.824 0 013.892-1.624 19.682 19.682 0 014.149-.75c2.808-.188 5.656.187 8.305 1.141a20.685 20.685 0 017.146 4.38l.105.099-.055.131a22.335 22.335 0 01-.974 2.039 21.667 21.667 0 01-1.2 1.914 21.78 21.78 0 01-1.407 1.766 22.166 22.166 0 01-1.592 1.6 21.208 21.208 0 01-7.769 4.45 21.311 21.311 0 01-8.899.86 20.48 20.48 0 01-8.43-2.937l-.123-.075.11-.093c1.256-1.07 2.405-2.262 3.574-3.436 1.17-1.17 2.365-2.332 3.718-3.301a15.449 15.449 0 014.438-2.213 16.187 16.187 0 012.42-.556 16.65 16.65 0 012.474-.176z"/></mask><path d="M50.857 25.898a16.103 16.103 0 00-4.876.793 15.497 15.497 0 00-4.39 2.245c-1.333.974-2.511 2.142-3.67 3.322-1.155 1.183-2.308 2.324-3.565 3.414 2.538 1.536 5.405 2.421 8.35 2.741 2.944.329 5.955.011 8.769-.9a20.856 20.856 0 007.614-4.42c2.182-1.99 3.98-4.23 5.094-6.964a20.27 20.27 0 00-7.006-4.276c-2.595-.929-5.385-1.29-8.128-1.102a19.215 19.215 0 00-4.053.741 19.352 19.352 0 00-3.799 1.594c-.597.338-1.181.7-1.739 1.104a23.7 23.7 0 00-1.622 1.282c-1.047.9-2.032 1.878-3.007 2.87-.976.99-1.945 1.994-2.964 2.955-.509.48-1.03.95-1.572 1.396a20.093 20.093 0 01-2.129 1.559c-.15.092-.298.189-.45.277l-.463.26c-.152.089-.314.161-.47.243l-.238.12c-.079.038-.161.072-.242.108-.162.07-.321.146-.485.212-.331.127-.66.26-.999.36-.334.116-.68.194-1.022.287l-.52.106-.262.052-.263.04c-.7.105-1.408.153-2.116.147a14.098 14.098 0 01-6.135-1.48 15.08 15.08 0 01-1.82-1.085 14.68 14.68 0 01-5.182-6.56l-.059-.15.13-.094c1.942-1.405 4.277-2.215 6.648-2.426 2.374-.21 4.794.188 6.982 1.12a16.085 16.085 0 013.09 1.763c.96.7 1.838 1.507 2.64 2.38 1.596 1.754 2.866 3.786 3.833 5.942a26.045 26.045 0 011.23 3.321c.174.565.317 1.138.454 1.712a27.6 27.6 0 01.334 1.74c.177 1.166.315 2.336.418 3.509.059.585.097 1.173.145 1.76.037.587.082 1.174.111 1.761a153 153 0 01.23 7.055c.028 2.352.002 4.705-.088 7.055.03-1.175.043-2.352.043-3.527a193.82 193.82 0 00-.041-3.527c-.047-2.35-.145-4.7-.3-7.047-.034-.586-.085-1.172-.128-1.758-.054-.586-.097-1.171-.162-1.755a55.528 55.528 0 00-.45-3.491 27.247 27.247 0 00-.807-3.417c-.34-1.12-.75-2.218-1.238-3.282-.968-2.127-2.235-4.126-3.815-5.843a17.623 17.623 0 00-2.605-2.32 15.696 15.696 0 00-3.031-1.707 14.256 14.256 0 00-6.81-1.05c-2.305.219-4.496.847-6.367 2.209 1.013 2.55 2.798 4.698 5.043 6.272.563.391 1.154.742 1.766 1.05a13.643 13.643 0 005.945 1.422 12.87 12.87 0 002.044-.147l.254-.038.251-.051.503-.104c.33-.09.664-.165.987-.28.328-.098.645-.227.965-.349.158-.064.313-.137.47-.206.078-.035.157-.068.234-.107l.229-.116c.151-.08.308-.15.456-.237l.447-.254c.148-.087.292-.18.439-.27a19.728 19.728 0 002.077-1.527 30.282 30.282 0 001.547-1.38c1.008-.95 1.968-1.957 2.948-2.948.98-.992 1.976-1.976 3.042-2.89a24.36 24.36 0 011.657-1.304 18.43 18.43 0 011.787-1.129 19.824 19.824 0 013.892-1.624 19.682 19.682 0 014.149-.75c2.808-.188 5.656.187 8.305 1.141a20.685 20.685 0 017.146 4.38l.105.099-.055.131a22.335 22.335 0 01-.974 2.039 21.667 21.667 0 01-1.2 1.914 21.78 21.78 0 01-1.407 1.766 22.166 22.166 0 01-1.592 1.6 21.208 21.208 0 01-7.769 4.45 21.311 21.311 0 01-8.899.86 20.48 20.48 0 01-8.43-2.937l-.123-.075.11-.093c1.256-1.07 2.405-2.262 3.574-3.436 1.17-1.17 2.365-2.332 3.718-3.301a15.449 15.449 0 014.438-2.213 16.187 16.187 0 012.42-.556 16.65 16.65 0 012.474-.176z" fill="#fff"/><path d="M50.857 25.898a16.103 16.103 0 00-4.876.793 15.497 15.497 0 00-4.39 2.245c-1.333.974-2.511 2.142-3.67 3.322-1.155 1.183-2.308 2.324-3.565 3.414 2.538 1.536 5.405 2.421 8.35 2.741 2.944.329 5.955.011 8.769-.9a20.856 20.856 0 007.614-4.42c2.182-1.99 3.98-4.23 5.094-6.964a20.27 20.27 0 00-7.006-4.276c-2.595-.929-5.385-1.29-8.128-1.102a19.215 19.215 0 00-4.053.741 19.352 19.352 0 00-3.799 1.594c-.597.338-1.181.7-1.739 1.104a23.7 23.7 0 00-1.622 1.282c-1.047.9-2.032 1.878-3.007 2.87-.976.99-1.945 1.994-2.964 2.955-.509.48-1.03.95-1.572 1.396a20.093 20.093 0 01-2.129 1.559c-.15.092-.298.189-.45.277l-.463.26c-.152.089-.314.161-.47.243l-.238.12c-.079.038-.161.072-.242.108-.162.07-.321.146-.485.212-.331.127-.66.26-.999.36-.334.116-.68.194-1.022.287l-.52.106-.262.052-.263.04c-.7.105-1.408.153-2.116.147a14.098 14.098 0 01-6.135-1.48 15.08 15.08 0 01-1.82-1.085 14.68 14.68 0 01-5.182-6.56l-.059-.15.13-.094c1.942-1.405 4.277-2.215 6.648-2.426 2.374-.21 4.794.188 6.982 1.12a16.085 16.085 0 013.09 1.763c.96.7 1.838 1.507 2.64 2.38 1.596 1.754 2.866 3.786 3.833 5.942a26.045 26.045 0 011.23 3.321c.174.565.317 1.138.454 1.712a27.6 27.6 0 01.334 1.74c.177 1.166.315 2.336.418 3.509.059.585.097 1.173.145 1.76.037.587.082 1.174.111 1.761a153 153 0 01.23 7.055c.028 2.352.002 4.705-.088 7.055.03-1.175.043-2.352.043-3.527a193.82 193.82 0 00-.041-3.527c-.047-2.35-.145-4.7-.3-7.047-.034-.586-.085-1.172-.128-1.758-.054-.586-.097-1.171-.162-1.755a55.528 55.528 0 00-.45-3.491 27.247 27.247 0 00-.807-3.417c-.34-1.12-.75-2.218-1.238-3.282-.968-2.127-2.235-4.126-3.815-5.843a17.623 17.623 0 00-2.605-2.32 15.696 15.696 0 00-3.031-1.707 14.256 14.256 0 00-6.81-1.05c-2.305.219-4.496.847-6.367 2.209 1.013 2.55 2.798 4.698 5.043 6.272.563.391 1.154.742 1.766 1.05a13.643 13.643 0 005.945 1.422 12.87 12.87 0 002.044-.147l.254-.038.251-.051.503-.104c.33-.09.664-.165.987-.28.328-.098.645-.227.965-.349.158-.064.313-.137.47-.206.078-.035.157-.068.234-.107l.229-.116c.151-.08.308-.15.456-.237l.447-.254c.148-.087.292-.18.439-.27a19.728 19.728 0 002.077-1.527 30.282 30.282 0 001.547-1.38c1.008-.95 1.968-1.957 2.948-2.948.98-.992 1.976-1.976 3.042-2.89a24.36 24.36 0 011.657-1.304 18.43 18.43 0 011.787-1.129 19.824 19.824 0 013.892-1.624 19.682 19.682 0 014.149-.75c2.808-.188 5.656.187 8.305 1.141a20.685 20.685 0 017.146 4.38l.105.099-.055.131a22.335 22.335 0 01-.974 2.039 21.667 21.667 0 01-1.2 1.914 21.78 21.78 0 01-1.407 1.766 22.166 22.166 0 01-1.592 1.6 21.208 21.208 0 01-7.769 4.45 21.311 21.311 0 01-8.899.86 20.48 20.48 0 01-8.43-2.937l-.123-.075.11-.093c1.256-1.07 2.405-2.262 3.574-3.436 1.17-1.17 2.365-2.332 3.718-3.301a15.449 15.449 0 014.438-2.213 16.187 16.187 0 012.42-.556 16.65 16.65 0 012.474-.176z" stroke="#fff" stroke-width="1.125" mask="url(#path-2-outside-1_300_342)"/><defs><linearGradient id="paint0_linear_300_342" x1="0" y1="13.5" x2="74.431" y2="18.762" gradientUnits="userSpaceOnUse"><stop stop-color="#30C917"/><stop offset="1" stop-color="#279A13"/></linearGradient></defs></svg>