<svg width="100" height="100" fill="none" xmlns="http://www.w3.org/2000/svg"><circle cx="50" cy="50" r="50" fill="url(#paint0_linear_91_70)"/><mask id="path-2-outside-1_91_70" maskUnits="userSpaceOnUse" x="9.331" y="27.137" width="81" height="62" fill="#000"><path fill="#fff" d="M9.331 27.137h81v62h-81z"/><path d="M70.635 35.97a23.03 23.03 0 00-3.431.289c-1.134.182-2.251.46-3.342.813-2.179.714-4.254 1.755-6.096 3.117-1.853 1.353-3.489 2.976-5.097 4.615-1.605 1.643-3.206 3.227-4.952 4.742 3.525 2.133 7.506 3.362 11.598 3.806 4.088.457 8.27.016 12.178-1.25a28.963 28.963 0 0010.575-6.138c3.03-2.766 5.528-5.875 7.075-9.672a28.152 28.152 0 00-9.731-5.94c-3.604-1.29-7.478-1.792-11.289-1.53a26.685 26.685 0 00-5.629 1.03 26.864 26.864 0 00-5.275 2.213 25.29 25.29 0 00-2.416 1.533 33.116 33.116 0 00-2.253 1.78c-1.454 1.251-2.822 2.609-4.176 3.986-1.356 1.375-2.702 2.77-4.117 4.104-.707.667-1.43 1.32-2.183 1.94a27.904 27.904 0 01-2.343 1.763c-.202.138-.404.276-.614.402-.21.129-.415.262-.626.385l-.642.36c-.212.125-.436.225-.654.338l-.33.166c-.11.054-.224.1-.335.151-.226.097-.447.203-.675.295-.46.176-.916.36-1.387.5-.464.161-.946.27-1.42.398l-.723.148-.362.072-.366.055c-.972.146-1.956.213-2.94.204a19.583 19.583 0 01-8.52-2.055 20.92 20.92 0 01-2.527-1.507c-3.21-2.26-5.754-5.456-7.197-9.112l-.082-.208.18-.13c2.697-1.952 5.94-3.077 9.233-3.37a20.32 20.32 0 019.698 1.555 22.346 22.346 0 014.292 2.45 25.004 25.004 0 013.666 3.304c2.217 2.438 3.98 5.26 5.323 8.253a36.328 36.328 0 011.71 4.614c.24.784.44 1.58.63 2.378.175.8.34 1.605.463 2.415.247 1.62.438 3.245.58 4.874.082.813.136 1.63.202 2.444.051.816.114 1.63.155 2.447.184 3.263.287 6.53.32 9.798a195.28 195.28 0 01-.124 9.8c.043-1.633.06-3.267.06-4.9a266.62 266.62 0 00-.057-4.898 214.5 214.5 0 00-.415-9.787c-.05-.815-.12-1.628-.18-2.443-.075-.813-.134-1.626-.224-2.437a77.154 77.154 0 00-.626-4.849 37.837 37.837 0 00-1.12-4.745 36.01 36.01 0 00-1.719-4.558c-1.345-2.955-3.105-5.731-5.3-8.116-1.102-1.185-2.304-2.279-3.617-3.222a21.803 21.803 0 00-4.21-2.372 19.801 19.801 0 00-9.459-1.458c-3.2.304-6.243 1.176-8.843 3.068 1.407 3.543 3.888 6.526 7.005 8.712.782.543 1.603 1.03 2.453 1.457a18.95 18.95 0 008.256 1.975c.951.007 1.902-.06 2.84-.203l.352-.053.35-.07.698-.145c.458-.126.922-.23 1.37-.388.456-.137.896-.316 1.34-.485.22-.09.435-.192.653-.287.108-.049.218-.094.325-.148l.318-.162c.21-.11.428-.208.634-.33l.621-.35c.206-.122.405-.252.609-.378.204-.122.401-.257.598-.392a27.372 27.372 0 002.287-1.728 42.009 42.009 0 002.15-1.917c1.398-1.32 2.732-2.717 4.094-4.093 1.36-1.379 2.743-2.746 4.224-4.014a33.853 33.853 0 012.302-1.811A25.628 25.628 0 0156.91 31.5a27.536 27.536 0 015.406-2.256 27.335 27.335 0 015.762-1.042c3.9-.26 7.855.26 11.535 1.585a28.73 28.73 0 019.924 6.084l.146.137-.076.182a30.997 30.997 0 01-1.353 2.831 30.043 30.043 0 01-1.666 2.66 30.33 30.33 0 01-1.955 2.451 30.756 30.756 0 01-2.21 2.223 29.454 29.454 0 01-10.79 6.18 29.597 29.597 0 01-12.36 1.196 28.443 28.443 0 01-11.709-4.08l-.17-.105.151-.129c1.745-1.485 3.34-3.14 4.964-4.772 1.625-1.624 3.285-3.24 5.164-4.585a21.454 21.454 0 016.164-3.073 22.58 22.58 0 013.362-.772 23.299 23.299 0 013.436-.245z"/></mask><path d="M70.635 35.97a23.03 23.03 0 00-3.431.289c-1.134.182-2.251.46-3.342.813-2.179.714-4.254 1.755-6.096 3.117-1.853 1.353-3.489 2.976-5.097 4.615-1.605 1.643-3.206 3.227-4.952 4.742 3.525 2.133 7.506 3.362 11.598 3.806 4.088.457 8.27.016 12.178-1.25a28.963 28.963 0 0010.575-6.138c3.03-2.766 5.528-5.875 7.075-9.672a28.152 28.152 0 00-9.731-5.94c-3.604-1.29-7.478-1.792-11.289-1.53a26.685 26.685 0 00-5.629 1.03 26.864 26.864 0 00-5.275 2.213 25.29 25.29 0 00-2.416 1.533 33.116 33.116 0 00-2.253 1.78c-1.454 1.251-2.822 2.609-4.176 3.986-1.356 1.375-2.702 2.77-4.117 4.104-.707.667-1.43 1.32-2.183 1.94a27.904 27.904 0 01-2.343 1.763c-.202.138-.404.276-.614.402-.21.129-.415.262-.626.385l-.642.36c-.212.125-.436.225-.654.338l-.33.166c-.11.054-.224.1-.335.151-.226.097-.447.203-.675.295-.46.176-.916.36-1.387.5-.464.161-.946.27-1.42.398l-.723.148-.362.072-.366.055c-.972.146-1.956.213-2.94.204a19.583 19.583 0 01-8.52-2.055 20.92 20.92 0 01-2.527-1.507c-3.21-2.26-5.754-5.456-7.197-9.112l-.082-.208.18-.13c2.697-1.952 5.94-3.077 9.233-3.37a20.32 20.32 0 019.698 1.555 22.346 22.346 0 014.292 2.45 25.004 25.004 0 013.666 3.304c2.217 2.438 3.98 5.26 5.323 8.253a36.328 36.328 0 011.71 4.614c.24.784.44 1.58.63 2.378.175.8.34 1.605.463 2.415.247 1.62.438 3.245.58 4.874.082.813.136 1.63.202 2.444.051.816.114 1.63.155 2.447.184 3.263.287 6.53.32 9.798a195.28 195.28 0 01-.124 9.8c.043-1.633.06-3.267.06-4.9a266.62 266.62 0 00-.057-4.898 214.5 214.5 0 00-.415-9.787c-.05-.815-.12-1.628-.18-2.443-.075-.813-.134-1.626-.224-2.437a77.154 77.154 0 00-.626-4.849 37.837 37.837 0 00-1.12-4.745 36.01 36.01 0 00-1.719-4.558c-1.345-2.955-3.105-5.731-5.3-8.116-1.102-1.185-2.304-2.279-3.617-3.222a21.803 21.803 0 00-4.21-2.372 19.801 19.801 0 00-9.459-1.458c-3.2.304-6.243 1.176-8.843 3.068 1.407 3.543 3.888 6.526 7.005 8.712.782.543 1.603 1.03 2.453 1.457a18.95 18.95 0 008.256 1.975c.951.007 1.902-.06 2.84-.203l.352-.053.35-.07.698-.145c.458-.126.922-.23 1.37-.388.456-.137.896-.316 1.34-.485.22-.09.435-.192.653-.287.108-.049.218-.094.325-.148l.318-.162c.21-.11.428-.208.634-.33l.621-.35c.206-.122.405-.252.609-.378.204-.122.401-.257.598-.392a27.372 27.372 0 002.287-1.728 42.009 42.009 0 002.15-1.917c1.398-1.32 2.732-2.717 4.094-4.093 1.36-1.379 2.743-2.746 4.224-4.014a33.853 33.853 0 012.302-1.811A25.628 25.628 0 0156.91 31.5a27.536 27.536 0 015.406-2.256 27.335 27.335 0 015.762-1.042c3.9-.26 7.855.26 11.535 1.585a28.73 28.73 0 019.924 6.084l.146.137-.076.182a30.997 30.997 0 01-1.353 2.831 30.043 30.043 0 01-1.666 2.66 30.33 30.33 0 01-1.955 2.451 30.756 30.756 0 01-2.21 2.223 29.454 29.454 0 01-10.79 6.18 29.597 29.597 0 01-12.36 1.196 28.443 28.443 0 01-11.709-4.08l-.17-.105.151-.129c1.745-1.485 3.34-3.14 4.964-4.772 1.625-1.624 3.285-3.24 5.164-4.585a21.454 21.454 0 016.164-3.073 22.58 22.58 0 013.362-.772 23.299 23.299 0 013.436-.245z" fill="#fff"/><path d="M70.635 35.97a23.03 23.03 0 00-3.431.289c-1.134.182-2.251.46-3.342.813-2.179.714-4.254 1.755-6.096 3.117-1.853 1.353-3.489 2.976-5.097 4.615-1.605 1.643-3.206 3.227-4.952 4.742 3.525 2.133 7.506 3.362 11.598 3.806 4.088.457 8.27.016 12.178-1.25a28.963 28.963 0 0010.575-6.138c3.03-2.766 5.528-5.875 7.075-9.672a28.152 28.152 0 00-9.731-5.94c-3.604-1.29-7.478-1.792-11.289-1.53a26.685 26.685 0 00-5.629 1.03 26.864 26.864 0 00-5.275 2.213 25.29 25.29 0 00-2.416 1.533 33.116 33.116 0 00-2.253 1.78c-1.454 1.251-2.822 2.609-4.176 3.986-1.356 1.375-2.702 2.77-4.117 4.104-.707.667-1.43 1.32-2.183 1.94a27.904 27.904 0 01-2.343 1.763c-.202.138-.404.276-.614.402-.21.129-.415.262-.626.385l-.642.36c-.212.125-.436.225-.654.338l-.33.166c-.11.054-.224.1-.335.151-.226.097-.447.203-.675.295-.46.176-.916.36-1.387.5-.464.161-.946.27-1.42.398l-.723.148-.362.072-.366.055c-.972.146-1.956.213-2.94.204a19.583 19.583 0 01-8.52-2.055 20.92 20.92 0 01-2.527-1.507c-3.21-2.26-5.754-5.456-7.197-9.112l-.082-.208.18-.13c2.697-1.952 5.94-3.077 9.233-3.37a20.32 20.32 0 019.698 1.555 22.346 22.346 0 014.292 2.45 25.004 25.004 0 013.666 3.304c2.217 2.438 3.98 5.26 5.323 8.253a36.328 36.328 0 011.71 4.614c.24.784.44 1.58.63 2.378.175.8.34 1.605.463 2.415.247 1.62.438 3.245.58 4.874.082.813.136 1.63.202 2.444.051.816.114 1.63.155 2.447.184 3.263.287 6.53.32 9.798a195.28 195.28 0 01-.124 9.8c.043-1.633.06-3.267.06-4.9a266.62 266.62 0 00-.057-4.898 214.5 214.5 0 00-.415-9.787c-.05-.815-.12-1.628-.18-2.443-.075-.813-.134-1.626-.224-2.437a77.154 77.154 0 00-.626-4.849 37.837 37.837 0 00-1.12-4.745 36.01 36.01 0 00-1.719-4.558c-1.345-2.955-3.105-5.731-5.3-8.116-1.102-1.185-2.304-2.279-3.617-3.222a21.803 21.803 0 00-4.21-2.372 19.801 19.801 0 00-9.459-1.458c-3.2.304-6.243 1.176-8.843 3.068 1.407 3.543 3.888 6.526 7.005 8.712.782.543 1.603 1.03 2.453 1.457a18.95 18.95 0 008.256 1.975c.951.007 1.902-.06 2.84-.203l.352-.053.35-.07.698-.145c.458-.126.922-.23 1.37-.388.456-.137.896-.316 1.34-.485.22-.09.435-.192.653-.287.108-.049.218-.094.325-.148l.318-.162c.21-.11.428-.208.634-.33l.621-.35c.206-.122.405-.252.609-.378.204-.122.401-.257.598-.392a27.372 27.372 0 002.287-1.728 42.009 42.009 0 002.15-1.917c1.398-1.32 2.732-2.717 4.094-4.093 1.36-1.379 2.743-2.746 4.224-4.014a33.853 33.853 0 012.302-1.811A25.628 25.628 0 0156.91 31.5a27.536 27.536 0 015.406-2.256 27.335 27.335 0 015.762-1.042c3.9-.26 7.855.26 11.535 1.585a28.73 28.73 0 019.924 6.084l.146.137-.076.182a30.997 30.997 0 01-1.353 2.831 30.043 30.043 0 01-1.666 2.66 30.33 30.33 0 01-1.955 2.451 30.756 30.756 0 01-2.21 2.223 29.454 29.454 0 01-10.79 6.18 29.597 29.597 0 01-12.36 1.196 28.443 28.443 0 01-11.709-4.08l-.17-.105.151-.129c1.745-1.485 3.34-3.14 4.964-4.772 1.625-1.624 3.285-3.24 5.164-4.585a21.454 21.454 0 016.164-3.073 22.58 22.58 0 013.362-.772 23.299 23.299 0 013.436-.245z" stroke="#fff" stroke-width="1.057" mask="url(#path-2-outside-1_91_70)"/><circle cx="82" cy="82" r="18" fill="url(#paint1_linear_91_70)"/><mask id="path-4-outside-2_91_70" maskUnits="userSpaceOnUse" x="66.719" y="73.129" width="30" height="23" fill="#000"><path fill="#fff" d="M66.719 73.129h30v23h-30z"/><path d="M89.428 76.949a8.034 8.034 0 00-2.438.397 7.747 7.747 0 00-2.195 1.122c-.667.487-1.256 1.071-1.835 1.661a29.6 29.6 0 01-1.782 1.707c1.269.768 2.702 1.21 4.175 1.37 1.472.165 2.977.006 4.384-.45a10.426 10.426 0 003.807-2.21c1.091-.995 1.99-2.114 2.547-3.481a10.137 10.137 0 00-3.503-2.138 10.051 10.051 0 00-4.064-.552 9.617 9.617 0 00-2.026.371 9.67 9.67 0 00-1.9.797c-.299.169-.59.35-.87.552-.278.202-.55.414-.81.64a24.82 24.82 0 00-1.504 1.436c-.488.495-.972.997-1.482 1.477-.255.24-.515.476-.786.699-.27.224-.55.439-.843.634-.073.05-.146.1-.221.145-.076.046-.15.094-.226.138l-.23.13c-.077.045-.158.081-.236.122l-.119.06-.12.054c-.082.035-.162.073-.244.106-.165.063-.33.13-.499.18-.167.058-.34.097-.511.143l-.26.054-.13.025-.132.02c-.35.053-.705.077-1.059.074a7.051 7.051 0 01-3.977-1.282 7.34 7.34 0 01-2.59-3.28l-.03-.076.065-.047c.97-.702 2.138-1.107 3.323-1.212a7.314 7.314 0 013.492.56 8.04 8.04 0 011.545.881 9 9 0 011.32 1.19 11.247 11.247 0 011.916 2.97c.243.54.447 1.095.616 1.662a14 14 0 01.226.856c.063.288.123.578.167.87.089.582.158 1.167.21 1.754.028.293.048.586.071.88.019.293.042.587.056.88a76.71 76.71 0 01.115 3.528 70.348 70.348 0 01-.044 3.528 68.22 68.22 0 00.021-1.764 96.028 96.028 0 00-.02-1.764 77.136 77.136 0 00-.15-3.523c-.017-.293-.043-.586-.064-.88-.027-.292-.049-.584-.08-.877a27.772 27.772 0 00-.226-1.745 13.623 13.623 0 00-1.022-3.35 11.083 11.083 0 00-1.908-2.92 8.809 8.809 0 00-1.302-1.16 7.85 7.85 0 00-1.516-.855 7.127 7.127 0 00-3.405-.525c-1.152.11-2.248.424-3.184 1.105.507 1.275 1.4 2.349 2.522 3.136a6.845 6.845 0 003.856 1.235c.342.003.684-.021 1.022-.072l.126-.02.126-.025.251-.052c.165-.045.333-.083.494-.14.164-.049.323-.113.482-.174.08-.032.157-.07.235-.104.04-.017.079-.034.117-.053l.115-.058c.076-.04.154-.075.228-.119l.224-.126c.074-.044.145-.09.219-.136a9.854 9.854 0 001.039-.764c.265-.219.522-.451.773-.69.504-.475.984-.977 1.474-1.473.49-.496.988-.988 1.521-1.445.266-.23.543-.446.829-.652a9.19 9.19 0 01.893-.564 9.917 9.917 0 011.946-.813 9.847 9.847 0 012.074-.375 10.273 10.273 0 014.153.571 10.345 10.345 0 013.573 2.19l.052.05-.027.065a11.2 11.2 0 01-.487 1.02 11.03 11.03 0 01-.6.957c-.22.305-.453.601-.704.882-.252.28-.516.548-.795.8a10.604 10.604 0 01-3.885 2.225 10.653 10.653 0 01-4.45.43 10.24 10.24 0 01-4.214-1.468l-.062-.038.055-.046c.628-.535 1.202-1.13 1.787-1.718.585-.585 1.182-1.166 1.859-1.65a7.722 7.722 0 012.219-1.107 8.086 8.086 0 012.447-.366z"/></mask><path d="M89.428 76.949a8.034 8.034 0 00-2.438.397 7.747 7.747 0 00-2.195 1.122c-.667.487-1.256 1.071-1.835 1.661a29.6 29.6 0 01-1.782 1.707c1.269.768 2.702 1.21 4.175 1.37 1.472.165 2.977.006 4.384-.45a10.426 10.426 0 003.807-2.21c1.091-.995 1.99-2.114 2.547-3.481a10.137 10.137 0 00-3.503-2.138 10.051 10.051 0 00-4.064-.552 9.617 9.617 0 00-2.026.371 9.67 9.67 0 00-1.9.797c-.299.169-.59.35-.87.552-.278.202-.55.414-.81.64a24.82 24.82 0 00-1.504 1.436c-.488.495-.972.997-1.482 1.477-.255.24-.515.476-.786.699-.27.224-.55.439-.843.634-.073.05-.146.1-.221.145-.076.046-.15.094-.226.138l-.23.13c-.077.045-.158.081-.236.122l-.119.06-.12.054c-.082.035-.162.073-.244.106-.165.063-.33.13-.499.18-.167.058-.34.097-.511.143l-.26.054-.13.025-.132.02c-.35.053-.705.077-1.059.074a7.051 7.051 0 01-3.977-1.282 7.34 7.34 0 01-2.59-3.28l-.03-.076.065-.047c.97-.702 2.138-1.107 3.323-1.212a7.314 7.314 0 013.492.56 8.04 8.04 0 011.545.881 9 9 0 011.32 1.19 11.247 11.247 0 011.916 2.97c.243.54.447 1.095.616 1.662a14 14 0 01.226.856c.063.288.123.578.167.87.089.582.158 1.167.21 1.754.028.293.048.586.071.88.019.293.042.587.056.88a76.71 76.71 0 01.115 3.528 70.348 70.348 0 01-.044 3.528 68.22 68.22 0 00.021-1.764 96.028 96.028 0 00-.02-1.764 77.136 77.136 0 00-.15-3.523c-.017-.293-.043-.586-.064-.88-.027-.292-.049-.584-.08-.877a27.772 27.772 0 00-.226-1.745 13.623 13.623 0 00-1.022-3.35 11.083 11.083 0 00-1.908-2.92 8.809 8.809 0 00-1.302-1.16 7.85 7.85 0 00-1.516-.855 7.127 7.127 0 00-3.405-.525c-1.152.11-2.248.424-3.184 1.105.507 1.275 1.4 2.349 2.522 3.136a6.845 6.845 0 003.856 1.235c.342.003.684-.021 1.022-.072l.126-.02.126-.025.251-.052c.165-.045.333-.083.494-.14.164-.049.323-.113.482-.174.08-.032.157-.07.235-.104.04-.017.079-.034.117-.053l.115-.058c.076-.04.154-.075.228-.119l.224-.126c.074-.044.145-.09.219-.136a9.854 9.854 0 001.039-.764c.265-.219.522-.451.773-.69.504-.475.984-.977 1.474-1.473.49-.496.988-.988 1.521-1.445.266-.23.543-.446.829-.652a9.19 9.19 0 01.893-.564 9.917 9.917 0 011.946-.813 9.847 9.847 0 012.074-.375 10.273 10.273 0 014.153.571 10.345 10.345 0 013.573 2.19l.052.05-.027.065a11.2 11.2 0 01-.487 1.02 11.03 11.03 0 01-.6.957c-.22.305-.453.601-.704.882-.252.28-.516.548-.795.8a10.604 10.604 0 01-3.885 2.225 10.653 10.653 0 01-4.45.43 10.24 10.24 0 01-4.214-1.468l-.062-.038.055-.046c.628-.535 1.202-1.13 1.787-1.718.585-.585 1.182-1.166 1.859-1.65a7.722 7.722 0 012.219-1.107 8.086 8.086 0 012.447-.366z" fill="#fff"/><path d="M89.428 76.949a8.034 8.034 0 00-2.438.397 7.747 7.747 0 00-2.195 1.122c-.667.487-1.256 1.071-1.835 1.661a29.6 29.6 0 01-1.782 1.707c1.269.768 2.702 1.21 4.175 1.37 1.472.165 2.977.006 4.384-.45a10.426 10.426 0 003.807-2.21c1.091-.995 1.99-2.114 2.547-3.481a10.137 10.137 0 00-3.503-2.138 10.051 10.051 0 00-4.064-.552 9.617 9.617 0 00-2.026.371 9.67 9.67 0 00-1.9.797c-.299.169-.59.35-.87.552-.278.202-.55.414-.81.64a24.82 24.82 0 00-1.504 1.436c-.488.495-.972.997-1.482 1.477-.255.24-.515.476-.786.699-.27.224-.55.439-.843.634-.073.05-.146.1-.221.145-.076.046-.15.094-.226.138l-.23.13c-.077.045-.158.081-.236.122l-.119.06-.12.054c-.082.035-.162.073-.244.106-.165.063-.33.13-.499.18-.167.058-.34.097-.511.143l-.26.054-.13.025-.132.02c-.35.053-.705.077-1.059.074a7.051 7.051 0 01-3.977-1.282 7.34 7.34 0 01-2.59-3.28l-.03-.076.065-.047c.97-.702 2.138-1.107 3.323-1.212a7.314 7.314 0 013.492.56 8.04 8.04 0 011.545.881 9 9 0 011.32 1.19 11.247 11.247 0 011.916 2.97c.243.54.447 1.095.616 1.662a14 14 0 01.226.856c.063.288.123.578.167.87.089.582.158 1.167.21 1.754.028.293.048.586.071.88.019.293.042.587.056.88a76.71 76.71 0 01.115 3.528 70.348 70.348 0 01-.044 3.528 68.22 68.22 0 00.021-1.764 96.028 96.028 0 00-.02-1.764 77.136 77.136 0 00-.15-3.523c-.017-.293-.043-.586-.064-.88-.027-.292-.049-.584-.08-.877a27.772 27.772 0 00-.226-1.745 13.623 13.623 0 00-1.022-3.35 11.083 11.083 0 00-1.908-2.92 8.809 8.809 0 00-1.302-1.16 7.85 7.85 0 00-1.516-.855 7.127 7.127 0 00-3.405-.525c-1.152.11-2.248.424-3.184 1.105.507 1.275 1.4 2.349 2.522 3.136a6.845 6.845 0 003.856 1.235c.342.003.684-.021 1.022-.072l.126-.02.126-.025.251-.052c.165-.045.333-.083.494-.14.164-.049.323-.113.482-.174.08-.032.157-.07.235-.104.04-.017.079-.034.117-.053l.115-.058c.076-.04.154-.075.228-.119l.224-.126c.074-.044.145-.09.219-.136a9.854 9.854 0 001.039-.764c.265-.219.522-.451.773-.69.504-.475.984-.977 1.474-1.473.49-.496.988-.988 1.521-1.445.266-.23.543-.446.829-.652a9.19 9.19 0 01.893-.564 9.917 9.917 0 011.946-.813 9.847 9.847 0 012.074-.375 10.273 10.273 0 014.153.571 10.345 10.345 0 013.573 2.19l.052.05-.027.065a11.2 11.2 0 01-.487 1.02 11.03 11.03 0 01-.6.957c-.22.305-.453.601-.704.882-.252.28-.516.548-.795.8a10.604 10.604 0 01-3.885 2.225 10.653 10.653 0 01-4.45.43 10.24 10.24 0 01-4.214-1.468l-.062-.038.055-.046c.628-.535 1.202-1.13 1.787-1.718.585-.585 1.182-1.166 1.859-1.65a7.722 7.722 0 012.219-1.107 8.086 8.086 0 012.447-.366z" stroke="#fff" stroke-width=".72" mask="url(#path-4-outside-2_91_70)"/><defs><linearGradient id="paint0_linear_91_70" x1="0" y1="18.75" x2="103.376" y2="26.059" gradientUnits="userSpaceOnUse"><stop stop-color="#30C917"/><stop offset="1" stop-color="#279A13"/></linearGradient><linearGradient id="paint1_linear_91_70" x1="64" y1="70.75" x2="101.215" y2="73.381" gradientUnits="userSpaceOnUse"><stop stop-color="#30C917"/><stop offset="1" stop-color="#279A13"/></linearGradient></defs></svg>