<svg width="40" height="40" fill="none" xmlns="http://www.w3.org/2000/svg"><rect width="40" height="40" rx="20" fill="#419FD9"/><rect width="40" height="40" rx="20" fill="url(#paint0_linear_106_42)"/><path d="M8.99 19.556c5.816-2.587 9.694-4.292 11.634-5.117 5.541-2.352 6.692-2.761 7.443-2.775.165-.003.534.04.773.237.202.167.257.393.284.552.026.158.06.52.033.802-.3 3.22-1.6 11.037-2.26 14.645-.28 1.526-.83 2.038-1.364 2.088-1.158.11-2.038-.782-3.16-1.532-1.756-1.176-2.748-1.907-4.453-3.054-1.97-1.326-.693-2.054.43-3.244.294-.312 5.399-5.053 5.497-5.483.013-.053.024-.254-.092-.36-.117-.106-.29-.07-.413-.04-.177.04-2.982 1.933-8.416 5.678-.796.559-1.517.83-2.164.816-.712-.015-2.082-.41-3.1-.749-1.25-.415-2.243-.634-2.157-1.338.045-.367.54-.742 1.484-1.125z" fill="#fff"/><defs><linearGradient id="paint0_linear_106_42" x1="20" y1="0" x2="20" y2="39.703" gradientUnits="userSpaceOnUse"><stop stop-color="#2AABEE"/><stop offset="1" stop-color="#229ED9"/></linearGradient></defs></svg>