<svg width="272" height="223" fill="none" xmlns="http://www.w3.org/2000/svg"><path d="M63.714 95.57C28.582 95.57 0 124.153 0 159.285c0 35.132 28.582 63.714 63.714 63.714s63.715-28.582 63.715-63.714S98.846 95.57 63.714 95.57zm0 111.5c-26.348 0-47.785-21.437-47.785-47.785 0-26.349 21.437-47.786 47.785-47.786 26.349 0 47.786 21.437 47.786 47.786 0 26.348-21.437 47.785-47.786 47.785z" fill="#fff" fill-opacity=".32"/><path d="M63.714 135.395c-13.174 0-23.893 10.718-23.893 23.892 0 13.175 10.719 23.893 23.893 23.893 13.174 0 23.893-10.718 23.893-23.893 0-13.174-10.719-23.892-23.893-23.892zm0 31.857c-4.39 0-7.964-3.574-7.964-7.965 0-4.39 3.573-7.964 7.964-7.964 4.39 0 7.964 3.574 7.964 7.964 0 4.391-3.573 7.965-7.964 7.965z" fill="#fff" fill-opacity=".32"/><path d="M255.919 139.63V111.5c0-17.567-14.29-31.857-31.857-31.857h-15.928V39.82c0-4.39 3.573-7.964 7.964-7.964V15.93c-13.174 0-23.893 10.718-23.893 23.892v39.822h-34.958L138.133 15.93h13.189V0H23.893v15.929h15.929V66.76c-13.459 3.48-26.108 9.864-36.928 18.801l10.142 12.283c14.213-11.737 32.211-18.202 50.679-18.202 43.915 0 79.642 35.727 79.642 79.643v23.893h33.587C180.748 205.75 200.427 223 224.062 223c26.349 0 47.786-21.437 47.786-47.786 0-14.12-6.158-26.827-15.929-35.584zM55.75 64.052V15.93h65.753l19.115 63.714h-24.136c-15.132-10.06-33.276-15.929-52.767-15.929-2.666 0-5.322.116-7.965.338zm79.133 31.52h89.179c8.784 0 15.929 7.144 15.929 15.928v18.662a47.583 47.583 0 00-15.929-2.733h-70.243a95.66 95.66 0 00-18.936-31.858zm23.067 47.785h30.528c-5.901 6.583-10.003 14.807-11.534 23.893h-17.658v-7.964c0-5.426-.46-10.746-1.336-15.929zm66.112 63.714c-17.567 0-31.857-14.29-31.857-31.857s14.29-31.857 31.857-31.857 31.857 14.29 31.857 31.857-14.29 31.857-31.857 31.857z" fill="#fff" fill-opacity=".32"/><path d="M232.026 175.214a7.964 7.964 0 11-15.928 0 7.963 7.963 0 017.964-7.964 7.963 7.963 0 017.964 7.964z" fill="#fff" fill-opacity=".32"/></svg>