<svg width="40" height="40" fill="none" xmlns="http://www.w3.org/2000/svg"><rect width="40" height="40" rx="20" fill="#1DA1F2"/><path d="M29.803 15.68v.625c0 6.468-4.938 13.937-13.938 13.937a14.07 14.07 0 01-7.531-2.187c.375.03.781.062 1.156.062a9.916 9.916 0 006.094-2.094 4.85 4.85 0 01-4.563-3.406c.313.063.594.094.938.094.438 0 .875-.063 1.281-.188a4.864 4.864 0 01-3.937-4.78v-.063a4.814 4.814 0 002.218.625 4.907 4.907 0 01-2.187-4.094c0-.906.25-1.75.656-2.469a13.939 13.939 0 0010.094 5.125c-.094-.344-.125-.75-.125-1.125a4.895 4.895 0 014.906-4.906 4.88 4.88 0 013.563 1.531 9.957 9.957 0 003.125-1.187c-.375 1.156-1.157 2.093-2.157 2.718 1-.125 1.938-.375 2.813-.78a8.954 8.954 0 01-2.406 2.562z" fill="#fff"/></svg>