<svg width="56" height="55" fill="none" xmlns="http://www.w3.org/2000/svg"><path d="M38.915 51.501H42a.875.875 0 00.875-.875V30.501a.875.875 0 00-.875-.875h-1.466a21.076 21.076 0 00-1.887-3 36.104 36.104 0 008.313-14.3l3.79 1.085a1.75 1.75 0 002.159-2.16L50.17 1.664a1.75 1.75 0 00-2.653-.976l-8.248 5.499a1.75 1.75 0 00.188 3.021l3.289 1.644c-1.138 4.385-5.096 8.852-9.493 10.763a20.875 20.875 0 00-5.122-2.41 2.605 2.605 0 00-.59-4.098l1.906-3.428a.905.905 0 00.045-.092 3.937 3.937 0 00-.367-3.548 2.428 2.428 0 00-2-1.163h-10.5a2.427 2.427 0 00-2 1.16 3.937 3.937 0 00-.367 3.549.866.866 0 00.045.091l1.906 3.425a2.605 2.605 0 00-.588 4.098A21.001 21.001 0 005.484 52.376H1.75v1.75h52.5v-1.75H38.26c.229-.284.442-.58.655-.875zm2.21-1.75h-1.75V31.376h1.75v18.375zm3.483-39.208a.875.875 0 00-.467-.95l-3.901-1.95 8.246-5.499 2.74 9.583-4.611-1.318a.876.876 0 00-1.078.59c-2.422 8.05-6.872 14.43-12.53 17.966l-3.844 2.402a.163.163 0 01-.175.006.214.214 0 01-.113-.197v-6.012a.221.221 0 01.138-.21l3.826-1.304c5.624-1.916 10.684-7.551 11.77-13.107zM35 37.501v12.25h-1.75v-12.25H35zm-3.5-.875a9.61 9.61 0 01-.875 3.994v-.494a.875.875 0 00-.875-.875h-3.5a.875.875 0 00-.875.875v5.455a9.625 9.625 0 111.75-17.015v2.61a1.97 1.97 0 001.01 1.727 1.905 1.905 0 001.956-.052l.485-.303a9.62 9.62 0 01.924 4.078zm-2.625 4.375v8.75h-1.75v-8.75h1.75zM16.08 9.011a.755.755 0 01.546-.385h10.5a.755.755 0 01.546.384 2.187 2.187 0 01.22 1.866l-2.155 3.875h-7.721l-2.155-3.875a2.188 2.188 0 01.22-1.866zm1.421 9.24a.875.875 0 110-1.75h8.75a.875.875 0 110 1.75H17.5zm-14.875 21a19.24 19.24 0 0128.512-16.868l-2.687.916a1.963 1.963 0 00-1.325 1.865v1.373a11.375 11.375 0 10-1.75 20.913v3.176a.875.875 0 00.875.875h3.5a.875.875 0 00.875-.875V43.88c.318-.382.61-.784.875-1.204v7.951a.875.875 0 00.875.875h3.5a.875.875 0 00.875-.875v-14a.875.875 0 00-.875-.875h-2.662a11.376 11.376 0 00-1.131-4.144l1.853-1.158a25.101 25.101 0 003.442-2.606c.42.573.81 1.168 1.165 1.783H38.5a.875.875 0 00-.875.875v19.804a19.342 19.342 0 01-1.684 2.071H7.812a19.136 19.136 0 01-5.187-13.125z" fill="#fff"/><mask id="path-2-outside-1_300_112" maskUnits="userSpaceOnUse" x="13" y="32" width="17" height="13" fill="#000"><path fill="#fff" d="M13 32h17v13H13z"/><path d="M25.4 34.425a4.367 4.367 0 00-1.28.2c-.413.13-.805.32-1.153.568-.35.246-.66.541-.964.84-.303.299-.606.587-.936.862a5.478 5.478 0 002.192.693 5.716 5.716 0 002.302-.228 5.53 5.53 0 002-1.116c.573-.504 1.045-1.07 1.337-1.76a5.363 5.363 0 00-3.974-1.36 5.19 5.19 0 00-2.061.59 5.618 5.618 0 00-.882.604c-.275.227-.534.474-.79.725-.256.25-.51.504-.778.746-.134.122-.27.24-.413.353a5.27 5.27 0 01-.442.321c-.039.025-.077.05-.117.073-.04.024-.078.048-.118.07l-.121.066c-.04.023-.083.04-.124.061l-.062.03c-.02.01-.043.019-.064.028-.042.018-.084.037-.127.054-.087.032-.173.065-.262.09-.088.03-.18.05-.269.073l-.136.027-.069.013-.069.01a3.832 3.832 0 01-2.166-.337 3.735 3.735 0 01-1.838-1.932L14 34.751l.034-.023a3.6 3.6 0 011.745-.613 3.977 3.977 0 012.645.728c.252.177.482.381.693.601.419.444.752.957 1.006 1.502a6.453 6.453 0 01.442 1.272c.034.146.065.292.088.44.047.294.083.59.11.886.015.148.025.297.038.445l.03.445A37.195 37.195 0 0120.866 44a33.11 33.11 0 000-1.783 37.66 37.66 0 00-.078-1.78c-.009-.149-.022-.296-.034-.445-.014-.148-.025-.296-.042-.443-.03-.295-.07-.59-.118-.882a6.658 6.658 0 00-.537-1.693 5.588 5.588 0 00-1.002-1.477 4.577 4.577 0 00-.684-.586 4.169 4.169 0 00-.796-.431 3.875 3.875 0 00-1.787-.266c-.605.056-1.18.214-1.672.558a3.576 3.576 0 001.324 1.586 3.68 3.68 0 002.561.587l.067-.01.066-.013.132-.026c.086-.023.174-.041.259-.07.086-.025.17-.058.253-.089.042-.016.082-.035.123-.052.021-.009.042-.017.062-.027l.06-.03c.04-.02.081-.037.12-.06l.117-.063c.04-.022.077-.046.115-.069.039-.022.076-.047.113-.071.15-.097.294-.203.433-.315.14-.11.274-.228.406-.348.265-.24.517-.494.774-.745.257-.25.519-.5.799-.73.139-.116.285-.226.435-.33.15-.104.308-.198.469-.285a5.31 5.31 0 012.11-.6 5.588 5.588 0 012.181.288c.696.24 1.338.62 1.876 1.107l.028.025-.014.033a5.534 5.534 0 01-.256.515c-.097.167-.2.329-.315.484a5.54 5.54 0 01-.37.446 5.699 5.699 0 01-.417.405 5.625 5.625 0 01-2.04 1.124 5.803 5.803 0 01-2.337.218 5.515 5.515 0 01-2.213-.742l-.032-.02.029-.023c.33-.27.631-.572.938-.868.307-.296.621-.59.976-.834a4.12 4.12 0 011.165-.56 4.376 4.376 0 011.285-.185z"/></mask><path d="M25.4 34.425a4.367 4.367 0 00-1.28.2c-.413.13-.805.32-1.153.568-.35.246-.66.541-.964.84-.303.299-.606.587-.936.862a5.478 5.478 0 002.192.693 5.716 5.716 0 002.302-.228 5.53 5.53 0 002-1.116c.573-.504 1.045-1.07 1.337-1.76a5.363 5.363 0 00-3.974-1.36 5.19 5.19 0 00-2.061.59 5.618 5.618 0 00-.882.604c-.275.227-.534.474-.79.725-.256.25-.51.504-.778.746-.134.122-.27.24-.413.353a5.27 5.27 0 01-.442.321c-.039.025-.077.05-.117.073-.04.024-.078.048-.118.07l-.121.066c-.04.023-.083.04-.124.061l-.062.03c-.02.01-.043.019-.064.028-.042.018-.084.037-.127.054-.087.032-.173.065-.262.09-.088.03-.18.05-.269.073l-.136.027-.069.013-.069.01a3.832 3.832 0 01-2.166-.337 3.735 3.735 0 01-1.838-1.932L14 34.751l.034-.023a3.6 3.6 0 011.745-.613 3.977 3.977 0 012.645.728c.252.177.482.381.693.601.419.444.752.957 1.006 1.502a6.453 6.453 0 01.442 1.272c.034.146.065.292.088.44.047.294.083.59.11.886.015.148.025.297.038.445l.03.445A37.195 37.195 0 0120.866 44a33.11 33.11 0 000-1.783 37.66 37.66 0 00-.078-1.78c-.009-.149-.022-.296-.034-.445-.014-.148-.025-.296-.042-.443-.03-.295-.07-.59-.118-.882a6.658 6.658 0 00-.537-1.693 5.588 5.588 0 00-1.002-1.477 4.577 4.577 0 00-.684-.586 4.169 4.169 0 00-.796-.431 3.875 3.875 0 00-1.787-.266c-.605.056-1.18.214-1.672.558a3.576 3.576 0 001.324 1.586 3.68 3.68 0 002.561.587l.067-.01.066-.013.132-.026c.086-.023.174-.041.259-.07.086-.025.17-.058.253-.089.042-.016.082-.035.123-.052.021-.009.042-.017.062-.027l.06-.03c.04-.02.081-.037.12-.06l.117-.063c.04-.022.077-.046.115-.069.039-.022.076-.047.113-.071.15-.097.294-.203.433-.315.14-.11.274-.228.406-.348.265-.24.517-.494.774-.745.257-.25.519-.5.799-.73.139-.116.285-.226.435-.33.15-.104.308-.198.469-.285a5.31 5.31 0 012.11-.6 5.588 5.588 0 012.181.288c.696.24 1.338.62 1.876 1.107l.028.025-.014.033a5.534 5.534 0 01-.256.515c-.097.167-.2.329-.315.484a5.54 5.54 0 01-.37.446 5.699 5.699 0 01-.417.405 5.625 5.625 0 01-2.04 1.124 5.803 5.803 0 01-2.337.218 5.515 5.515 0 01-2.213-.742l-.032-.02.029-.023c.33-.27.631-.572.938-.868.307-.296.621-.59.976-.834a4.12 4.12 0 011.165-.56 4.376 4.376 0 011.285-.185z" fill="#fff"/><path d="M25.4 34.425a4.367 4.367 0 00-1.28.2c-.413.13-.805.32-1.153.568-.35.246-.66.541-.964.84-.303.299-.606.587-.936.862a5.478 5.478 0 002.192.693 5.716 5.716 0 002.302-.228 5.53 5.53 0 002-1.116c.573-.504 1.045-1.07 1.337-1.76a5.363 5.363 0 00-3.974-1.36 5.19 5.19 0 00-2.061.59 5.618 5.618 0 00-.882.604c-.275.227-.534.474-.79.725-.256.25-.51.504-.778.746-.134.122-.27.24-.413.353a5.27 5.27 0 01-.442.321c-.039.025-.077.05-.117.073-.04.024-.078.048-.118.07l-.121.066c-.04.023-.083.04-.124.061l-.062.03c-.02.01-.043.019-.064.028-.042.018-.084.037-.127.054-.087.032-.173.065-.262.09-.088.03-.18.05-.269.073l-.136.027-.069.013-.069.01a3.832 3.832 0 01-2.166-.337 3.735 3.735 0 01-1.838-1.932L14 34.751l.034-.023a3.6 3.6 0 011.745-.613 3.977 3.977 0 012.645.728c.252.177.482.381.693.601.419.444.752.957 1.006 1.502a6.453 6.453 0 01.442 1.272c.034.146.065.292.088.44.047.294.083.59.11.886.015.148.025.297.038.445l.03.445A37.195 37.195 0 0120.866 44a33.11 33.11 0 000-1.783 37.66 37.66 0 00-.078-1.78c-.009-.149-.022-.296-.034-.445-.014-.148-.025-.296-.042-.443-.03-.295-.07-.59-.118-.882a6.658 6.658 0 00-.537-1.693 5.588 5.588 0 00-1.002-1.477 4.577 4.577 0 00-.684-.586 4.169 4.169 0 00-.796-.431 3.875 3.875 0 00-1.787-.266c-.605.056-1.18.214-1.672.558a3.576 3.576 0 001.324 1.586 3.68 3.68 0 002.561.587l.067-.01.066-.013.132-.026c.086-.023.174-.041.259-.07.086-.025.17-.058.253-.089.042-.016.082-.035.123-.052.021-.009.042-.017.062-.027l.06-.03c.04-.02.081-.037.12-.06l.117-.063c.04-.022.077-.046.115-.069.039-.022.076-.047.113-.071.15-.097.294-.203.433-.315.14-.11.274-.228.406-.348.265-.24.517-.494.774-.745.257-.25.519-.5.799-.73.139-.116.285-.226.435-.33.15-.104.308-.198.469-.285a5.31 5.31 0 012.11-.6 5.588 5.588 0 012.181.288c.696.24 1.338.62 1.876 1.107l.028.025-.014.033a5.534 5.534 0 01-.256.515c-.097.167-.2.329-.315.484a5.54 5.54 0 01-.37.446 5.699 5.699 0 01-.417.405 5.625 5.625 0 01-2.04 1.124 5.803 5.803 0 01-2.337.218 5.515 5.515 0 01-2.213-.742l-.032-.02.029-.023c.33-.27.631-.572.938-.868.307-.296.621-.59.976-.834a4.12 4.12 0 011.165-.56 4.376 4.376 0 011.285-.185z" stroke="#fff" stroke-width=".68" mask="url(#path-2-outside-1_300_112)"/><path d="M44.625 23.5a.875.875 0 00-.875.875v26.25a.875.875 0 00.875.875h3.5a.875.875 0 00.875-.875v-26.25a.875.875 0 00-.875-.875h-3.5zm2.625 26.25H45.5v-24.5h1.75v24.5zm7-31.5h-3.5a.875.875 0 00-.875.875v31.5a.875.875 0 00.875.875h3.5a.875.875 0 00.875-.875v-31.5a.875.875 0 00-.875-.875zm-.875 31.5h-1.75V20h1.75v29.75z" fill="#fff"/></svg>