<svg width="56" height="56" fill="none" xmlns="http://www.w3.org/2000/svg"><path d="M28 0C12.583 0 0 12.584 0 28c0 15.417 12.584 28 28 28 15.417 0 28-12.584 28-28C56 12.583 43.416 0 28 0zm0 52.719C14.37 52.719 3.281 41.63 3.281 28S14.37 3.281 28 3.281 52.719 14.37 52.719 28 41.63 52.719 28 52.719z" fill="#fff"/><path d="M28 6.563C16.227 6.563 6.562 16.226 6.562 28c0 11.773 9.664 21.438 21.438 21.438 11.773 0 21.438-9.664 21.438-21.438 0-11.773-9.664-21.438-21.438-21.438zm0 39.593C17.989 46.156 9.844 38.011 9.844 28S17.989 9.844 28 9.844 46.156 17.989 46.156 28 38.011 46.156 28 46.156z" fill="#fff"/><mask id="path-3-outside-1_300_144" maskUnits="userSpaceOnUse" x="14" y="19" width="29" height="23" fill="#000"><path fill="#fff" d="M14 19h29v23H14z"/><path d="M35.519 22.72a7.491 7.491 0 00-2.304.383 7.27 7.27 0 00-2.075 1.083c-.63.47-1.187 1.034-1.734 1.603a28.231 28.231 0 01-1.685 1.647c1.2.741 2.554 1.168 3.946 1.323a9.729 9.729 0 004.144-.435 9.81 9.81 0 003.598-2.132c1.031-.96 1.881-2.04 2.407-3.36a9.548 9.548 0 00-3.31-2.063 9.32 9.32 0 00-3.842-.531 8.918 8.918 0 00-3.71 1.126 8.606 8.606 0 00-.822.533c-.263.195-.52.4-.767.618-.495.435-.96.907-1.42 1.385-.462.477-.92.962-1.401 1.425-.241.232-.487.459-.743.674-.256.217-.52.424-.797.613-.07.048-.138.096-.21.14-.07.044-.14.09-.213.133l-.218.125c-.072.043-.148.078-.222.117l-.112.058c-.038.019-.077.035-.115.053-.077.033-.152.07-.23.102-.156.061-.311.125-.471.173-.158.057-.322.094-.483.139l-.246.051-.124.025-.124.02c-.33.05-.666.073-1 .07a6.542 6.542 0 01-3.76-1.237 7.06 7.06 0 01-2.448-3.165L15 23.343l.061-.045a6.246 6.246 0 013.142-1.17 6.787 6.787 0 013.3.54 7.56 7.56 0 011.46.851c.454.338.868.727 1.247 1.148a10.88 10.88 0 011.812 2.867 12.983 12.983 0 01.795 2.428c.06.278.116.558.159.84.083.562.148 1.126.197 1.692.028.282.046.566.068.849.018.283.04.566.053.85A75.721 75.721 0 0127.361 41c.014-.567.02-1.135.02-1.702a96.546 96.546 0 00-.019-1.701 76.196 76.196 0 00-.141-3.4c-.017-.283-.041-.565-.061-.848-.026-.282-.046-.565-.077-.847a27.227 27.227 0 00-.213-1.684 13.37 13.37 0 00-.966-3.232 10.718 10.718 0 00-1.803-2.818 8.395 8.395 0 00-1.23-1.12 7.378 7.378 0 00-1.433-.823 6.612 6.612 0 00-3.219-.507c-1.089.106-2.124.409-3.009 1.066.48 1.23 1.323 2.266 2.384 3.026a6.387 6.387 0 001.734.878 6.327 6.327 0 001.91.314c.323.002.647-.021.966-.07l.12-.02.119-.024.237-.05c.156-.043.314-.08.467-.134.155-.048.304-.11.456-.169.074-.031.147-.067.222-.1.036-.017.074-.032.11-.051l.108-.056c.072-.038.146-.073.216-.115l.211-.122c.07-.042.138-.087.208-.13a9.334 9.334 0 00.982-.737c.25-.212.493-.436.73-.666.477-.459.93-.944 1.394-1.422a23.64 23.64 0 011.437-1.394c.251-.221.514-.43.783-.63.27-.198.554-.378.845-.544a9.13 9.13 0 013.8-1.145 9.526 9.526 0 013.925.55 9.744 9.744 0 013.376 2.113l.05.048-.026.063c-.137.335-.29.664-.46.984a10.47 10.47 0 01-.567.923c-.208.295-.429.581-.665.852a9.972 9.972 0 01-4.424 2.919 9.875 9.875 0 01-4.206.415 9.549 9.549 0 01-3.983-1.417l-.058-.037.052-.044c.593-.516 1.136-1.091 1.688-1.658.553-.564 1.118-1.125 1.758-1.592a7.243 7.243 0 012.097-1.068 7.523 7.523 0 012.313-.353z"/></mask><path d="M35.519 22.72a7.491 7.491 0 00-2.304.383 7.27 7.27 0 00-2.075 1.083c-.63.47-1.187 1.034-1.734 1.603a28.231 28.231 0 01-1.685 1.647c1.2.741 2.554 1.168 3.946 1.323a9.729 9.729 0 004.144-.435 9.81 9.81 0 003.598-2.132c1.031-.96 1.881-2.04 2.407-3.36a9.548 9.548 0 00-3.31-2.063 9.32 9.32 0 00-3.842-.531 8.918 8.918 0 00-3.71 1.126 8.606 8.606 0 00-.822.533c-.263.195-.52.4-.767.618-.495.435-.96.907-1.42 1.385-.462.477-.92.962-1.401 1.425-.241.232-.487.459-.743.674-.256.217-.52.424-.797.613-.07.048-.138.096-.21.14-.07.044-.14.09-.213.133l-.218.125c-.072.043-.148.078-.222.117l-.112.058c-.038.019-.077.035-.115.053-.077.033-.152.07-.23.102-.156.061-.311.125-.471.173-.158.057-.322.094-.483.139l-.246.051-.124.025-.124.02c-.33.05-.666.073-1 .07a6.542 6.542 0 01-3.76-1.237 7.06 7.06 0 01-2.448-3.165L15 23.343l.061-.045a6.246 6.246 0 013.142-1.17 6.787 6.787 0 013.3.54 7.56 7.56 0 011.46.851c.454.338.868.727 1.247 1.148a10.88 10.88 0 011.812 2.867 12.983 12.983 0 01.795 2.428c.06.278.116.558.159.84.083.562.148 1.126.197 1.692.028.282.046.566.068.849.018.283.04.566.053.85A75.721 75.721 0 0127.361 41c.014-.567.02-1.135.02-1.702a96.546 96.546 0 00-.019-1.701 76.196 76.196 0 00-.141-3.4c-.017-.283-.041-.565-.061-.848-.026-.282-.046-.565-.077-.847a27.227 27.227 0 00-.213-1.684 13.37 13.37 0 00-.966-3.232 10.718 10.718 0 00-1.803-2.818 8.395 8.395 0 00-1.23-1.12 7.378 7.378 0 00-1.433-.823 6.612 6.612 0 00-3.219-.507c-1.089.106-2.124.409-3.009 1.066.48 1.23 1.323 2.266 2.384 3.026a6.387 6.387 0 001.734.878 6.327 6.327 0 001.91.314c.323.002.647-.021.966-.07l.12-.02.119-.024.237-.05c.156-.043.314-.08.467-.134.155-.048.304-.11.456-.169.074-.031.147-.067.222-.1.036-.017.074-.032.11-.051l.108-.056c.072-.038.146-.073.216-.115l.211-.122c.07-.042.138-.087.208-.13a9.334 9.334 0 00.982-.737c.25-.212.493-.436.73-.666.477-.459.93-.944 1.394-1.422a23.64 23.64 0 011.437-1.394c.251-.221.514-.43.783-.63.27-.198.554-.378.845-.544a9.13 9.13 0 013.8-1.145 9.526 9.526 0 013.925.55 9.744 9.744 0 013.376 2.113l.05.048-.026.063c-.137.335-.29.664-.46.984a10.47 10.47 0 01-.567.923c-.208.295-.429.581-.665.852a9.972 9.972 0 01-4.424 2.919 9.875 9.875 0 01-4.206.415 9.549 9.549 0 01-3.983-1.417l-.058-.037.052-.044c.593-.516 1.136-1.091 1.688-1.658.553-.564 1.118-1.125 1.758-1.592a7.243 7.243 0 012.097-1.068 7.523 7.523 0 012.313-.353z" fill="#fff"/><path d="M35.519 22.72a7.491 7.491 0 00-2.304.383 7.27 7.27 0 00-2.075 1.083c-.63.47-1.187 1.034-1.734 1.603a28.231 28.231 0 01-1.685 1.647c1.2.741 2.554 1.168 3.946 1.323a9.729 9.729 0 004.144-.435 9.81 9.81 0 003.598-2.132c1.031-.96 1.881-2.04 2.407-3.36a9.548 9.548 0 00-3.31-2.063 9.32 9.32 0 00-3.842-.531 8.918 8.918 0 00-3.71 1.126 8.606 8.606 0 00-.822.533c-.263.195-.52.4-.767.618-.495.435-.96.907-1.42 1.385-.462.477-.92.962-1.401 1.425-.241.232-.487.459-.743.674-.256.217-.52.424-.797.613-.07.048-.138.096-.21.14-.07.044-.14.09-.213.133l-.218.125c-.072.043-.148.078-.222.117l-.112.058c-.038.019-.077.035-.115.053-.077.033-.152.07-.23.102-.156.061-.311.125-.471.173-.158.057-.322.094-.483.139l-.246.051-.124.025-.124.02c-.33.05-.666.073-1 .07a6.542 6.542 0 01-3.76-1.237 7.06 7.06 0 01-2.448-3.165L15 23.343l.061-.045a6.246 6.246 0 013.142-1.17 6.787 6.787 0 013.3.54 7.56 7.56 0 011.46.851c.454.338.868.727 1.247 1.148a10.88 10.88 0 011.812 2.867 12.983 12.983 0 01.795 2.428c.06.278.116.558.159.84.083.562.148 1.126.197 1.692.028.282.046.566.068.849.018.283.04.566.053.85A75.721 75.721 0 0127.361 41c.014-.567.02-1.135.02-1.702a96.546 96.546 0 00-.019-1.701 76.196 76.196 0 00-.141-3.4c-.017-.283-.041-.565-.061-.848-.026-.282-.046-.565-.077-.847a27.227 27.227 0 00-.213-1.684 13.37 13.37 0 00-.966-3.232 10.718 10.718 0 00-1.803-2.818 8.395 8.395 0 00-1.23-1.12 7.378 7.378 0 00-1.433-.823 6.612 6.612 0 00-3.219-.507c-1.089.106-2.124.409-3.009 1.066.48 1.23 1.323 2.266 2.384 3.026a6.387 6.387 0 001.734.878 6.327 6.327 0 001.91.314c.323.002.647-.021.966-.07l.12-.02.119-.024.237-.05c.156-.043.314-.08.467-.134.155-.048.304-.11.456-.169.074-.031.147-.067.222-.1.036-.017.074-.032.11-.051l.108-.056c.072-.038.146-.073.216-.115l.211-.122c.07-.042.138-.087.208-.13a9.334 9.334 0 00.982-.737c.25-.212.493-.436.73-.666.477-.459.93-.944 1.394-1.422a23.64 23.64 0 011.437-1.394c.251-.221.514-.43.783-.63.27-.198.554-.378.845-.544a9.13 9.13 0 013.8-1.145 9.526 9.526 0 013.925.55 9.744 9.744 0 013.376 2.113l.05.048-.026.063c-.137.335-.29.664-.46.984a10.47 10.47 0 01-.567.923c-.208.295-.429.581-.665.852a9.972 9.972 0 01-4.424 2.919 9.875 9.875 0 01-4.206.415 9.549 9.549 0 01-3.983-1.417l-.058-.037.052-.044c.593-.516 1.136-1.091 1.688-1.658.553-.564 1.118-1.125 1.758-1.592a7.243 7.243 0 012.097-1.068 7.523 7.523 0 012.313-.353z" stroke="#fff" stroke-width=".76" mask="url(#path-3-outside-1_300_144)"/></svg>