<svg width="56" height="56" fill="none" xmlns="http://www.w3.org/2000/svg"><path d="M53.2 20.534H36.4V14h2.287a1.867 1.867 0 001.278-3.234c-1.62-1.502-4.138-3.943-6.36-6.1-1.86-1.802-3.467-3.36-4.338-4.168a1.867 1.867 0 00-2.547.014L16.044 10.767a1.867 1.867 0 001.27 3.234H19.6v8.652a16.792 16.792 0 1010.296 27.044 2.78 2.78 0 001.838.703h.171a2.77 2.77 0 00-.171.934V53.2a2.8 2.8 0 002.8 2.8H53.2a2.8 2.8 0 002.8-2.8v-1.866a2.8 2.8 0 00-2.8-2.8h-.172c.111-.3.17-.615.172-.934v-1.866a2.786 2.786 0 00-.205-1.042 2.8 2.8 0 002.072-2.691v-1.867a2.794 2.794 0 00-1.307-2.36c.242-.418.37-.891.374-1.373v-1.867a2.794 2.794 0 00-1.307-2.36c.242-.418.37-.891.373-1.373v-1.867a2.767 2.767 0 00-.172-.934h.172a2.8 2.8 0 002.8-2.8v-1.866a2.8 2.8 0 00-2.8-2.8zm-33.6-8.4l-2.275-.01L28 1.867c.853.792 2.53 2.417 4.307 4.14 2.227 2.163 4.753 4.612 6.38 6.127H36.4A1.867 1.867 0 0034.534 14v6.533a2.8 2.8 0 00-2.8 2.8V25.2c.003.318.06.634.171.933h-.171a2.8 2.8 0 00-2.582 1.718 16.807 16.807 0 00-7.685-4.779V14a1.867 1.867 0 00-1.867-1.867zM51.334 33.6c.515 0 .933.418.933.934V36.4a.933.933 0 01-.933.933H33.49a16.613 16.613 0 00-.87-3.734h18.714zM16.8 50.4c-6.185 0-11.2-5.014-11.2-11.2 0-6.185 5.015-11.2 11.2-11.2C22.986 28 28 33.015 28 39.2c-.006 6.183-5.017 11.194-11.2 11.2zm8.544-21.063a12.99 12.99 0 00-7.61-3.156v-1.866a14.854 14.854 0 018.93 3.702l-1.32 1.32zm-9.477-3.156a12.991 12.991 0 00-7.61 3.156l-1.32-1.32a14.854 14.854 0 018.93-3.702v1.866zm-8.93 4.476a12.991 12.991 0 00-3.156 7.61H1.915a14.854 14.854 0 013.702-8.93l1.32 1.32zM3.78 40.134a12.99 12.99 0 003.156 7.61l-1.32 1.32a14.854 14.854 0 01-3.702-8.93H3.78zm4.48 8.93a12.991 12.991 0 007.606 3.155v1.867a14.854 14.854 0 01-8.93-3.702l1.324-1.32zm9.473 3.155a12.99 12.99 0 007.61-3.155l1.32 1.32a14.854 14.854 0 01-8.93 3.702V52.22zm8.93-4.475a12.99 12.99 0 003.155-7.61h1.867a14.854 14.854 0 01-3.703 8.93l-1.32-1.32zm5.022-9.477h-1.867a12.991 12.991 0 00-3.155-7.61l1.32-1.32a14.854 14.854 0 013.702 8.93zm22.448 13.067V53.2a.933.933 0 01-.934.934H34.534a.933.933 0 01-.934-.934v-1.866c0-.516.418-.934.934-.934H53.2c.516 0 .934.418.934.934zm-19.6-2.8h-2.8a.92.92 0 01-.747-.383 16.758 16.758 0 001.633-3.35H50.4c.516 0 .934.417.934.933V47.6a.933.933 0 01-.934.934H34.534zM53.2 42a.933.933 0 01-.933.933h-19.1c.284-1.224.43-2.477.433-3.733h18.667c.515 0 .933.417.933.933V42zm-1.866-13.067V30.8a.933.933 0 01-.934.934H31.827a16.594 16.594 0 00-1.027-1.8v-1c0-.516.418-.934.934-.934H50.4c.516 0 .934.418.934.934zm2.8-3.733a.933.933 0 01-.934.933H34.534a.933.933 0 01-.934-.933v-1.867c0-.516.418-.933.934-.933H53.2c.516 0 .934.417.934.933V25.2z" fill="#fff"/><mask id="path-2-outside-1_300_124" maskUnits="userSpaceOnUse" x="7" y="33" width="19" height="15" fill="#000"><path fill="#fff" d="M7 33h19v15H7z"/><path d="M20.92 35.684a4.773 4.773 0 00-1.45.237 4.605 4.605 0 00-1.308.67c-.397.292-.747.64-1.092.993-.343.353-.687.694-1.06 1.02a6.03 6.03 0 002.484.818 6.223 6.223 0 004.875-1.589c.649-.594 1.184-1.263 1.515-2.08a6.035 6.035 0 00-2.084-1.277 5.959 5.959 0 00-2.419-.329 5.701 5.701 0 00-2.336.698 5.21 5.21 0 00-.518.33 7.02 7.02 0 00-.482.382c-.312.27-.605.561-.895.857-.29.296-.579.596-.882.883a9.367 9.367 0 01-.468.417 5.984 5.984 0 01-.633.465c-.045.028-.089.057-.134.083l-.138.078c-.045.026-.093.048-.14.072l-.07.036-.072.032c-.049.021-.096.044-.145.064-.098.038-.196.077-.297.107-.1.035-.203.058-.304.086l-.155.032-.078.015-.078.012c-.208.031-.42.046-.63.044a4.182 4.182 0 01-2.367-.766 4.38 4.38 0 01-1.542-1.96L8 36.07l.039-.028a3.974 3.974 0 011.978-.724 4.339 4.339 0 012.077.334c.326.14.633.319.92.526.285.21.547.45.785.711a6.717 6.717 0 011.14 1.775c.145.321.267.653.367.992.051.168.094.34.135.51.037.173.073.346.1.52.052.349.093.698.123 1.048.018.175.03.35.043.526.012.175.025.35.034.526A45.839 45.839 0 0115.783 47a40.657 40.657 0 000-2.107 46.47 46.47 0 00-.089-2.104c-.01-.175-.025-.35-.038-.525-.016-.175-.029-.35-.048-.525a16.6 16.6 0 00-.134-1.042 8.16 8.16 0 00-.608-2 6.622 6.622 0 00-1.136-1.746 5.252 5.252 0 00-.775-.693 4.668 4.668 0 00-.902-.51 4.228 4.228 0 00-2.026-.313c-.686.065-1.338.253-1.895.66a4.19 4.19 0 001.501 1.873 4.07 4.07 0 002.294.738c.204.002.408-.013.609-.044l.075-.011.075-.015.15-.031c.098-.027.197-.05.293-.084.098-.03.192-.068.287-.104l.14-.062c.023-.01.047-.02.07-.032l.068-.034c.045-.024.092-.045.136-.071l.133-.076.13-.08c.044-.027.086-.056.128-.085.17-.114.333-.24.49-.372.159-.13.311-.27.46-.412.3-.284.586-.584.878-.88.291-.297.588-.59.905-.863.158-.137.323-.267.493-.39.17-.123.349-.234.532-.337a5.835 5.835 0 012.393-.71 6.093 6.093 0 012.47.342 6.15 6.15 0 012.127 1.308l.031.03-.016.039a6.678 6.678 0 01-.29.608c-.11.197-.228.388-.357.572a6.47 6.47 0 01-.419.528 6.304 6.304 0 01-5.433 2.064 6.08 6.08 0 01-2.508-.878l-.037-.022.033-.028c.373-.32.715-.675 1.063-1.026.348-.35.704-.697 1.106-.986a4.57 4.57 0 011.321-.66 4.788 4.788 0 011.456-.22z"/></mask><path d="M20.92 35.684a4.773 4.773 0 00-1.45.237 4.605 4.605 0 00-1.308.67c-.397.292-.747.64-1.092.993-.343.353-.687.694-1.06 1.02a6.03 6.03 0 002.484.818 6.223 6.223 0 004.875-1.589c.649-.594 1.184-1.263 1.515-2.08a6.035 6.035 0 00-2.084-1.277 5.959 5.959 0 00-2.419-.329 5.701 5.701 0 00-2.336.698 5.21 5.21 0 00-.518.33 7.02 7.02 0 00-.482.382c-.312.27-.605.561-.895.857-.29.296-.579.596-.882.883a9.367 9.367 0 01-.468.417 5.984 5.984 0 01-.633.465c-.045.028-.089.057-.134.083l-.138.078c-.045.026-.093.048-.14.072l-.07.036-.072.032c-.049.021-.096.044-.145.064-.098.038-.196.077-.297.107-.1.035-.203.058-.304.086l-.155.032-.078.015-.078.012c-.208.031-.42.046-.63.044a4.182 4.182 0 01-2.367-.766 4.38 4.38 0 01-1.542-1.96L8 36.07l.039-.028a3.974 3.974 0 011.978-.724 4.339 4.339 0 012.077.334c.326.14.633.319.92.526.285.21.547.45.785.711a6.717 6.717 0 011.14 1.775c.145.321.267.653.367.992.051.168.094.34.135.51.037.173.073.346.1.52.052.349.093.698.123 1.048.018.175.03.35.043.526.012.175.025.35.034.526A45.839 45.839 0 0115.783 47a40.657 40.657 0 000-2.107 46.47 46.47 0 00-.089-2.104c-.01-.175-.025-.35-.038-.525-.016-.175-.029-.35-.048-.525a16.6 16.6 0 00-.134-1.042 8.16 8.16 0 00-.608-2 6.622 6.622 0 00-1.136-1.746 5.252 5.252 0 00-.775-.693 4.668 4.668 0 00-.902-.51 4.228 4.228 0 00-2.026-.313c-.686.065-1.338.253-1.895.66a4.19 4.19 0 001.501 1.873 4.07 4.07 0 002.294.738c.204.002.408-.013.609-.044l.075-.011.075-.015.15-.031c.098-.027.197-.05.293-.084.098-.03.192-.068.287-.104l.14-.062c.023-.01.047-.02.07-.032l.068-.034c.045-.024.092-.045.136-.071l.133-.076.13-.08c.044-.027.086-.056.128-.085.17-.114.333-.24.49-.372.159-.13.311-.27.46-.412.3-.284.586-.584.878-.88.291-.297.588-.59.905-.863.158-.137.323-.267.493-.39.17-.123.349-.234.532-.337a5.835 5.835 0 012.393-.71 6.093 6.093 0 012.47.342 6.15 6.15 0 012.127 1.308l.031.03-.016.039a6.678 6.678 0 01-.29.608c-.11.197-.228.388-.357.572a6.47 6.47 0 01-.419.528 6.304 6.304 0 01-5.433 2.064 6.08 6.08 0 01-2.508-.878l-.037-.022.033-.028c.373-.32.715-.675 1.063-1.026.348-.35.704-.697 1.106-.986a4.57 4.57 0 011.321-.66 4.788 4.788 0 011.456-.22z" fill="#fff"/><path d="M20.92 35.684a4.773 4.773 0 00-1.45.237 4.605 4.605 0 00-1.308.67c-.397.292-.747.64-1.092.993-.343.353-.687.694-1.06 1.02a6.03 6.03 0 002.484.818 6.223 6.223 0 004.875-1.589c.649-.594 1.184-1.263 1.515-2.08a6.035 6.035 0 00-2.084-1.277 5.959 5.959 0 00-2.419-.329 5.701 5.701 0 00-2.336.698 5.21 5.21 0 00-.518.33 7.02 7.02 0 00-.482.382c-.312.27-.605.561-.895.857-.29.296-.579.596-.882.883a9.367 9.367 0 01-.468.417 5.984 5.984 0 01-.633.465c-.045.028-.089.057-.134.083l-.138.078c-.045.026-.093.048-.14.072l-.07.036-.072.032c-.049.021-.096.044-.145.064-.098.038-.196.077-.297.107-.1.035-.203.058-.304.086l-.155.032-.078.015-.078.012c-.208.031-.42.046-.63.044a4.182 4.182 0 01-2.367-.766 4.38 4.38 0 01-1.542-1.96L8 36.07l.039-.028a3.974 3.974 0 011.978-.724 4.339 4.339 0 012.077.334c.326.14.633.319.92.526.285.21.547.45.785.711a6.717 6.717 0 011.14 1.775c.145.321.267.653.367.992.051.168.094.34.135.51.037.173.073.346.1.52.052.349.093.698.123 1.048.018.175.03.35.043.526.012.175.025.35.034.526A45.839 45.839 0 0115.783 47a40.657 40.657 0 000-2.107 46.47 46.47 0 00-.089-2.104c-.01-.175-.025-.35-.038-.525-.016-.175-.029-.35-.048-.525a16.6 16.6 0 00-.134-1.042 8.16 8.16 0 00-.608-2 6.622 6.622 0 00-1.136-1.746 5.252 5.252 0 00-.775-.693 4.668 4.668 0 00-.902-.51 4.228 4.228 0 00-2.026-.313c-.686.065-1.338.253-1.895.66a4.19 4.19 0 001.501 1.873 4.07 4.07 0 002.294.738c.204.002.408-.013.609-.044l.075-.011.075-.015.15-.031c.098-.027.197-.05.293-.084.098-.03.192-.068.287-.104l.14-.062c.023-.01.047-.02.07-.032l.068-.034c.045-.024.092-.045.136-.071l.133-.076.13-.08c.044-.027.086-.056.128-.085.17-.114.333-.24.49-.372.159-.13.311-.27.46-.412.3-.284.586-.584.878-.88.291-.297.588-.59.905-.863.158-.137.323-.267.493-.39.17-.123.349-.234.532-.337a5.835 5.835 0 012.393-.71 6.093 6.093 0 012.47.342 6.15 6.15 0 012.127 1.308l.031.03-.016.039a6.678 6.678 0 01-.29.608c-.11.197-.228.388-.357.572a6.47 6.47 0 01-.419.528 6.304 6.304 0 01-5.433 2.064 6.08 6.08 0 01-2.508-.878l-.037-.022.033-.028c.373-.32.715-.675 1.063-1.026.348-.35.704-.697 1.106-.986a4.57 4.57 0 011.321-.66 4.788 4.788 0 011.456-.22z" stroke="#fff" stroke-width=".68" mask="url(#path-2-outside-1_300_124)"/></svg>