<svg width="56" height="48" fill="none" xmlns="http://www.w3.org/2000/svg"><path d="M43.75 38.875a2.628 2.628 0 00-2.625 2.625 2.628 2.628 0 002.625 2.625 2.628 2.628 0 002.625-2.625 2.628 2.628 0 00-2.625-2.625zm0 3.5a.875.875 0 110-1.75.875.875 0 010 1.75zm-28-3.5a2.628 2.628 0 00-2.625 2.625 2.628 2.628 0 002.625 2.625 2.628 2.628 0 002.625-2.625 2.628 2.628 0 00-2.625-2.625zm0 3.5a.875.875 0 110-1.75.875.875 0 010 1.75z" fill="#fff"/><path d="M52.706 27.5l-1.167-.584-1.189-7.134a4.361 4.361 0 00-4.315-3.657H36.75c-1.424 0-2.678.694-3.477 1.75h-2.648v-8.75h-5.25V.375h-12.25v8.75h-5.25v8.75h-5.25v8.75c-.965 0-1.75.785-1.75 1.75v1.75c0 .965.785 1.75 1.75 1.75v7.875a2.628 2.628 0 002.625 2.625h4.445c.427 2.963 2.976 5.25 6.055 5.25 3.08 0 5.628-2.287 6.055-5.25h15.89c.427 2.963 2.976 5.25 6.055 5.25 3.08 0 5.628-2.287 6.055-5.25H52.5a2.628 2.628 0 002.625-2.625v-8.337a4.352 4.352 0 00-2.419-3.913zm.669 8.21l-1.75-.876v-1.209h1.75v2.084zm-35-16.085h1.75v1.75h-1.75v-1.75zm3.5 3.5v-3.5h1.75v7h-8.75v-7h1.75v3.5h5.25zm10.5 3.5h-7v-7h1.75v3.5h5.25v3.5zm0-6.125v.875h-3.5v-1.75h3.588a4.367 4.367 0 00-.088.875zm-3.5-2.625h-8.75v-7h1.75v3.5h5.25v-3.5h1.75v7zm-5.25-7h1.75v1.75h-1.75v-1.75zm-5.25-8.75h1.75v1.75h-1.75v-1.75zm-3.5 0h1.75v3.5h5.25v-3.5h1.75v7h-8.75v-7zm-1.75 8.75h1.75v1.75h-1.75v-1.75zm-3.5 0h1.75v3.5h5.25v-3.5h1.75v7h-8.75v-7zm-1.75 8.75h1.75v1.75h-1.75v-1.75zm-3.5 0h1.75v3.5h5.25v-3.5h1.75v7h-8.75v-7zm-1.75 8.75h29.75v1.75H2.625v-1.75zm1.75 7h3.254l-.437 1.75H4.375v-1.75zm0 4.375v-.875h4.183l1.313-5.25H4.375v-1.75h28v8.75h-10.57c-.427-2.963-2.976-5.25-6.055-5.25-3.08 0-5.628 2.287-6.055 5.25H5.25a.875.875 0 01-.875-.875zm11.375 6.125a4.38 4.38 0 01-4.375-4.375 4.38 4.38 0 014.375-4.375 4.38 4.38 0 014.375 4.375 4.38 4.38 0 01-4.375 4.375zm27.125-19.25h3.5v1.75h-1.75c-.965 0-1.75-.785-1.75-1.75zm0-1.75c-.965 0-1.75.785-1.75 1.75 0 .64.185 1.233.486 1.75h-3.986v-7h7.915l.656 3.5h-3.321zm-5.25 5.25h8.75v5.85a6.085 6.085 0 00-2.625-.6c-3.08 0-5.628 2.287-6.055 5.25h-.07v-10.5zm6.125 15.75a4.38 4.38 0 01-4.375-4.375 4.38 4.38 0 014.375-4.375 4.38 4.38 0 014.375 4.375 4.38 4.38 0 01-4.375 4.375zm8.75-5.25h-2.695a6.105 6.105 0 00-1.68-3.403V25.75l-.864-4.695a1.75 1.75 0 00-1.72-1.43h-7.916c-.965 0-1.75.785-1.75 1.75v19.25h-1.75V20.5a2.628 2.628 0 012.625-2.625h9.285c1.289 0 2.377.923 2.589 2.194l1.336 8.015 1.963.981a2.612 2.612 0 011.452 2.348v.462h-3.5v4.04l3.5 1.75v2.085a.875.875 0 01-.875.875z" fill="#fff"/></svg>