<svg width="40" height="40" fill="none" xmlns="http://www.w3.org/2000/svg"><rect width="40" height="40" rx="20" fill="red"/><path fill-rule="evenodd" clip-rule="evenodd" d="M29.782 11.781a3.132 3.132 0 012.203 2.204c.535 1.956.515 6.034.515 6.034s0 4.057-.515 6.013a3.132 3.132 0 01-2.203 2.203c-1.957.515-9.782.515-9.782.515s-7.805 0-9.782-.535a3.132 3.132 0 01-2.203-2.204C7.5 24.076 7.5 19.998 7.5 19.998s0-4.057.515-6.013a3.197 3.197 0 012.203-2.224c1.957-.515 9.782-.515 9.782-.515s7.825 0 9.782.535zM24.016 20l-6.507 3.748V16.25l6.507 3.748z" fill="#fff"/></svg>